<svg xmlns="http://www.w3.org/2000/svg" viewBox="0 0 898 731.24"><defs><style>.cls-1{isolation:isolate;}.cls-2,.cls-26{fill:#e0eff2;}.cls-2,.cls-3,.cls-6,.cls-7,.cls-8{fill-rule:evenodd;}.cls-3{fill:#6fc3d7;}.cls-4,.cls-8{fill:#fff;}.cls-5,.cls-7{fill:#a6cae4;}.cls-6{fill:#dba5c8;}.cls-9{opacity:0.7;}.cls-10{fill:#d7dbdb;mix-blend-mode:multiply;}.cls-11{fill:#5d6f70;}.cls-12{fill:#9ec44e;}.cls-13{fill:#292f54;}.cls-14{fill:#80d2e1;}.cls-15{fill:#64afd4;}.cls-16{fill:#505352;}.cls-17{fill:#72777a;}.cls-18{fill:#666b6c;}.cls-19{fill:#9292ab;}.cls-20{fill:#905e4d;}.cls-21{fill:#585675;}.cls-22{fill:#ebb176;}.cls-23{fill:#e79963;}.cls-24{fill:#493b3b;}.cls-25{fill:#874f3f;}.cls-27{fill:#e69663;}.cls-28{fill:#405454;stroke:#5d6f70;stroke-miterlimit:10;}</style></defs><title>Recurso 1</title><g class="cls-1"><g id="Capa_2" data-name="Capa 2"><g id="OBJECTS"><path class="cls-2" d="M790.29,496.69a62.24,62.24,0,0,0-62.05,62.05h0C728.23,621,677.29,672,615,672H186c-80.89,0-147.08-66.18-147.08-147.08h0C38.93,444,105.12,377.81,186,377.81h0a29.6,29.6,0,0,0,29.52-29.52h0A29.6,29.6,0,0,0,186,318.78H109A72,72,0,0,1,37.3,247h0a72,72,0,0,1,71.62-71.75h70A62.24,62.24,0,0,0,241,113.22h0C241,50.95,291.93,0,354.2,0H713.33c80.89,0,147.08,66.19,147.08,147.08h0c0,80.89-66.19,147.08-147.08,147.08h0a29.6,29.6,0,0,0-29.52,29.52h0a29.6,29.6,0,0,0,29.52,29.52h77C884.17,353.19,884.17,496.69,790.29,496.69Z"/><path class="cls-3" d="M347.11,118.21a2.06,2.06,0,0,0-1.65-3.58,2,2,0,0,0-1.1.5q-1.56,1.39-3.08,2.83a2.06,2.06,0,1,0,2.83,3q1.48-1.4,3-2.75Zm186.61,472a2.06,2.06,0,0,0-1.18,3.72,2,2,0,0,0,1.27.4l1.71,0,2.15-.06h.3a2.07,2.07,0,0,0,1-3.82,2,2,0,0,0-1.16-.3l-2.37.06-1.71,0Zm16.29-.89a2.06,2.06,0,0,0,.45,4.1l1.88-.19,2.27-.26a2.06,2.06,0,0,0-.54-4.09l-2.18.25-1.88.19ZM566.13,587a2.06,2.06,0,1,0,.82,4l1.22-.24,1.91-.4.95-.21a2.06,2.06,0,0,0,.3-3.93,2,2,0,0,0-1.21-.09l-.9.2-1.87.39-1.22.24ZM581.92,583a2.06,2.06,0,1,0,1.25,3.93l1.67-.52,1.78-.58.53-.18a2.06,2.06,0,0,0-1.34-3.9l-.48.16-1.73.56-1.67.52Zm15.27-5.6a2.06,2.06,0,1,0,1.67,3.77l1.39-.61,1.64-.74.78-.37a2.06,2.06,0,1,0-1.77-3.73l-.74.34-1.59.72-1.39.61Zm14.52-7.3a2.06,2.06,0,1,0,2.09,3.56l.61-.35,1.49-.89,1.47-.9a2.06,2.06,0,0,0-1.24-3.81,2,2,0,0,0-.93.3l-1.43.87-1.45.86-.61.36Zm13.52-9a2.06,2.06,0,0,0,2.51,3.27l.9-.68,1.34-1,1.06-.85a2.06,2.06,0,0,0-1.07-3.65,2,2,0,0,0-1.53.45l-1,.81-1.3,1-.9.68Zm12.33-10.56a2.06,2.06,0,1,0,2.9,2.94l.83-.81,1.18-1.17.94-1a2.06,2.06,0,1,0-3-2.86l-.91.93-1.14,1.14-.83.81Zm10.94-12a2.06,2.06,0,1,0,3.23,2.56l.6-.75,1-1.29,1-1.25a2.06,2.06,0,1,0-3.29-2.49l-.93,1.21-1,1.26-.6.75Zm9.42-13.24a2.06,2.06,0,0,0,3.51,2.17l.33-.53.85-1.4,1-1.66a2.06,2.06,0,1,0-3.58-2l-.94,1.58-.83,1.36-.33.53Zm7.8-14.26a2.06,2.06,0,1,0,3.73,1.76l.8-1.71.68-1.49.27-.61a2.06,2.06,0,1,0-3.79-1.64l-.25.57-.65,1.45-.78,1.67Zm6.13-15a2.06,2.06,0,1,0,3.91,1.3l.49-1.44.51-1.56.31-1a2.06,2.06,0,1,0-3.94-1.22l-.29.92-.5,1.52-.49,1.44Zm4.46-15.65a2.06,2.06,0,1,0,4,.88l.27-1.2.35-1.61.26-1.26a2.06,2.06,0,1,0-4-.8l-.25,1.22-.34,1.57-.27,1.2Zm2.78-16a2.06,2.06,0,1,0,4.1.47l.12-1,.18-1.65.14-1.46a2.06,2.06,0,0,0-3.61-1.55,2,2,0,0,0-.5,1.16l-.14,1.42-.17,1.61-.12,1Zm1.12-16.24a2.06,2.06,0,1,0,4.12.05l0-1V444a2.06,2.06,0,0,0-4.12,0v3.12l0,1Zm-.52-16.28a2.06,2.06,0,0,0,4.11-.36l-.08-1-.15-1.67-.15-1.48a2.06,2.06,0,1,0-4.1.44l.15,1.44.15,1.63.08,1Zm-2.13-16.14a2.06,2.06,0,1,0,4.05-.77l-.21-1.14-.32-1.66-.26-1.28a2.06,2.06,0,1,0-4,.85L677,413l.32,1.62.21,1.14Zm-3.71-15.85a2.06,2.06,0,1,0,4-1.17l-.41-1.41-.5-1.64-.3-.95a2.06,2.06,0,0,0-4,.29,2,2,0,0,0,.07,1l.28.91.48,1.6.41,1.41Zm-5.27-15.43a2.06,2.06,0,1,0,3.83-1.53l-.73-1.81-.66-1.59-.2-.47a2.06,2.06,0,0,0-3.78,1.65l.19.43.65,1.55.72,1.77Zm-6.77-14.8a2.06,2.06,0,0,0,3.65-1.92l-.39-.76-.82-1.54-.75-1.38a2.06,2.06,0,1,0-3.61,2l.73,1.34.8,1.5.39.76Zm-8.21-14.05a2.06,2.06,0,0,0,3.43-2.29l-.95-1.43-1-1.47-.39-.56a2.06,2.06,0,1,0-3.38,2.36l.36.52,1,1.43.95,1.43ZM644,342.44a2.06,2.06,0,0,0,3.19-2.61l-.69-.85-1.15-1.39-.82-1a2.06,2.06,0,1,0-3.13,2.68l.79.94,1.12,1.35.69.85Zm-10.86-12.14a2.06,2.06,0,0,0,3.46-1.94,2,2,0,0,0-.54-1l-.54-.55-1.31-1.3-1.12-1.09a2.06,2.06,0,1,0-2.86,3l1.09,1.06,1.27,1.26.54.55Zm-12-11a2.06,2.06,0,0,0,2.62-3.19l-.63-.53-1.46-1.19-1.14-.91a2.06,2.06,0,0,0-2.55,3.24l1.11.88,1.43,1.16.63.52Zm-13-9.79a2.06,2.06,0,1,0,2.29-3.43l-1.11-.75-1.62-1.07-.75-.48a2.06,2.06,0,0,0-3,2.63,2,2,0,0,0,.75.85l.71.46,1.59,1,1.11.75ZM594.24,301a2.06,2.06,0,1,0,2-3.61l-.38-.21-1.76-1-1.53-.8a2.06,2.06,0,1,0-1.9,3.66l1.49.78,1.73.93.38.21Zm-14.62-7.24a2.06,2.06,0,1,0,1.66-3.77l-2-.86-1.86-.79a2.06,2.06,0,1,0-1.59,3.81l1.82.77,1.93.84Zm-15.19-6a2.06,2.06,0,1,0,1.34-3.9l-.3-.1-3.65-1.22a2.06,2.06,0,0,0-2.48,2.88,2,2,0,0,0,1.2,1l3.58,1.2.3.1Zm-15.64-4.89a2.06,2.06,0,1,0,1.13-4l-4-1.12a2.06,2.06,0,0,0-1.08,4l3.95,1.1Zm-15.87-4.15a2.06,2.06,0,0,0,1.86-3.54,2,2,0,0,0-.9-.47c-1.29-.23-2.74-.65-4-.94a2.06,2.06,0,1,0-.92,4c1.28.3,2.72.7,4,.93Zm-16-3.5a2.06,2.06,0,1,0,.8-4l-4.06-.79a2.06,2.06,0,1,0-.77,4l4,.79Zm-16.17-2.93a2.06,2.06,0,1,0,.67-4.07l-4.09-.66a2.06,2.06,0,1,0-.64,4.07l4.06.65Zm-16.25-2.43a2.06,2.06,0,0,0,.55-4.09l-4.1-.54a2.06,2.06,0,0,0-1.51,3.69,2,2,0,0,0,1,.4l4.08.54Zm-16.32-2a2.06,2.06,0,1,0,.45-4.1l-4.11-.44a2.06,2.06,0,0,0-1.54,3.62,2,2,0,0,0,1.12.48l4.09.44Zm-16.37-1.61a2.07,2.07,0,0,0,1.49-3.65,2,2,0,0,0-1.13-.46L448,261.8a2.06,2.06,0,1,0-.34,4.11l4.1.35Zm-16.48-1.47a2.06,2.06,0,1,0,.45-4.1l-4.08-.46a2.06,2.06,0,1,0-.49,4.1l4.12.46Zm-16.46-2.15a2.06,2.06,0,0,0,.65-4.07c-1.34-.21-2.71-.42-4-.66a2.06,2.06,0,1,0-.71,4.06c1.36.24,2.74.46,4.1.67Zm-16.33-3a2.06,2.06,0,1,0,.89-4q-2-.44-4-.91a2.06,2.06,0,0,0-1,4c1.35.32,2.7.63,4.05.92Zm-16.12-4.13a2.06,2.06,0,0,0,1.18-4c-1.3-.38-2.6-.79-3.9-1.2a2.06,2.06,0,1,0-1.27,3.92q2,.64,4,1.23ZM370.62,250a2.06,2.06,0,1,0,1.54-3.83q-1.89-.75-3.76-1.56a2.06,2.06,0,0,0-2.34,3.28,2.09,2.09,0,0,0,.71.5q1.92.83,3.86,1.6Zm-15.17-7a2.06,2.06,0,0,0,2-3.63q-1.78-1-3.53-2a2.06,2.06,0,1,0-2.09,3.55c1.2.71,2.43,1.39,3.66,2.05Zm-14.17-9a2.06,2.06,0,1,0,2.48-3.29c-1.08-.81-2.13-1.64-3.18-2.49a2.06,2.06,0,1,0-2.62,3.19c1.09.89,2.19,1.75,3.31,2.6Zm-12.52-11.3a2.06,2.06,0,1,0,3.06-2.77c-.9-1-1.77-2-2.62-3a2.06,2.06,0,1,0-3.2,2.6c.9,1.09,1.81,2.16,2.76,3.2Zm-9.92-13.73a2.06,2.06,0,0,0,3.62-2c-.65-1.17-1.25-2.35-1.83-3.55a2.06,2.06,0,0,0-3.73,1.76c.61,1.28,1.26,2.54,1.94,3.78Zm-6.26-15.79a2.06,2.06,0,1,0,4-1q-.48-1.94-.84-3.89a2.06,2.06,0,1,0-4.06.72q.38,2.1.9,4.17Zm-1.9-16.89a2.06,2.06,0,1,0,4.12.1c0-1.33.1-2.66.21-4a2.06,2.06,0,1,0-4.11-.37c-.13,1.41-.2,2.84-.23,4.25Zm2.72-16.79a2.06,2.06,0,1,0,3.94,1.23c.37-1.2.81-2.63,1.3-3.78a2.06,2.06,0,0,0-3.85-1.48c-.51,1.31-1,2.68-1.38,4ZM320.25,144a2.06,2.06,0,1,0,3.57,2.07q1-1.75,2.09-3.45a2.06,2.06,0,0,0-3.47-2.22q-1.13,1.78-2.19,3.61Zm9.6-13.8a2.06,2.06,0,0,0,3.19,2.61c.86-1,1.73-2.07,2.62-3.09a2.06,2.06,0,1,0-3.1-2.72C331.64,128.05,330.73,129.13,329.85,130.21Z"/><rect class="cls-4" x="658.86" y="75.31" width="10.91" height="10.91" rx="2.55" ry="2.55"/><rect class="cls-5" x="679.05" y="75.31" width="10.91" height="10.91" rx="2.55" ry="2.55"/><path class="cls-4" d="M701.78,75.31h5.82a2.55,2.55,0,0,1,2.55,2.55v5.82a2.55,2.55,0,0,1-2.55,2.55h-5.82a2.54,2.54,0,0,1-2.54-2.54V77.85A2.54,2.54,0,0,1,701.78,75.31Z"/><rect class="cls-5" x="719.42" y="75.31" width="10.91" height="10.91" rx="2.55" ry="2.55"/><path class="cls-4" d="M742.15,75.31H748a2.55,2.55,0,0,1,2.55,2.55v5.82A2.55,2.55,0,0,1,748,86.22h-5.82a2.54,2.54,0,0,1-2.54-2.54V77.85A2.54,2.54,0,0,1,742.15,75.31Z"/><path class="cls-4" d="M762.34,75.31h5.82a2.55,2.55,0,0,1,2.55,2.55v5.82a2.55,2.55,0,0,1-2.55,2.55h-5.82a2.54,2.54,0,0,1-2.54-2.54V77.86A2.55,2.55,0,0,1,762.34,75.31Z"/><rect class="cls-4" x="779.98" y="75.31" width="10.91" height="10.91" rx="2.55" ry="2.55"/><path class="cls-4" d="M722.7,53.3h5.82a2.54,2.54,0,0,1,2.54,2.54v5.82a2.54,2.54,0,0,1-2.54,2.54H722.7a2.55,2.55,0,0,1-2.55-2.55V55.85A2.54,2.54,0,0,1,722.7,53.3Z"/><path class="cls-5" d="M742.88,53.3h5.82a2.55,2.55,0,0,1,2.55,2.55v5.82a2.54,2.54,0,0,1-2.54,2.54h-5.82a2.55,2.55,0,0,1-2.55-2.55V55.85A2.54,2.54,0,0,1,742.88,53.3Z"/><path class="cls-4" d="M763.07,53.3h5.82a2.55,2.55,0,0,1,2.55,2.55v5.82a2.54,2.54,0,0,1-2.54,2.54h-5.82a2.55,2.55,0,0,1-2.55-2.55V55.85A2.54,2.54,0,0,1,763.07,53.3Z"/><path class="cls-4" d="M742.15,99H748a2.55,2.55,0,0,1,2.55,2.55v5.82a2.54,2.54,0,0,1-2.54,2.54h-5.82a2.54,2.54,0,0,1-2.54-2.54V101.5A2.54,2.54,0,0,1,742.15,99Z"/><rect class="cls-5" x="759.79" y="98.95" width="10.91" height="10.91" rx="2.54" ry="2.54"/><path class="cls-6" d="M254.45,233.11h0a15,15,0,0,1,19.88-7.23l1.84.86.86-1.84a15,15,0,0,1,19.88-7.23h0a15,15,0,0,1,7.23,19.88l-.86,1.84-12.64,27.11-27.11-12.64-1.84-.86A15,15,0,0,1,254.45,233.11Z"/><circle class="cls-5" cx="507.01" cy="75.49" r="5.09"/><path class="cls-7" d="M589.94,372.29a5.09,5.09,0,1,0-5.09-5.09A5.1,5.1,0,0,0,589.94,372.29Z"/><path class="cls-7" d="M693.24,584.7a5.09,5.09,0,1,0-5.09-5.09A5.1,5.1,0,0,0,693.24,584.7Z"/><path class="cls-7" d="M99.64,544a5.09,5.09,0,1,0-5.09-5.09A5.1,5.1,0,0,0,99.64,544Z"/><circle class="cls-5" cx="710.7" cy="230.44" r="5.09"/><path class="cls-7" d="M252.41,202.07a5.09,5.09,0,1,0-5.09-5.09A5.1,5.1,0,0,0,252.41,202.07Z"/><circle class="cls-4" cx="240.04" cy="489.41" r="5.09"/><circle class="cls-4" cx="726.7" cy="463.95" r="5.09"/><path class="cls-8" d="M624.86,253.71a5.09,5.09,0,1,0-5.09-5.09A5.1,5.1,0,0,0,624.86,253.71Z"/><path class="cls-8" d="M583.4,65.31a5.09,5.09,0,1,0-5.09-5.09A5.1,5.1,0,0,0,583.4,65.31Z"/><path class="cls-8" d="M788.54,193.34a5.09,5.09,0,1,0-5.09-5.09A5.1,5.1,0,0,0,788.54,193.34Z"/><g class="cls-9"><path class="cls-4" d="M196.11,263.36c-4.43-6.3-14.24-9-21.11-12,.95-1.74,1.91-3.48,2.91-5.2,3.35-5.69,7.85-12.2,7.76-19.06-.14-10.37-14-15.2-20.43-7.26-6.63,4.24-9.39,11.75-13.53,19-2.71-1.52-5.45-3-8.26-4.38-4.87-2.39-10.12-4.68-15.07-3.83a.93.93,0,0,0-.86-1,7.19,7.19,0,0,0-5.58,1.51,1.52,1.52,0,0,0-1.49.43c-3.68,3.65-6.39,10.2-3.53,14.65a16.75,16.75,0,0,0,3.23,7.17c4.49,5.83,11.58,7.63,18.2,10-.65.89-1.3,1.85-1.95,2.87a24.34,24.34,0,0,0-4.08,7.76c-3.68,8.88-4.16,18.72,7.26,22.56,13.11,4.41,20.25-12.08,24.51-22.22,2.86,1.23,5.72,2.47,8.59,3.68,6.65,2.81,14.69,8.45,21.09,2.13C198,276.11,199.61,268.34,196.11,263.36Zm-68.66-15.31a18,18,0,0,1,2.19-3.67A25.27,25.27,0,0,1,127.45,248.05Z"/><path class="cls-10" d="M194.53,273.81c-3.87,2.85-6.73,5.46-11.82,5-4.2-.34-8-2.37-11.68-4.3-7-3.71-14-7.48-21-11.12-6.2-3.22-12.43-6.39-18.62-9.63s-12.18-5.58-15.14-12.3a.8.8,0,0,0-1.52.44c.42,6.69,6,10.36,11.29,13.53,11.25,6.73,22.92,12.83,34.48,19,7.14,3.8,14.59,9.14,23,9.27,5.53.09,11.89-2.23,13.5-8C197.42,274.32,196,272.74,194.53,273.81Z"/><path class="cls-10" d="M163.85,279c-1.51-3.17-6.56-4.4-9.49-6q-4.94-2.78-10-5.35c-2.65-1.35-5.1-3.08-8.09-3.41a1.13,1.13,0,0,0-.74,2.1c4.59,3.12,9.23,6,14.06,8.73,4,2.28,8.27,5.78,13,5.9A1.33,1.33,0,0,0,163.85,279Z"/><path class="cls-4" d="M194.51,259.58c-2.22-2.71-12.66-7.45-16.53-9.87-7.14-4.46-16.25-8.48-24.13-12.4,3.72-4.48,5.53-10.35,9.7-14.53,7-7,15.06-1.88,21.91,2.52.89.57,2.44.16,2.44-1.09,0-7.06-14.33-11-19.8-9.57-8.73,2.22-14.76,13.53-15.88,21.85l-1.63-.83c-10-5.22-30-17.26-33.53,1.45a1.24,1.24,0,0,0,2.3.85c6-10.58,16-5.44,24.62-1.68a188.86,188.86,0,0,1,17.15,8.92c5.43,3.07,11.23,5.43,16.57,8.68,4.18,2.55,11.57,5.54,16.08,7.44C194.71,261.71,195.18,260.4,194.51,259.58Z"/><path class="cls-4" d="M139.81,294.74c-2.9-3.63-6.68-4.39-7.07-9.69a34.68,34.68,0,0,1,1.31-12.39,14.61,14.61,0,0,0,1-4.94c0-.46.48.37,0,.52-5.52,1.9-7.35,12.47-6.95,17.37.43,5.13,5,13.42,11.25,10.69A1,1,0,0,0,139.81,294.74Z"/><path class="cls-4" d="M175.08,256.54c-1.14-3.38-4.6-4.4-7.53-6.09-4.47-2.58-9.06-5.3-14.28-6-6.51-.86-13.94,4.91-10.8,11.92.19.43.94.67,1.15.1,2.57-6.83,5.34-9.72,11.6-8a36.36,36.36,0,0,1,7,3c3.84,2,7.54,4.6,11.6,6.13A1,1,0,0,0,175.08,256.54Z"/><path class="cls-11" d="M187.3,253.12c-11.89-6.19-23.7-11.88-35.09-19a87.28,87.28,0,0,0-14.75-7.89c-5.4-2.06-11.71-3.91-16.55.3a24.15,24.15,0,0,0-5.18,6.4,26.24,26.24,0,0,0-2.76,8.56c-1.29,9.12,6.85,14.05,13.91,17.79,11.83,6.26,45.92,22.72,51.13,24.8,3.86,1.53,8,3.72,12.25,2.32,6.37-2.1,9.45-10.87,10.26-16.89C201.8,260.09,194.53,256.88,187.3,253.12Zm9.36,18.28c-.68,3.08-1.73,6.87-3.88,9.24-4.23,4.65-8.82,2.34-13.87.27-4.16-1.7-26.48-11.86-33.21-15.68-7-4-14.69-7.06-21.5-11.37-6.28-4-9.09-8.15-6.92-15.8,1-3.64,3.57-8.76,7.47-10,2.19-.68,5.29.34,7.45.86a53.58,53.58,0,0,1,9,3.09c9.3,4.07,17.6,10,26.7,14.47,7.54,3.68,15.39,7.06,22.5,11.53C195.36,261.17,198,265.32,196.66,271.39Z"/><path class="cls-11" d="M168.84,250.79c-1.68-1-3.41-1.88-5.14-2.77-2.92-1.5-5.72-3.33-8.79-4.51s-6.91-2.31-9.76.18a14.24,14.24,0,0,0-3.05,3.77,15.47,15.47,0,0,0-1.63,5c-.76,5.38,4,8.29,8.21,10.49a117.41,117.41,0,0,0,14.51,6.41c2.28.91,4.73,2.19,7.22,1.37,3.76-1.24,5.57-6.41,6-10,.43-3.22-1.4-5.77-3.88-7.6A41.69,41.69,0,0,0,168.84,250.79Zm5.33,11.13a12.27,12.27,0,0,1-2.29,5.45c-2.49,2.74-5.2,1.38-8.18.16-2.45-1-12.6-5.2-16.62-7.74-3.7-2.34-5.36-4.8-4.08-9.32.61-2.15,2.11-5.16,4.41-5.88,1.29-.4,3.12.2,4.39.51a31.61,31.61,0,0,1,5.3,1.82,53.21,53.21,0,0,1,5.41,2.94C167.24,252.6,175.74,254.81,174.17,261.92Z"/><path class="cls-11" d="M163.55,274.2a152.75,152.75,0,0,1-7.45,14c-4,6.28-8.15,9.09-15.8,6.93-3.64-1-8.76-3.57-10-7.47-.68-2.19.34-5.29.86-7.45a53.57,53.57,0,0,1,3.09-9c1.28-2.93,2.76-5.75,4.3-8.53l-.19-.07a4.58,4.58,0,0,1-2.25-2,85.1,85.1,0,0,0-7.65,14.36c-2.06,5.4-3.91,11.71.3,16.55a24.16,24.16,0,0,0,6.4,5.18,26.23,26.23,0,0,0,8.56,2.76c9.12,1.29,14.05-6.85,17.79-13.91,1.26-2.38,2.93-5.66,4.82-9.42A19.29,19.29,0,0,1,163.55,274.2Z"/><path class="cls-11" d="M188.67,222.12c-2.1-6.37-10.87-9.45-16.89-10.26-9.45-1.27-12.66,6-16.42,13.23-1.71,3.29-3.39,6.57-5.06,9.84l0,0a11.92,11.92,0,0,1,2.29,1.45h0A141.36,141.36,0,0,1,160.29,222c3.13-5,7.27-7.61,13.35-6.27,3.08.68,6.87,1.73,9.24,3.88,4.65,4.23,2.34,8.82.27,13.87-.83,2-3.69,8.41-6.83,15.18a2.93,2.93,0,0,1,.61.09,2.15,2.15,0,0,1,2.24,1.1c3.56-7.44,6.39-13.52,7.17-15.49C187.88,230.5,190.06,226.34,188.67,222.12Z"/><path class="cls-11" d="M158.25,239l.61.25a6.32,6.32,0,0,1,5.3-1,12.27,12.27,0,0,1,5.45,2.29,4.42,4.42,0,0,1,1.43,4.68,12.32,12.32,0,0,1,1.62,1.51A7.09,7.09,0,0,0,173,242c-1.24-3.76-6.41-5.57-10-6a7.43,7.43,0,0,0-6.43,2.52A8.28,8.28,0,0,1,158.25,239Z"/></g><g class="cls-9"><path class="cls-10" d="M427.9,79.22c-.44-1.18-.45-2.74-.92-1.44-1.49,4.07-4.09,11.08-5.63,15.16-2.37,6.28-5.41,9.94-8.92,16a119.16,119.16,0,0,1-12.11,17.9c-1.46,1.74-4.09,6.34-6.14,7.21-3.32,1.4-11.31-6.14-14.09-8.12-5.58-4-11-8.42-16.74-12.06-.76-.48-2,.25-1.52,1.13,5.49,9.22,17.83,16.71,26.8,22.73,7.76,5.21,11.17-2.73,15.93-8.44,6.28-7.53,12.23-15.37,16.51-24.1C424.57,98,430.87,87.16,427.9,79.22Z"/><path class="cls-4" d="M411.3,56.74c-10.56-.21-19.48,10.29-21.14,19.4a.62.62,0,0,0,0-.16c-5.47-13.17-23.26-25.89-37.4-14.78C339.58,71.52,339,96.9,352.46,107a1.17,1.17,0,0,0,1.76-1.2c-1.81-7.55-6.67-13.44-6.43-21.62a31.06,31.06,0,0,1,4.38-15.28c5.34-8.48,15.64-9.11,24-4.19,5.25,3.08,8,8.28,12.6,12a1,1,0,0,0,1.32-.21.84.84,0,0,0,1.44.5c5.78-6,9.65-17.07,20.47-15.95,11.74,1.21,11.64,12,14.07,20.05.32,1.07,1.79.75,2.09-.12C431.93,70.14,424.1,57,411.3,56.74Z"/><path class="cls-11" d="M443.54,89.55c-5.09.76-10.22.93-15.34,1.21,1.94-7.25,2.46-14.71,0-22.16-2.84-8.67-8.86-15.42-19.4-13.29-9.28,1.88-15.64,10.76-18.92,18.78-3.56-8.89-14.21-18-23.85-19.26-12.53-1.7-23.08,8.47-25.39,19.3s.39,20.27,5.82,28.57c-2.93.41-6,.64-7.86,1-.88.19-.67,1.3.14,1.41,3,.4,5.88-.42,8.85-.8,10.78,15.19,44.8,38.47,45.24,38.57,1.5.82,12.53-11.56,16.54-16.69,4.46-5.71,8.77-11.54,11.9-18a110.84,110.84,0,0,0,6.15-14.86c1.65.06,3.19.13,4.38.08a117.82,117.82,0,0,0,12.43-1.06C446.22,92.11,445.51,89.25,443.54,89.55Zm-30.77,27.73c-5.71,7.61-13.2,14-19,21.42-7.92-6.41-15.79-12.81-24-18.9-6.35-4.7-12.72-9.79-17.49-15.93a6.22,6.22,0,0,0,2.38-.91c3.38-2.37,2.09-7.27,3.16-10.82,3.82,4.08,6.46,8.82,9.69,13.33a1.55,1.55,0,0,0,1.34.64.88.88,0,0,0,1.17-.45,1.1,1.1,0,0,0,.24-1.26c1.26-7.31.42-14.91,1.32-22.26,4.79,12.94,6.66,27,12,39.73.61,1.47,2.81.67,2.95-.64.3-2.88.5-5.76.7-8.64.15-2.08-.52-6.35.4-8.25,1.4-2.92,9.1-3.63,12.6-2.8a1.52,1.52,0,0,0,1.61-.55.57.57,0,0,0,.22-.22c2.49-4.54,2.94-10.56,3.23-16.2.52,2.9.78,5.95,1.33,8.34,1.32,5.77,1.93,11.84,3.63,17.48a1,1,0,0,0,1.77.06c1.83-4,1.7-13.68,5.54-16,1.71-1,4.64-1.19,7.56-1.15C422.75,101.91,418.17,110.08,412.77,117.28Zm13.64-30.79c-.18,1.48-.43,3-.75,4.42a76.7,76.7,0,0,0-11.41,1.47,1.35,1.35,0,0,0-1.07,1.22,66.43,66.43,0,0,1-1.87,13.22c-1-5.61-1.31-11.4-2.6-17-.95-4.09-.89-9.12-3.19-12.77a1.35,1.35,0,0,0-2.48.54c-.77,7-2,14.12-2.27,21.16-3.77-.83-12-1.19-14.83,1-1.75,1.34-1.49,3.47-1.67,5.33-.26,2.75-.37,5.51-.48,8.27-4-12.25-6.87-25-11.24-37.07a1.62,1.62,0,0,0-3-.11c-2.57,7-2.52,16.2-1.76,24.18-2.66-4.1-5.58-8.07-9.71-11a1.11,1.11,0,0,0-1.6.55c-1.14,3.22-.24,8.49-2.94,10.66a7.93,7.93,0,0,1-2.7,1.24,36.27,36.27,0,0,1-4.62-9c-4-11.82-2.89-26.89,10.36-33s28.43,8,33.23,18.65c.45,1,6.93-13.63,11.77-17.38a16.32,16.32,0,0,1,7.9-3.32C426.08,55.4,427.7,75.63,426.41,86.49Z"/></g><g class="cls-9"><path class="cls-10" d="M736.24,247.44c-11.38,4.36-22.11,11.37-32.71,17.36-3.93,2.22-10.6,7.28-15,7.81-4.17.51-5.14-3.46-6.73-6.65-6-12.08-12.47-24-18.76-35.94-5.51-10.47-9.67-21.65-15.81-31.78-.7-1.15-2.58-.08-2,1.13,6.23,14.34,10.9,28.9,18.09,42.86,3.38,6.57,7,13,10.46,19.53,2.25,4.23,4.35,10.28,7.48,14,5,6,10.78.53,16.48-2.07,13.9-6.33,26.52-15.49,40.73-21.11C741.83,251.28,739.62,246.15,736.24,247.44Z"/><path class="cls-4" d="M659.91,193.45c-1.81,1.62-3.89,4.61-1.77,6.84a1.41,1.41,0,0,0,2.41-1.24,3.58,3.58,0,0,1,.25-2.51,8.22,8.22,0,0,1,1-1.29A1.29,1.29,0,0,0,659.91,193.45Z"/><path class="cls-4" d="M687.68,179a9.11,9.11,0,0,0-.94,5.31c.24,1.12,2.26,1.34,2.42.07a22.72,22.72,0,0,1,.63-4.61C690.19,178.6,688.2,177.88,687.68,179Z"/><path class="cls-4" d="M668,209c-2.53.46-5,3.91-3.47,6.43,1.08,1.83,3,1.45,3.38-.88.23-1.37.26-2.57,1.26-3.7A1.15,1.15,0,0,0,668,209Z"/><path class="cls-4" d="M696.6,198.8a1.84,1.84,0,0,1,.29-1.46,1.4,1.4,0,0,0-.54-2,1.72,1.72,0,0,0-1.3-.21c-1.69.4-2.39,2.12-2.36,3.74a4.33,4.33,0,0,0,1.91,3.78c1,.66,2.74-.09,2.41-1.47A19,19,0,0,1,696.6,198.8Z"/><path class="cls-4" d="M676.64,226.62c1.41-1.59-1.12-3.67-2.55-2.1a5.89,5.89,0,0,0-1.42,4.47c.16,1.77,1.32,3.84,3.36,3.21a1,1,0,0,0,.62-.84c.08-1.13-.71-2-.68-3.08A2.5,2.5,0,0,1,676.64,226.62Z"/><path class="cls-4" d="M704.56,209.88c-1.82,1.46-3.51,4.87-1.19,6.71a1.64,1.64,0,0,0,2.26,0,1.62,1.62,0,0,0,.46-1.11,1.94,1.94,0,0,0-.2-.58c.13.25.14.17,0-.29a3.79,3.79,0,0,1-.18-.5,2.82,2.82,0,0,1,.73-2.61C707.33,210.33,705.6,209,704.56,209.88Z"/><path class="cls-4" d="M684,243.87c-.06-1,.57-1.77.72-2.67a1.44,1.44,0,0,0-2.78-.74c-.15.51-.51,1-.71,1.53a5.58,5.58,0,0,0-.44,2.35,3.2,3.2,0,0,0,.74,1.8,2.12,2.12,0,0,0,2.36.61,1,1,0,0,0,.6-1.29A7.22,7.22,0,0,1,684,243.87Z"/><path class="cls-4" d="M713.21,226.72a1.68,1.68,0,0,0-.87-2.19,1.7,1.7,0,0,0-2.19.87c-1.11,2-2.41,5.22,0,6.82a1.39,1.39,0,0,0,2.16-1.33,5,5,0,0,1,0-2.27A10.53,10.53,0,0,1,713.21,226.72Z"/><path class="cls-4" d="M692.27,255.8a1.57,1.57,0,0,0-2.44.13,7,7,0,0,0-1.72,4.79c.14,1.47,1.17,3.1,2.87,2.77a1.57,1.57,0,0,0,1.29-1.72c0-1.1-.39-1.4-.31-2.46S693.17,256.85,692.27,255.8Z"/><path class="cls-4" d="M721.49,243.5a1.54,1.54,0,0,0,.36-2.07,1.47,1.47,0,0,0-.76-.55c-.28-.09-1.14-.18-1.31.18,0,0-1,.58-1.14.7a4.58,4.58,0,0,0-.45.44,4.51,4.51,0,0,0-1.08,3.58,3.24,3.24,0,0,0,2.57,2.86,1.51,1.51,0,0,0,1.75-1.59c0-.88-.62-1.53-.66-2.36C720.74,244.09,721.13,243.88,721.49,243.5Z"/><path class="cls-4" d="M719.76,213.49c-3.49-15.19-13.53-30.3-21-44.15a2.59,2.59,0,0,0-2.89-3.7c-8.31,2-16.63,7.48-24.16,11.46-9.74,5.15-19.33,11-29.69,14.89a1.44,1.44,0,0,0,.41,2.82c8.68-.12,17.63-6.08,25.12-10,8.78-4.56,18.36-11.06,28-14,2.23,6.74,5.61,12.65,9,19.07a251.49,251.49,0,0,0,16.84,27.43C722,218.23,720,214.49,719.76,213.49Z"/><path class="cls-11" d="M661.67,192.2a5.7,5.7,0,0,0-6.3,3.31,6,6,0,0,0-.28,1.06,5.87,5.87,0,0,0,.2,2.88,5.28,5.28,0,0,0,7.43,2.82,5.2,5.2,0,0,0,2.59-7.22A5.26,5.26,0,0,0,661.67,192.2ZM662,200c-1.56.91-3.86.61-4.3-1.37a3.47,3.47,0,0,1,1.45-3.55,2.77,2.77,0,0,1,2.09-.38,3,3,0,0,1,1.61,1A2.86,2.86,0,0,1,662,200Z"/><path class="cls-11" d="M669.17,207.94a5.7,5.7,0,0,0-6.3,3.31,6,6,0,0,0-.28,1.06,5.87,5.87,0,0,0,.2,2.88,5.28,5.28,0,0,0,7.43,2.82,5.2,5.2,0,0,0,2.59-7.22A5.26,5.26,0,0,0,669.17,207.94Zm.29,7.77c-1.56.91-3.86.61-4.3-1.37a3.47,3.47,0,0,1,1.45-3.55,2.77,2.77,0,0,1,2.09-.38,3,3,0,0,1,1.61,1A2.86,2.86,0,0,1,669.46,215.71Z"/><path class="cls-11" d="M677.41,222.83a5.7,5.7,0,0,0-6.3,3.31,6,6,0,0,0-.28,1.06,5.87,5.87,0,0,0,.2,2.88,5.28,5.28,0,0,0,7.43,2.82,5.2,5.2,0,0,0,2.59-7.22A5.26,5.26,0,0,0,677.41,222.83Zm.29,7.77c-1.56.91-3.86.61-4.3-1.37a3.47,3.47,0,0,1,1.45-3.55,2.77,2.77,0,0,1,2.09-.38,3,3,0,0,1,1.61,1A2.86,2.86,0,0,1,677.7,230.6Z"/><path class="cls-11" d="M684.79,238.33a5.7,5.7,0,0,0-6.3,3.31,6,6,0,0,0-.28,1.06,5.87,5.87,0,0,0,.2,2.88,5.28,5.28,0,0,0,7.43,2.82,5.2,5.2,0,0,0,2.59-7.22A5.26,5.26,0,0,0,684.79,238.33Zm.29,7.77c-1.56.91-3.86.61-4.3-1.37a3.47,3.47,0,0,1,1.45-3.55,2.77,2.77,0,0,1,2.09-.38,3,3,0,0,1,1.61,1A2.86,2.86,0,0,1,685.08,246.09Z"/><path class="cls-11" d="M693.14,253.94a5.7,5.7,0,0,0-6.3,3.31,6,6,0,0,0-.28,1.06,5.87,5.87,0,0,0,.2,2.88,5.28,5.28,0,0,0,7.43,2.82,5.2,5.2,0,0,0,2.59-7.22A5.26,5.26,0,0,0,693.14,253.94Zm.29,7.77c-1.56.91-3.86.61-4.3-1.37a3.47,3.47,0,0,1,1.45-3.55,2.77,2.77,0,0,1,2.09-.38,3,3,0,0,1,1.61,1A2.86,2.86,0,0,1,693.43,261.71Z"/><path class="cls-11" d="M690.6,177.19a5.7,5.7,0,0,0-6.3,3.31,6,6,0,0,0-.28,1.06,5.87,5.87,0,0,0,.2,2.88,5.28,5.28,0,0,0,7.43,2.82,5.2,5.2,0,0,0,2.59-7.22A5.26,5.26,0,0,0,690.6,177.19Zm.29,7.77c-1.56.91-3.86.61-4.3-1.37A3.47,3.47,0,0,1,688,180a2.77,2.77,0,0,1,2.09-.38,3,3,0,0,1,1.61,1A2.86,2.86,0,0,1,690.89,185Z"/><path class="cls-11" d="M698.11,192.93a5.7,5.7,0,0,0-6.3,3.31,6,6,0,0,0-.28,1.06,5.87,5.87,0,0,0,.2,2.88,5.28,5.28,0,0,0,7.43,2.82,5.2,5.2,0,0,0,2.59-7.22A5.26,5.26,0,0,0,698.11,192.93Zm.29,7.77c-1.56.91-3.86.61-4.3-1.37a3.47,3.47,0,0,1,1.45-3.55,2.77,2.77,0,0,1,2.09-.38,3,3,0,0,1,1.61,1A2.86,2.86,0,0,1,698.4,200.7Z"/><path class="cls-11" d="M706.34,207.82a5.7,5.7,0,0,0-6.3,3.31,6,6,0,0,0-.28,1.06,5.87,5.87,0,0,0,.2,2.88,5.28,5.28,0,0,0,7.43,2.82,5.2,5.2,0,0,0,2.59-7.22A5.26,5.26,0,0,0,706.34,207.82Zm.29,7.77c-1.56.91-3.86.61-4.3-1.37a3.47,3.47,0,0,1,1.45-3.55,2.77,2.77,0,0,1,2.09-.38,3,3,0,0,1,1.61,1A2.86,2.86,0,0,1,706.63,215.59Z"/><path class="cls-11" d="M713.72,223.31a5.7,5.7,0,0,0-6.3,3.31,6,6,0,0,0-.28,1.06,5.87,5.87,0,0,0,.2,2.88,5.28,5.28,0,0,0,7.43,2.82,5.2,5.2,0,0,0,2.59-7.22A5.26,5.26,0,0,0,713.72,223.31Zm.29,7.77c-1.56.91-3.86.61-4.3-1.37a3.47,3.47,0,0,1,1.45-3.55,2.77,2.77,0,0,1,2.09-.38,3,3,0,0,1,1.61,1A2.86,2.86,0,0,1,714,231.08Z"/><path class="cls-11" d="M722.08,238.93a5.7,5.7,0,0,0-6.3,3.31,6,6,0,0,0-.28,1.06,5.87,5.87,0,0,0,.2,2.88,5.28,5.28,0,0,0,7.43,2.82,5.2,5.2,0,0,0,2.59-7.22A5.26,5.26,0,0,0,722.08,238.93Zm.29,7.77c-1.56.91-3.86.61-4.3-1.37a3.47,3.47,0,0,1,1.45-3.55,2.77,2.77,0,0,1,2.09-.38,3,3,0,0,1,1.61,1A2.86,2.86,0,0,1,722.37,246.7Z"/><path class="cls-11" d="M710.53,258A302.28,302.28,0,0,0,693,222.14c-7.25-12.69-10.91-27.12-18.71-39.73-.61-1-2.5-.57-2.08.72,4.39,13.64,11.94,25.8,17.52,38.89,2.57,6,5,12.13,7.65,18.1,3,6.64,7.28,12.79,10,19.51C708.22,261.74,711.38,260.15,710.53,258Z"/><path class="cls-11" d="M742.84,252.93c-4.78-11.92-18.8-40.65-25.18-51.81-7.25-12.69-17.46-41.83-19.85-40.94-11.89,5.53-26.73,12.93-34.2,17.19-4.17,2.38-8.5,4.49-12.85,6.51-2.18,1-4.37,2-6.55,3l-3.27,1.5c-1.4.65-4,1.56-3.29,3.52,3.43,8.92,8,16.93,12.16,25.55l.83,1.73c1.69,3.53,3.35,7.07,4.89,10.68,2.57,6,8.29,15.82,11,21.79,3,6.64,11.73,22.31,14.43,29,.25.63.87,2.14,1.06,2.57,7.65-3.44,15.59-7.56,23.92-11.12,6-2.57,15.82-8.29,21.79-11C731,259.65,743.19,253.82,742.84,252.93ZM706.7,267c-7.56,4.31-15.31,7.59-23,11.16-5-12.26-16.79-36.58-23-47.46-7.18-12.57-11.44-25.71-19.11-38.22,6.93-3.2,13.61-6.66,21.23-9.91,6-2.57,15.82-8.29,21.79-11,2.91-1.31,7.54-3.71,12.39-6.23,4.34,12.63,10.22,22.57,15.51,35,2.57,6,8.29,15.82,11,21.79,3,6.64,11.73,22.31,14.43,29l0,.05C726.5,256.54,713.77,262.92,706.7,267Z"/></g><path class="cls-12" d="M57.37,621.43V554.91l125.73-176h86V552.48h31.64v69H269.09V670.1H188.78V621.43Zm137.5-151.29-57.19,82.34h57.19Z"/><path class="cls-12" d="M332,523.28q0-66.92,28.59-106.06t89-39.14q60.43,0,89.23,39.34t28.8,105.86q0,66.92-28.8,106.27t-89.23,39.34q-60.44,0-89-39.34T332,523.28Zm157,0q0-33.25-7.91-51.51t-31.43-18.25q-23.53,0-31.43,18.25t-7.91,51.51q0,33.67,7.91,51.92t31.43,18.25q23.52,0,31.43-18.25T488.92,523.28Z"/><path class="cls-12" d="M601.27,621.43V554.91L727,378.89h86V552.48h31.64v69H813V670.1H732.68V621.43Zm137.5-151.29-57.19,82.34h57.19Z"/><path class="cls-13" d="M493,513.81s-4.4,7-16,11.19c-22.73,8.21-75.84,3.65-85.21-5.31a56.49,56.49,0,0,0-2.23,9.26c-1.32,13-3.85,57.27,49.71,63.33l6.45-23.57,9.2-.34,13,25.79s27.12-11.06,33.34-38.28Z"/><path class="cls-14" d="M310.69,326.54c-2.89,5.06,4.86,9.11,7.58,11.2,2.22,1.72,15.2,5.45,16.48,5.4A105.94,105.94,0,0,1,339,355c.2.73,10.46-2.4,10.34-3.36-.5-3.84-.79-12.42-4.59-18.5-3-4.76-6.7-9.07-12.65-9C330.51,324.12,312.27,323.78,310.69,326.54Z"/><path class="cls-15" d="M328,328.23s-.47,4.39,5.13,7c0,0-4.73-1.79-5.57-3.23C326.55,330.17,328,328.23,328,328.23Z"/><path class="cls-15" d="M335.48,344.86s10.36-3.19,12.07-4.83l1,4.21-12.12,3.55Z"/><rect class="cls-16" x="301.39" y="294.78" width="3.48" height="14.92" transform="translate(-124.41 281.08) rotate(-42.08)"/><polygon class="cls-17" points="310.69 278.64 314.4 282.75 314.26 282.89 303.81 293.43 296.53 303.07 290.05 299.48 289.75 299.32 286.58 293.15 299.3 286.76 310.69 278.64"/><polygon class="cls-18" points="313.54 281.79 314.4 282.75 314.26 282.89 303.81 293.43 296.53 303.07 290.05 299.48 313.54 281.79"/><polygon class="cls-17" points="340.57 337.12 335.13 344.27 299.55 302.36 306.02 300.77 340.57 337.12"/><polygon class="cls-18" points="340.57 337.12 299.55 302.36 335.13 344.27 340.57 337.12"/><path class="cls-14" d="M318.07,320.59a1.25,1.25,0,0,1,1.07-1.65c3.71-.07,8.44-1,12,.6s6.12,4.87,8.47,7.65a3.67,3.67,0,0,1-1.29,2.71c-4.55,1.08-6.28-2.77-9.9-4.51S319.73,325.46,318.07,320.59Z"/><path class="cls-14" d="M328.37,333.2c0-1.57-.13-5.55-2.81-4.53a2.63,2.63,0,0,0-1.4,1.63c-.07-.3-.12-.6-.2-.9-.41-1.41-.74-4-2.27-4.57a2,2,0,0,0-1.74.13,6.85,6.85,0,0,0-1.56-4.57,1.91,1.91,0,0,0-2.49-.5,3,3,0,0,0-.8.87,3.25,3.25,0,0,0-.27.22c-.15-1.82-1.17-5-3.55-3.68a4.94,4.94,0,0,0-2,3.48c-.25,1.91-1.45,12.72.29,13.79a2.47,2.47,0,0,0,2.29.28,3.78,3.78,0,0,0,1.28,2.17,3.6,3.6,0,0,0,3.88.35c0,.05,0,.12.06.17s0,.06,0,.09c.05.4,2,2.81,4.45,2.42l.21-.05a2.32,2.32,0,0,0,3.41,1.9C327.65,341,328.42,335.18,328.37,333.2Z"/><path class="cls-19" d="M468.08,331.85c-.36-1.87-1.85-2.35-3.58-2.22,0-.07.1-.13.13-.21.77-1.54,1.48-4.59-.44-5.61s-4.43.21-5.74,1.49c-2,1.92-2,4.71-1.74,7.26a1.32,1.32,0,0,0,1.24,1.23,1.08,1.08,0,0,0,.91.82C461,335,468.88,336,468.08,331.85Zm-8.4-3.76c.45-.93,1.88-2.18,3-1.91,0-.4,0-.35,0,.16a3.06,3.06,0,0,1-.11.9,4.58,4.58,0,0,1-3.37,3.39A5.44,5.44,0,0,1,459.68,328.1Z"/><path class="cls-20" d="M471.14,301.71S459.87,318.06,453.38,318s2.27-21.91,2.27-21.91Z"/><path class="cls-19" d="M364.15,420.39c2.16,5.46,6.21,9.07,11.12,10.17a13.83,13.83,0,0,0,4.27.4c11-.55,29-27.29,39.63-52.91,5.73-13.76,4.21-39.06-.15-37.36-9.91,3.87-33.4,37.17-44.77,50.58C367.16,399.61,362.65,416.67,364.15,420.39Z"/><path class="cls-19" d="M335.58,351.6s14.13,48.77,25.59,68.4a1.75,1.75,0,0,0,.11.24,26.77,26.77,0,0,0,5.08,6.63,15.42,15.42,0,0,0,8.92,3.69c9.45.76,18.41-7.28,19-14.21.19-2.14-2.56-6.66-6.92-12.94-3.27-4.71-7.46-10.42-12-16.86-8.36-11.85-17.87-26.15-24.88-41.12A30.17,30.17,0,0,1,335.58,351.6Z"/><path class="cls-21" d="M361.17,420a1.75,1.75,0,0,0,.11.24,26.77,26.77,0,0,0,5.08,6.63,15.42,15.42,0,0,0,8.92,3.69,13.83,13.83,0,0,0,4.27.4c11-.55,29-27.29,39.63-52.91,5.73-13.76,4.59-30.89,3.58-36.9a12.28,12.28,0,0,0-1.81-.33c-.6-.07-1.26-.12-1.92-.14a34.08,34.08,0,0,0-5.74,7.17c-8.92,14.11-12.11,43-22.09,59.61C385,417.84,374,426.36,361.17,420Z"/><path class="cls-22" d="M420.22,313.84c.37.9.71,1.74,1,2.53a44.09,44.09,0,0,1,1.63,6.35,48.29,48.29,0,0,1,.8,5.87,54.66,54.66,0,0,1-.07,10.15c16.75,8,34.6-3.61,34.6-3.61a54.85,54.85,0,0,1-2-8,123.31,123.31,0,0,1-1.7-13.35,1,1,0,0,1,0-.27,1.22,1.22,0,0,1,0-.19Z"/><path class="cls-23" d="M420.22,313.84c.37.9.71,1.74,1,2.53a26.29,26.29,0,0,1,1.63,6.35,48.29,48.29,0,0,1,.8,5.87c8,3.35,16.89,4.62,23.35,3.12a22,22,0,0,0,9.15-4.57,123.31,123.31,0,0,1-1.7-13.35,1,1,0,0,1,0-.27,1.22,1.22,0,0,1,0-.19Z"/><path class="cls-24" d="M400.15,444.67s-1,11.26-.91,16.27c0,0,59.53,11.59,67.73,22.6l-3.55-18Z"/><path class="cls-14" d="M483.51,396.93s-2.12,54.75.91,75.29c0,0-24.88,2.07-36.49-1.59,0,0,22.31-50.94,24.65-73.08-8.47-33,16.78-46.4,16.78-46.4S479.26,387.42,483.51,396.93Z"/><path class="cls-22" d="M462.44,303.93S458.14,315,452.76,320c-6.55,6.14-31.69,10.91-36.36,3.05-6.61-11.14,1.77-56,3.85-59.57s34.34-14.85,43.78,1.05S462.44,303.93,462.44,303.93Z"/><path class="cls-20" d="M427,247.81c19.65-2.06,49.88-4.71,48.37,15.09,3.28,1.36,4.5,9.12,3.82,12.3-3.48,16.19-6.11,20.77-7.72,24.33-1.83,4-6.59,2.37-8.66,1.61-9.58-3.49-12.26-20.26-5.75-33.84-8.57-1.5-15.77-3.3-25.35-1.82-4.2.65-12.21,3.8-16.21.94C409.55,262.19,413,249.28,427,247.81Z"/><path class="cls-23" d="M428.15,290.44a9.38,9.38,0,0,1-3.17,8.19l.17-1.67a3.08,3.08,0,0,0,1.93,1.09,14.64,14.64,0,0,1,3.35.85A15,15,0,0,1,427,300a4.75,4.75,0,0,1-2.06-.17,3.63,3.63,0,0,1-2-1.39l-.6-.87.77-.8A55.68,55.68,0,0,0,428.15,290.44Z"/><path class="cls-4" d="M445.56,283.4c.14-2.37-6.71-4.44-10.94-2.11-1.76,1-.18,6.65,4.78,7A5.5,5.5,0,0,0,445.56,283.4Z"/><circle class="cls-15" cx="439.59" cy="284.26" r="3.22" transform="translate(-26.77 46.45) rotate(-5.87)"/><circle class="cls-4" cx="437.25" cy="282.36" r="1.09" transform="translate(-26.63 46.29) rotate(-5.88)"/><path class="cls-4" d="M428.39,282.49c.06-2.36-6.28-4.36-10.08-2-1.58,1,0,6.64,4.58,6.9A5.08,5.08,0,0,0,428.39,282.49Z"/><circle class="cls-15" cx="422.86" cy="283.45" r="3.22" transform="translate(-31.54 53.95) rotate(-7.04)"/><circle class="cls-4" cx="420.48" cy="281.6" r="1.09" transform="translate(-31.36 53.69) rotate(-7.04)"/><path class="cls-20" d="M449.31,273.09c-.45-1.44-13-4.62-14.09-3.85-1,.66-1.32,3.32-1.07,6.21a1.18,1.18,0,0,0,1.42,1.07c3.06-.72,9.23.39,11.41.83a1,1,0,0,0,1.15-.56C448.65,275.73,449.52,273.79,449.31,273.09Z"/><path class="cls-20" d="M414,273.19c.41-1.45,12.21-5.11,13.29-4.39.93.62,1.27,3.25,1.06,6.14a1.17,1.17,0,0,1-1.33,1.12c-2.9-.6-8.73.76-10.78,1.28a.94.94,0,0,1-1.09-.51C414.6,275.78,413.75,273.89,414,273.19Z"/><path class="cls-25" d="M479.45,272.76s-9.93,14.82-25.83,13.09c0,0,.68,16.21,14.53,14.79C474.9,299.94,479.45,272.76,479.45,272.76Z"/><path class="cls-12" d="M349.47,341.33a49.15,49.15,0,0,0,3,6.15s-9.18,5-17,7.21a68,68,0,0,0-2.88-8S343.06,346.29,349.47,341.33Z"/><path class="cls-19" d="M485.94,431.9c-2.69-36.42,5.23-73.86,3.71-80.65-1.44-6.45-30.57-20.51-30.57-20.51C437.45,347,422,337.23,422,337.23c-.19.12-.34.29-.53.42,0-.29,0-.41,0-.41s-9.15,4.85-13.75,21.86S380,491,389.57,564.07c0,0,54.85-21.11,111.87,8C503.94,559.94,488.69,469.13,485.94,431.9Z"/><path class="cls-19" d="M477.36,266.09s-20.87,4.69-59.52-14.77l-.89-21s25.5,12.84,74.14,15.47A241.14,241.14,0,0,1,477.36,266.09Z"/><path class="cls-21" d="M491.09,245.77s-41.06.74-74.14-15.47C416.95,230.3,445.18,226.57,491.09,245.77Z"/><path class="cls-12" d="M459.08,330.74A56.42,56.42,0,0,1,430,339.83s3.05,6,3.91,10.24C433.92,350.07,455.51,343.64,459.08,330.74Z"/><path class="cls-12" d="M423.71,336.77s1.32,2.15,6.29,3.06l-4.49,8.23s-3.62-9.59-3.53-10.84S423.71,336.77,423.71,336.77Z"/><path class="cls-21" d="M484.11,356.14s-20.8,26.11-16.32,56c5.56,37.07,31.3,126,31.3,126l-10.63-84.44c-3.35-26.65-3.28-67.22-3.26-72.87S484.11,356.14,484.11,356.14Z"/><path class="cls-14" d="M556.12,341.38c-4.45,3.95-3.55,9.56-3.38,15.17l-3.93,12.82a1.38,1.38,0,0,0,1.34,1.71,75.1,75.1,0,0,0,10.36.25,1.41,1.41,0,0,0,1.35-1.39c.49-4.13,1.55-7.24,4.91-10,1-.82,2.49-1.1,3.53-1.92a11.17,11.17,0,0,0,4.14-6.88c.62-3.37-1.3-10.55-6.84-12.38C564.57,337.75,557.29,340.35,556.12,341.38Z"/><path class="cls-15" d="M551.63,360.17l-1.72,5.94,12.2,2.13,1.28-4.14A23.78,23.78,0,0,1,551.63,360.17Z"/><path class="cls-14" d="M571.72,325.43c-.12-1.28,0-2.78-1.28-3.43a1.28,1.28,0,0,0-1.5.22c-2.51,2.71-2.51,5.53-2.72,9a13.45,13.45,0,0,1-3.74,9.2,74.26,74.26,0,0,1-6.73,6.23c-1.22,1,.58,2.76,1.78,1.73l1.45-1.22a1.29,1.29,0,0,0,1.88,1c5-2.27,10.21-6.35,11.06-12.08A46.57,46.57,0,0,0,571.72,325.43Z"/><path class="cls-14" d="M580.3,328.82c-.12-1.28,0-2.78-1.28-3.43a1.27,1.27,0,0,0-1.5.22c-2.51,2.71-2.51,5.53-2.72,9a13.46,13.46,0,0,1-3.73,9.2,74.32,74.32,0,0,1-6.73,6.23c-1.22,1,.58,2.76,1.79,1.73l1.45-1.22a1.29,1.29,0,0,0,1.87,1c5-2.27,10.21-6.35,11.06-12.08A46.43,46.43,0,0,0,580.3,328.82Z"/><path class="cls-14" d="M584.28,336.45c.16-1.28.63-2.71-.51-3.62a1.28,1.28,0,0,0-1.52-.11c-3,2.11-3.63,4.86-4.59,8.24a13.44,13.44,0,0,1-5.62,8.18,74,74,0,0,1-7.91,4.64c-1.42.75,0,2.82,1.37,2.08l1.67-.88c-.17.85-.16,4.45.79,4.25,5.33-1.16,12.15-6.84,14.21-12.26A46.48,46.48,0,0,0,584.28,336.45Z"/><path class="cls-14" d="M577.22,325.34c-.12-1.28,0-2.78-1.28-3.43a1.28,1.28,0,0,0-1.5.22c-2.51,2.71-2.51,5.53-2.72,9a13.45,13.45,0,0,1-3.73,9.2,74.61,74.61,0,0,1-6.73,6.23c-1.22,1,.57,2.76,1.79,1.73l1.44-1.22a1.29,1.29,0,0,0,1.87,1c5-2.27,10.21-6.35,11.06-12.08A46.73,46.73,0,0,0,577.22,325.34Z"/><path class="cls-15" d="M560.77,342.9s4.11,2.72,2.92,9c0,0,1.33-5,.58-6.71A4.37,4.37,0,0,0,560.77,342.9Z"/><path class="cls-19" d="M489.35,351.15c11.64,3.61,24.36,54,34,56.9,3.54,1.08,22.62-42,22.62-42l18,6.5s-10.81,62.88-38,67.72c-32.32,5.75-53.3-42.67-53.3-42.67S472.64,362.75,489.35,351.15Z"/><path class="cls-12" d="M545.23,361.79a44.78,44.78,0,0,1-2.55,6.87s12.24,6.77,22.26,8.9a50.5,50.5,0,0,1,1.93-9.65S554.37,365.87,545.23,361.79Z"/><path class="cls-14" d="M564.19,329.4a1.26,1.26,0,0,0-1.91-.51c-2.81,2.42-6.92,4.92-8.49,8.43s-1.31,7.71-1.2,11.35a3.71,3.71,0,0,0,2.76,1.15c4.1-2.24,2.82-6.26,4.36-10S566.21,334.14,564.19,329.4Z"/><path class="cls-26" d="M489,278.52c-6.44-.4-11.86,6.21-16.66,9.53-7.27,5-24,9.91-24.17,10.08-25.07,4.67-34-6-34-6-2.23,7-1.42,28.91,2.4,33.11,8,8.8,33.46-3.26,33.46-3.26a.6.6,0,0,0,0-.07c7.76-2.47,15-5.48,20-12.29a35.37,35.37,0,0,0,6.45-19.44,8.66,8.66,0,0,0,8.69.7,1.35,1.35,0,0,0,.28-2.44,23.46,23.46,0,0,0-3.09-1.73c4.26-.81,9.44-2.16,10.14-5C493.15,279.26,490.95,278.64,489,278.52Zm-22,30.69c-4.36,5.24-10.38,7.73-16.66,9.77a111.67,111.67,0,0,0-.64-18.75c8-2.59,15.08-4,22.13-8.63.68-.44,1.35-1,2-1.49C473.55,297,471.53,303.83,467.05,309.2Z"/><path class="cls-22" d="M460.69,295.7c1.91-2.68,9.54-6.42,11.4-3.15,3.27,5.72-1.13,17-10.79,14.54C457.78,306.19,459,298,460.69,295.7Z"/><path class="cls-27" d="M463.86,297.76s5.1-4.37,6.21-2.64c2.8,4.33-2.84,7.77-4.42,8.7,0,0,2-3.55,1-4.78A4.16,4.16,0,0,0,463.86,297.76Z"/><path class="cls-12" d="M443.21,374.07s11.1.84,16.5-1.19c0,0-1,14.7-8.66,15S443.21,374.07,443.21,374.07Z"/><rect class="cls-26" y="673.24" width="898" height="58" rx="12" ry="12"/><path class="cls-28" d="M64.52,698.53c0,12.65-4.35,17.5-9.75,17.5-5.6,0-9.35-6-9.35-17.3,0-11.15,4-17.2,9.9-17.2S64.52,687.78,64.52,698.53Zm-15.1.25c0,7,1.35,13.85,5.6,13.85s5.5-7.35,5.5-14c0-6.3-1.15-13.75-5.55-13.75C50.77,684.93,49.42,691.93,49.42,698.78Z"/><path class="cls-28" d="M84.07,703.53c0,9.35-4.35,12.5-8.05,12.5-4.35,0-7.85-4-7.85-12.45,0-8.85,4-12.55,8.1-12.55S84.07,695.08,84.07,703.53Zm-12.05,0c0,4,.7,9.45,4.2,9.45,3.3,0,4-5.7,4-9.45s-.65-9.4-4.05-9.4S72,699.83,72,703.53Z"/><path class="cls-28" d="M88.32,699c0-3.7-.15-5.85-.2-7.55h3.45l.2,3.1h.1c1.3-2.6,3.2-3.5,5.1-3.5,4.2,0,7,4.5,7,12.45,0,9-3.7,12.55-7.5,12.55a4.57,4.57,0,0,1-4.2-2.8h-.1v12H88.32Zm3.85,7.75a8.14,8.14,0,0,0,.15,2c.75,3.45,2.5,4.1,3.55,4.1,3.2,0,4.2-4.4,4.2-9.3s-1.2-9.2-4.25-9.2c-1.75,0-3.3,2.2-3.55,4.4a11.17,11.17,0,0,0-.1,1.85Z"/><path class="cls-28" d="M107.67,711.63a7.66,7.66,0,0,0,3.9,1.25,3.27,3.27,0,0,0,3.55-3.5c0-1.85-.65-3.1-3.1-4.75-3.15-2-4.85-4.1-4.85-6.9a6.51,6.51,0,0,1,6.65-6.7,8.33,8.33,0,0,1,4.35,1.25l-1.05,2.9a5.68,5.68,0,0,0-3.2-1,3,3,0,0,0-3.15,3c0,1.65.6,2.55,3,4.2,2.8,1.8,5,4,5,7.35,0,4.85-3.3,7.2-7.25,7.2a8.28,8.28,0,0,1-4.8-1.4Z"/><path class="cls-28" d="M121.87,713.13a2.69,2.69,0,0,1,2.55-2.9c1.55,0,2.55,1.15,2.55,2.9s-.95,2.9-2.55,2.9A2.63,2.63,0,0,1,121.87,713.13Z"/><path class="cls-28" d="M131.57,713.13a2.69,2.69,0,0,1,2.55-2.9c1.55,0,2.55,1.15,2.55,2.9s-.95,2.9-2.55,2.9A2.63,2.63,0,0,1,131.57,713.13Z"/><path class="cls-28" d="M149.67,681.93h3.85v30.45H163v3.25H149.67Z"/><path class="cls-28" d="M180.62,703.53c0,9.35-4.35,12.5-8.05,12.5-4.35,0-7.85-4-7.85-12.45,0-8.85,4-12.55,8.1-12.55C177.12,691,180.62,695.08,180.62,703.53Zm-12.05,0c0,4,.7,9.45,4.2,9.45,3.3,0,4-5.7,4-9.45s-.65-9.4-4-9.4S168.57,699.83,168.57,703.53Z"/><path class="cls-28" d="M192.12,711.63a7.67,7.67,0,0,0,3.9,1.25,3.27,3.27,0,0,0,3.55-3.5c0-1.85-.65-3.1-3.1-4.75-3.15-2-4.85-4.1-4.85-6.9a6.51,6.51,0,0,1,6.65-6.7,8.33,8.33,0,0,1,4.35,1.25l-1,2.9a5.69,5.69,0,0,0-3.2-1,3,3,0,0,0-3.15,3c0,1.65.6,2.55,3,4.2,2.8,1.8,5,4,5,7.35,0,4.85-3.3,7.2-7.25,7.2a8.28,8.28,0,0,1-4.8-1.4Z"/><path class="cls-28" d="M209.92,703.88c0,7.4,3,9,5.75,9a8.14,8.14,0,0,0,4-1l.6,2.85a11.67,11.67,0,0,1-5.3,1.15c-5.8,0-8.8-4.75-8.8-12.15,0-7.85,3.3-12.75,8.15-12.75s6.9,5.2,6.9,10.7c0,.9,0,1.55,0,2.15Zm7.6-2.85c.1-4.85-1.75-7-3.6-7-2.5,0-3.8,3.7-4,7Z"/><path class="cls-28" d="M225.37,697.68c0-2.85-.15-4.3-.2-6.25h3.35l.2,2.9h.1a6.14,6.14,0,0,1,5.55-3.3c3.35,0,5.85,2.5,5.85,8.35v16.25h-3.85V700c0-2.85-.55-5.75-3.35-5.75-1.6,0-3.15,1.35-3.65,4a13.65,13.65,0,0,0-.15,2.15v15.25h-3.85Z"/><path class="cls-28" d="M250,685v6.4h4.65v3H250v14.35c0,3.15,1.15,4,2.55,4a7.11,7.11,0,0,0,1.55-.15l.15,3a8.43,8.43,0,0,1-2.85.4,4.9,4.9,0,0,1-3.8-1.45c-1-1.1-1.45-2.75-1.45-6.1v-14h-3v-3h3v-5.3Z"/><path class="cls-28" d="M262.22,685.18a2.25,2.25,0,0,1-2.35,2.5,2.27,2.27,0,0,1-2.2-2.5,2.31,2.31,0,0,1,2.25-2.5A2.26,2.26,0,0,1,262.22,685.18Zm-4.15,30.45v-24.2h3.85v24.2Z"/><path class="cls-28" d="M267.27,697.68c0-2.85-.15-4.3-.2-6.25h3.35l.2,3h.1a6.07,6.07,0,0,1,5.45-3.4,5,5,0,0,1,5.05,3.7h.1a7.7,7.7,0,0,1,2.4-2.75,5.84,5.84,0,0,1,3.35-1c3.25,0,5.8,2.4,5.8,8.55v16.05h-3.8V700.48c0-3.15-.45-6.2-3.4-6.2-1.6,0-3,1.35-3.55,3.6a14.79,14.79,0,0,0-.15,2.2v15.55h-3.8V699.78c0-2.7-.5-5.5-3.35-5.5-1.55,0-3.15,1.35-3.6,3.9a13.89,13.89,0,0,0-.15,2.1v15.35h-3.8Z"/><path class="cls-28" d="M313.12,703.53c0,9.35-4.35,12.5-8,12.5-4.35,0-7.85-4-7.85-12.45,0-8.85,4-12.55,8.1-12.55S313.12,695.08,313.12,703.53Zm-12.05,0c0,4,.7,9.45,4.2,9.45,3.3,0,4-5.7,4-9.45s-.65-9.4-4-9.4S301.07,699.83,301.07,703.53Z"/><path class="cls-28" d="M316.77,711.63a7.66,7.66,0,0,0,3.9,1.25,3.27,3.27,0,0,0,3.55-3.5c0-1.85-.65-3.1-3.1-4.75-3.15-2-4.85-4.1-4.85-6.9a6.51,6.51,0,0,1,6.65-6.7,8.33,8.33,0,0,1,4.35,1.25l-1,2.9a5.69,5.69,0,0,0-3.2-1,3,3,0,0,0-3.15,3c0,1.65.6,2.55,3,4.2,2.8,1.8,5,4,5,7.35,0,4.85-3.3,7.2-7.25,7.2a8.28,8.28,0,0,1-4.8-1.4Z"/><path class="cls-28" d="M329.36,721.93a72.11,72.11,0,0,0,2.9-11.65l4.35-.5a59.92,59.92,0,0,1-4.6,11.8Z"/><path class="cls-28" d="M348.72,699c0-3.7-.15-5.85-.2-7.55H352l.2,3.1h.1c1.3-2.6,3.2-3.5,5.1-3.5,4.2,0,7,4.5,7,12.45,0,9-3.7,12.55-7.5,12.55a4.57,4.57,0,0,1-4.2-2.8h-.1v12h-3.85Zm3.85,7.75a8.12,8.12,0,0,0,.15,2c.75,3.45,2.5,4.1,3.55,4.1,3.2,0,4.2-4.4,4.2-9.3s-1.2-9.2-4.25-9.2c-1.75,0-3.3,2.2-3.55,4.4a11.13,11.13,0,0,0-.1,1.85Z"/><path class="cls-28" d="M371.41,703.88c0,7.4,3,9,5.75,9a8.14,8.14,0,0,0,4-1l.6,2.85a11.67,11.67,0,0,1-5.3,1.15c-5.8,0-8.8-4.75-8.8-12.15,0-7.85,3.3-12.75,8.15-12.75s6.9,5.2,6.9,10.7c0,.9,0,1.55,0,2.15ZM379,701c.1-4.85-1.75-7-3.6-7-2.5,0-3.8,3.7-4,7Z"/><path class="cls-28" d="M386.81,697.68c0-2-.15-4.45-.2-6.25h3.45l.2,3.8h.1c.8-2.3,2.85-4.2,5.1-4.2.3,0,.55,0,.8,0v4a4.06,4.06,0,0,0-.8,0c-2.45,0-4.25,2.25-4.65,5.05a14.76,14.76,0,0,0-.15,2.2v13.4h-3.85Z"/><path class="cls-28" d="M413.41,703.53c0,9.35-4.35,12.5-8,12.5-4.35,0-7.85-4-7.85-12.45,0-8.85,4-12.55,8.1-12.55S413.41,695.08,413.41,703.53Zm-12.05,0c0,4,.7,9.45,4.2,9.45,3.3,0,4-5.7,4-9.45s-.65-9.4-4-9.4S401.36,699.83,401.36,703.53Z"/><path class="cls-28" d="M425.56,681h3.85v34.6h-3.85Z"/><path class="cls-28" d="M444.66,715.63l-.25-2.55h-.15a5.43,5.43,0,0,1-4.8,3c-3.25,0-5.75-2.75-5.75-6.9,0-6.05,4.85-8.75,10.3-8.8v-.75c0-3.25-.8-5.5-3.85-5.5a7.28,7.28,0,0,0-4,1.25l-.85-2.7A10.41,10.41,0,0,1,441,691c4.85,0,7,3.2,7,8.65v10.45a38.36,38.36,0,0,0,.25,5.5Zm-.55-12.5c-2,0-6.65.35-6.65,5.6,0,3.15,1.6,4.3,3,4.3,1.7,0,3.15-1.25,3.6-3.65a6.34,6.34,0,0,0,.1-1.35Z"/><path class="cls-28" d="M461.11,699c0-3.7-.15-5.85-.2-7.55h3.45l.2,3.1h.1c1.3-2.6,3.2-3.5,5.1-3.5,4.2,0,7,4.5,7,12.45,0,9-3.7,12.55-7.5,12.55a4.57,4.57,0,0,1-4.2-2.8H465v12h-3.85Zm3.85,7.75a8.12,8.12,0,0,0,.15,2c.75,3.45,2.5,4.1,3.55,4.1,3.2,0,4.2-4.4,4.2-9.3s-1.2-9.2-4.25-9.2c-1.75,0-3.3,2.2-3.55,4.4a11.12,11.12,0,0,0-.1,1.85Z"/><path class="cls-28" d="M490.66,715.63l-.25-2.55h-.15a5.43,5.43,0,0,1-4.8,3c-3.25,0-5.75-2.75-5.75-6.9,0-6.05,4.85-8.75,10.3-8.8v-.75c0-3.25-.8-5.5-3.85-5.5a7.28,7.28,0,0,0-4,1.25l-.85-2.7A10.41,10.41,0,0,1,487,691c4.85,0,7,3.2,7,8.65v10.45a38.36,38.36,0,0,0,.25,5.5Zm-.55-12.5c-2,0-6.65.35-6.65,5.6,0,3.15,1.6,4.3,2.95,4.3,1.7,0,3.15-1.25,3.6-3.65a6.34,6.34,0,0,0,.1-1.35Z"/><path class="cls-28" d="M514.11,691.43c0,1.7-.2,3.85-.2,7.55v13.55c0,6.35-.8,8.75-2.4,10.5a8.42,8.42,0,0,1-6.45,2.6,11.53,11.53,0,0,1-5.3-1.2l.9-3a9.92,9.92,0,0,0,4.5,1c3,0,5-1.9,5-7.4v-2.45H510a4.92,4.92,0,0,1-4.65,3c-4.3,0-7.1-4.85-7.1-12,0-8.9,4-12.6,7.6-12.6a4.81,4.81,0,0,1,4.5,3.15h.1l.2-2.75Zm-4,8.35a6.45,6.45,0,0,0-.2-1.75c-.45-1.65-1.3-3.7-3.5-3.7-2.8,0-4.3,3.75-4.3,9.1,0,6.2,2,9,4.3,9,1.15,0,2.65-.55,3.45-3.45a8.49,8.49,0,0,0,.25-2.2Z"/><path class="cls-28" d="M523.41,685.18a2.25,2.25,0,0,1-2.35,2.5,2.27,2.27,0,0,1-2.2-2.5,2.31,2.31,0,0,1,2.25-2.5A2.26,2.26,0,0,1,523.41,685.18Zm-4.15,30.45v-24.2h3.85v24.2Z"/><path class="cls-28" d="M528.46,697.68c0-2.85-.15-4.3-.2-6.25h3.35l.2,2.9h.1a6.14,6.14,0,0,1,5.55-3.3c3.35,0,5.85,2.5,5.85,8.35v16.25h-3.85V700c0-2.85-.55-5.75-3.35-5.75-1.6,0-3.15,1.35-3.65,4a13.65,13.65,0,0,0-.15,2.15v15.25h-3.85Z"/><path class="cls-28" d="M558.26,715.63l-.25-2.55h-.15a5.43,5.43,0,0,1-4.8,3c-3.25,0-5.75-2.75-5.75-6.9,0-6.05,4.85-8.75,10.3-8.8v-.75c0-3.25-.8-5.5-3.85-5.5a7.28,7.28,0,0,0-4,1.25l-.85-2.7a10.41,10.41,0,0,1,5.65-1.6c4.85,0,7,3.2,7,8.65v10.45a38.36,38.36,0,0,0,.25,5.5Zm-.55-12.5c-2,0-6.65.35-6.65,5.6,0,3.15,1.6,4.3,3,4.3,1.7,0,3.15-1.25,3.6-3.65a6.35,6.35,0,0,0,.1-1.35Z"/><path class="cls-28" d="M585.51,713.13h-.15a5.07,5.07,0,0,1-4.65,2.9c-3.9,0-7-4.25-7-12.2,0-8.55,3.6-12.8,7.6-12.8a4.82,4.82,0,0,1,4.5,3.2l.1,0,.2-2.85h3.45c-.1,1.7-.2,3.85-.2,7.55v26.25h-3.85Zm0-12.65a8.29,8.29,0,0,0-.1-1.6c-.3-2.55-1.8-4.55-3.5-4.55-3.15,0-4.35,4.2-4.35,9.3s1.3,9.2,4.25,9.2c1.2,0,2.7-.7,3.5-4.05a7,7,0,0,0,.2-2Z"/><path class="cls-28" d="M609.21,709c0,2.7.15,4.8.2,6.6h-3.35l-.25-2.55h-.1a6.37,6.37,0,0,1-5.2,3c-4.25,0-5.9-3.3-5.9-9.3v-15.3h3.85v14.75c0,3.8.6,6.6,3.25,6.6,2.25,0,3.25-2.1,3.45-3.2a10,10,0,0,0,.2-2.2v-16h3.85Z"/><path class="cls-28" d="M617.31,703.88c0,7.4,3,9,5.75,9a8.14,8.14,0,0,0,4-1l.6,2.85a11.67,11.67,0,0,1-5.3,1.15c-5.8,0-8.8-4.75-8.8-12.15,0-7.85,3.3-12.75,8.15-12.75s6.9,5.2,6.9,10.7c0,.9,0,1.55,0,2.15Zm7.6-2.85c.1-4.85-1.75-7-3.6-7-2.5,0-3.8,3.7-4,7Z"/><path class="cls-28" d="M640.36,715.63c0-1.4.2-4.15.2-5.8V681h3.85v13.25h.1a5.41,5.41,0,0,1,5.1-3.25c3.75,0,6.6,4.35,6.6,12.25,0,8.75-3.6,12.75-7.35,12.75-2.55,0-3.85-1.5-4.8-3.55h-.15l-.25,3.15Zm4-8.55a4.61,4.61,0,0,0,.15,1.5c.9,3.6,2.55,4.25,3.6,4.25,3.1,0,4.2-4.2,4.2-9.35,0-4.85-1.15-9.15-4.25-9.15-1.8,0-3.3,2.25-3.6,4.3a9.65,9.65,0,0,0-.1,1.7Z"/><path class="cls-28" d="M675.06,709c0,2.7.15,4.8.2,6.6h-3.35l-.25-2.55h-.1a6.37,6.37,0,0,1-5.2,3c-4.25,0-5.9-3.3-5.9-9.3v-15.3h3.85v14.75c0,3.8.6,6.6,3.25,6.6,2.25,0,3.25-2.1,3.45-3.2a10,10,0,0,0,.2-2.2v-16h3.85Z"/><path class="cls-28" d="M679.81,711.63a7.67,7.67,0,0,0,3.9,1.25,3.27,3.27,0,0,0,3.55-3.5c0-1.85-.65-3.1-3.1-4.75-3.15-2-4.85-4.1-4.85-6.9A6.51,6.51,0,0,1,686,691a8.33,8.33,0,0,1,4.35,1.25l-1,2.9a5.69,5.69,0,0,0-3.2-1,3,3,0,0,0-3.15,3c0,1.65.6,2.55,3,4.2,2.8,1.8,5,4,5,7.35,0,4.85-3.3,7.2-7.25,7.2a8.28,8.28,0,0,1-4.8-1.4Z"/><path class="cls-28" d="M706.71,715a8.3,8.3,0,0,1-4,.9c-5.3,0-8.85-4.25-8.85-12.25,0-7,3.5-12.6,9.55-12.6a7.79,7.79,0,0,1,3.4.75l-.75,3.15a6.28,6.28,0,0,0-2.75-.65c-3.85,0-5.6,4.6-5.6,9.35,0,5.65,2.15,9.05,5.7,9.05a6.59,6.59,0,0,0,2.8-.65Z"/><path class="cls-28" d="M719.71,715.63l-.25-2.55h-.15a5.43,5.43,0,0,1-4.8,3c-3.25,0-5.75-2.75-5.75-6.9,0-6.05,4.85-8.75,10.3-8.8v-.75c0-3.25-.8-5.5-3.85-5.5a7.28,7.28,0,0,0-4,1.25l-.85-2.7A10.41,10.41,0,0,1,716,691c4.85,0,7,3.2,7,8.65v10.45a38.36,38.36,0,0,0,.25,5.5Zm-.55-12.5c-2,0-6.65.35-6.65,5.6,0,3.15,1.6,4.3,2.95,4.3,1.7,0,3.15-1.25,3.6-3.65a6.34,6.34,0,0,0,.1-1.35Z"/><path class="cls-28" d="M736.21,697.68c0-2.85-.15-4.3-.2-6.25h3.35l.2,2.9h.1a6.14,6.14,0,0,1,5.55-3.3c3.35,0,5.85,2.5,5.85,8.35v16.25h-3.85V700c0-2.85-.55-5.75-3.35-5.75-1.6,0-3.15,1.35-3.65,4a13.65,13.65,0,0,0-.15,2.15v15.25h-3.85Z"/><path class="cls-28" d="M771.31,703.53c0,9.35-4.35,12.5-8,12.5-4.35,0-7.85-4-7.85-12.45,0-8.85,4-12.55,8.1-12.55S771.31,695.08,771.31,703.53Zm-12.05,0c0,4,.7,9.45,4.2,9.45,3.3,0,4-5.7,4-9.45s-.65-9.4-4-9.4S759.26,699.83,759.26,703.53Z"/><path class="cls-28" d="M786.16,703.88c0,7.4,3,9,5.75,9a8.14,8.14,0,0,0,4-1l.6,2.85a11.67,11.67,0,0,1-5.3,1.15c-5.8,0-8.8-4.75-8.8-12.15,0-7.85,3.3-12.75,8.15-12.75s6.9,5.2,6.9,10.7c0,.9,0,1.55,0,2.15Zm7.6-2.85c.1-4.85-1.75-7-3.6-7-2.5,0-3.8,3.7-4,7Z"/><path class="cls-28" d="M803.41,691.43l2.25,5.2c.6,1.4,1,2.8,1.6,4.25h.1c.55-1.55,1.1-3,1.6-4.25l2.2-5.2h4l-5.75,12,5.7,12.25h-4.2l-2.3-5.45c-.55-1.3-1-2.55-1.6-4.15h-.1c-.5,1.45-1.05,2.75-1.6,4.15L803,715.63h-3.9l5.75-12.15-5.6-12.05Z"/><path class="cls-28" d="M822.41,685.18a2.25,2.25,0,0,1-2.35,2.5,2.27,2.27,0,0,1-2.2-2.5,2.31,2.31,0,0,1,2.25-2.5A2.26,2.26,0,0,1,822.41,685.18Zm-4.15,30.45v-24.2h3.85v24.2Z"/><path class="cls-28" d="M826.81,711.63a7.66,7.66,0,0,0,3.9,1.25,3.27,3.27,0,0,0,3.55-3.5c0-1.85-.65-3.1-3.1-4.75-3.15-2-4.85-4.1-4.85-6.9A6.51,6.51,0,0,1,833,691a8.33,8.33,0,0,1,4.35,1.25l-1,2.9a5.69,5.69,0,0,0-3.2-1,3,3,0,0,0-3.15,3c0,1.65.6,2.55,3,4.2,2.8,1.8,5,4,5,7.35,0,4.85-3.3,7.2-7.25,7.2a8.28,8.28,0,0,1-4.8-1.4Z"/><path class="cls-28" d="M846.6,685v6.4h4.65v3H846.6v14.35c0,3.15,1.15,4,2.55,4a7.11,7.11,0,0,0,1.55-.15l.15,3a8.43,8.43,0,0,1-2.85.4,4.9,4.9,0,0,1-3.8-1.45c-1-1.1-1.45-2.75-1.45-6.1v-14h-3v-3h3v-5.3Z"/><path class="cls-28" d="M857,703.88c0,7.4,3,9,5.75,9a8.14,8.14,0,0,0,4-1l.6,2.85a11.67,11.67,0,0,1-5.3,1.15c-5.8,0-8.8-4.75-8.8-12.15,0-7.85,3.3-12.75,8.15-12.75s6.9,5.2,6.9,10.7c0,.9,0,1.55,0,2.15Zm7.6-2.85c.1-4.85-1.75-7-3.6-7-2.5,0-3.8,3.7-4,7Z"/><path class="cls-28" d="M871.65,713.13a2.69,2.69,0,0,1,2.55-2.9c1.55,0,2.55,1.15,2.55,2.9s-1,2.9-2.55,2.9A2.63,2.63,0,0,1,871.65,713.13Z"/></g></g></g></svg>