<svg xmlns="http://www.w3.org/2000/svg" xmlns:xlink="http://www.w3.org/1999/xlink" viewBox="0 0 1042.38 792.03"><defs><clipPath id="clip-path" transform="translate(-85 -182.91)"><path d="M887.46,554.31S857.87,697,856.17,747.89c-.72,21.66,11.55,91.07,3.25,129.07,1,7,22.1,8.76,23.06,4.86,8-32.37,26.95-77,28.4-105.36.32-6.33-6.28-17.39-10.2-26.95,8.62-24.13,44.13-114,44.13-114L913.53,526.07Z" style="fill:none"/></clipPath></defs><title>4798 [Convertido]</title><g style="isolation:isolate"><g id="peoples"><path d="M143.58,863.57h47.57c1.36,0,1.36-4.08,0-4.08H143.58c-1.36,0-1.36,4.08,0,4.08Z" transform="translate(-85 -182.91)" style="fill:#b4dcfa"/><path d="M452.69,933h163c4.66,0,4.66-4.08,0-4.08h-163c-4.66,0-4.66,4.08,0,4.08Z" transform="translate(-85 -182.91)" style="fill:#b4dcfa"/><path d="M444.74,895.46h163c4.66,0,4.66-4.08,0-4.08h-163c-4.66,0-4.66,4.08,0,4.08Z" transform="translate(-85 -182.91)" style="fill:#b4dcfa"/><path d="M245.54,379.37C192.11,406.84,162.69,465,140.07,520.63c-23.48,57.77-43.75,119.11-38.48,181.25s41.83,125.3,101.09,144.73c88.68,29.07,176.72-45.94,269.5-56,95.11-10.33,182.35,48,262.44,100.28s175,103.21,267,76.92c97.82-28,154.32-152.38,111-244.43C1070.56,634,962.26,593.83,910.41,509.78c-56.22-91.13-109.74-355.35-263-212.61-38.75,36.1-60.48,77.89-117.24,88.27C434.63,402.91,340.42,330.6,245.54,379.37Z" transform="translate(-85 -182.91)" style="fill:#e2f3fe;opacity:0.78"/><path d="M393.42,335.65C377.24,352,361.9,369.23,347,386.95c26.57-66.62-14.62-101.16-14.62-101.16-30.3,76.17-9.44,108.32.36,118.31-9,11.31-17.63,22.92-26.09,34.69,9.16-73.37-41-96.05-41-96.05-8.1,75.89,16.28,103.11,29.47,112.15-13.45,19.62-26,39.85-37.92,60.49,2.88-78.55-52.32-95.68-52.32-95.68,1.2,80.41,31.61,102.79,44.93,108.78a893.92,893.92,0,0,0-66.9,152.32c-2.18,6.61,8.2,9.69,10.39,3.07a873.7,873.7,0,0,1,38-95.52C324.56,595.71,338,550.88,338,550.88c-46.27-11.73-75.74-1.52-93.51,11.07C255,541.27,266,520.83,278.12,501c3.37,3.92,35.26,36.93,121.6-7.55,0,0-46-45.42-121,6.56a880.3,880.3,0,0,1,64.15-91.13c95.64,31.22,119.28-12.11,119.28-12.11C406.22,369.1,370.42,384,353,396.62c14.51-17.44,29.51-34.35,45.27-50.38,91.26-27.4,87.2-74.67,87.2-74.67C419.67,280.09,399.56,316.06,393.42,335.65Z" transform="translate(-85 -182.91)" style="fill:#c7dfed"/><g id="table"><path d="M902.93,642.75,897,887a6.36,6.36,0,0,1-12.72,0l-5.92-244.22a12.28,12.28,0,0,1,24.56-.59C902.93,642.34,902.93,642.56,902.93,642.75Z" transform="translate(-85 -182.91)" style="fill:#c7dfed"/><path d="M794.83,642.75,788.92,887a6.36,6.36,0,0,1-12.72,0l-5.92-244.22a12.28,12.28,0,0,1,24.56-.59C794.84,642.34,794.84,642.56,794.83,642.75Z" transform="translate(-85 -182.91)" style="fill:#c7dfed"/><path d="M293.76,640.08a5.88,5.88,0,0,1-5.88-5.88v-.92a5.88,5.88,0,0,1,5.88-5.88H804v12.67Z" transform="translate(-85 -182.91)" style="fill:#f7f6f1"/><path d="M801.3,630.08v7.33H293.76a3.21,3.21,0,0,1-3.21-3.21v-.91a3.21,3.21,0,0,1,3.21-3.21Zm5.34-5.34H293.76a8.55,8.55,0,0,0-8.55,8.55v.91a8.55,8.55,0,0,0,8.55,8.55H806.64v-18Z" transform="translate(-85 -182.91)" style="fill:#97c4de"/><rect x="671.54" y="441.83" width="161.39" height="18.01" rx="4.93" ry="4.93" style="fill:#97c4de"/><rect x="422.42" y="427.84" width="229.01" height="11.14" rx="4.62" ry="4.62" style="fill:#97c4de"/><polygon points="501.87 422.57 547.49 322.57 694.73 322.57 649.12 422.57 501.87 422.57" style="fill:#c7dfed"/><path d="M777,507.24l-44,96.49H589.59l44-96.49Zm5.44-3.5H631.36L584.15,607.23H735.24l47.22-103.49Z" transform="translate(-85 -182.91)" style="fill:#97c4de"/><rect x="216.51" y="461.38" width="138.02" height="242.51" style="fill:#f7f6f1"/><path d="M438,645.83V885.26H303.05V645.83Zm3.08-3.08H300V888.34h141.1V642.75Z" transform="translate(-85 -182.91)" style="fill:#97c4de"/><rect x="441.07" y="642.75" width="141.1" height="245.59" transform="translate(938.25 1348.18) rotate(180)" style="fill:#c7dfed"/><rect x="223.18" y="468.05" width="123.99" height="39.15" style="fill:#f7f6f1"/><path d="M430.53,652.6v35.86H309.83V652.6Zm3.28-3.28H306.55v42.43H433.81V649.32Z" transform="translate(-85 -182.91)" style="fill:#97c4de"/><rect x="223.18" y="515.63" width="123.99" height="39.15" style="fill:#f7f6f1"/><path d="M430.53,700.18V736H309.83V700.18Zm3.28-3.28H306.55v42.43H433.81V696.9Z" transform="translate(-85 -182.91)" style="fill:#97c4de"/><rect x="223.18" y="563.21" width="123.99" height="39.14" style="fill:#f7f6f1"/><path d="M430.53,747.76v35.86H309.83V747.76Zm3.28-3.28H306.55V786.9H433.81V744.48Z" transform="translate(-85 -182.91)" style="fill:#97c4de"/><rect x="223.18" y="610.79" width="123.99" height="39.14" style="fill:#f7f6f1"/><path d="M430.53,795.34V831.2H309.83V795.34Zm3.28-3.28H306.55v42.43H433.81V792.06Z" transform="translate(-85 -182.91)" style="fill:#97c4de"/><rect x="223.18" y="658.37" width="123.99" height="39.15" style="fill:#f7f6f1"/><path d="M430.53,842.92v35.86H309.83V842.92Zm3.28-3.28H306.55v42.43H433.81V839.64Z" transform="translate(-85 -182.91)" style="fill:#97c4de"/><path d="M379.05,673.3c0,4.9-17.75,4.9-17.75,0a8.87,8.87,0,1,1,17.75,0Z" transform="translate(-85 -182.91)" style="fill:#97c4de"/><path d="M379.05,720.33c0,4.9-17.75,4.9-17.75,0a8.87,8.87,0,0,1,17.75,0Z" transform="translate(-85 -182.91)" style="fill:#97c4de"/><path d="M379.05,768.75c0,4.9-17.75,4.9-17.75,0a8.87,8.87,0,0,1,17.75,0Z" transform="translate(-85 -182.91)" style="fill:#97c4de"/><path d="M379.05,817.16c0,4.9-17.75,4.9-17.75,0a8.87,8.87,0,1,1,17.75,0Z" transform="translate(-85 -182.91)" style="fill:#97c4de;mix-blend-mode:darken"/><path d="M379.05,862.81c0,4.9-17.75,4.9-17.75,0a8.87,8.87,0,0,1,17.75,0Z" transform="translate(-85 -182.91)" style="fill:#97c4de;mix-blend-mode:darken"/></g><g style="mix-blend-mode:multiply"><path d="M743.33,933.2h359.61c6.65,0,6.66-5.72,0-5.72H743.33c-6.65,0-6.66,5.72,0,5.72Z" transform="translate(-85 -182.91)" style="fill:#d7eefd"/></g><g id="doctor"><g id="doctor-2" data-name="doctor"><path d="M879.38,918.62c2.77-.45,2.38,6.28,1.37,6.82-6.75,3.58-23.35,4-36.42,5-15.26,1.09-31,.27-32.27-2-1.16-2-2.74-6.11,2.72-8.74,2.51-1.21,37.13-3.35,37.92-3.14S879.38,918.62,879.38,918.62Z" transform="translate(-85 -182.91)" style="fill:#072b45"/><path d="M862.37,870.77c-.56,10.07-6.2,29.08-8,32.82-.7,1.47-8.17,10-4.08,14.31,6.28,6.68,22,7.58,26.08-8.17-4.13-16.75,7.17-31.59,7.17-36.57S862.67,865.44,862.37,870.77Z" transform="translate(-85 -182.91)" style="fill:#f7b690"/><path d="M876.32,901.92c-.4,9.45,5.1,11.3,3,18.76-1.1,3.86-56.52,10.11-64.47,4.95-4.23-2.75-.47-5.87,4.31-7.88,5.56-2.33,19-7.9,24.22-10.2,7-3.1,8.59-9,10-8,3.37,2.44-2.55,13.69.17,15.14,5.53,2.95,19.46-10.74,21.57-13.18C875.66,900.85,876.35,901.18,876.32,901.92Z" transform="translate(-85 -182.91)" style="fill:#242062"/><path d="M1015,875.5c4.79,12.47,3.11,29.46,1.68,33-.71,1.77-7.06,21.75,10.65,16.25,11.52-3.57,13.81-7.51,12.36-9.93-7.1-11.77-3.16-33.58-3.16-38.33S1013.22,870.9,1015,875.5Z" transform="translate(-85 -182.91)" style="fill:#f7b690"/><path d="M1042.5,923.41c2.25-.5,1.43,7.35.81,8.16s-12.69,3.51-25.64,3.18c-11.72-.3-19.16-.93-20.11-3.1-.48-1.11.26-6.2,2.54-7.65,2-1.28,21.36-2.48,22-2.31S1042.5,923.41,1042.5,923.41Z" transform="translate(-85 -182.91)" style="fill:#072b45"/><path d="M1019.8,902.64c-2.57.09-6.28,5.8-8.34,11.8-2.4,2.53-6.77,3.45-9,6.83-1.59,2.35-3.59,6.49-2.73,7.61,3,3.9,41.06,3.24,42.43-.27,1.78-4.57-1.94-8.75-2.48-13.26-.49-4.13,0-6.19-1.44-8.37-.45-.67-1.58-.27-1.54,1,.09,2.85.52,7.88-3.59,8.46C1029.5,906,1024,902.49,1019.8,902.64Z" transform="translate(-85 -182.91)" style="fill:#242062"/><g style="clip-path:url(#clip-path)"><rect x="770.44" y="343.16" width="89.38" height="359.66" style="fill:#242062"/></g><path d="M997.55,560.15c9.6,46.5,14.87,131.76,14.88,173.34,13.47,10.24,22.23,22.91,23.72,28.87C1043.54,792,1038,879,1038,882.43c-2.48,4.63-23.29,9.29-23.08,1.44C987.91,770,978.33,769.8,970.6,749.38c-31.5-83.21-71.27-177.08-71.27-177.08Z" transform="translate(-85 -182.91)" style="fill:#242062"/><path d="M927.94,360.56c14.38,2.22,74.47,5.78,92.21,32.51,7.48,11.26-16.4,172.35-20.87,177.29-7.17,7.91-101.89,18.55-116.66,0-4.19-5.26-47.08-163-18.29-187.28C878.89,370.83,927.94,360.56,927.94,360.56Z" transform="translate(-85 -182.91)" style="fill:#97c4de"/><path d="M945.4,296.23c2.41,21.74,8.25,62.68,9.88,66.57s-14.2,12.57-25.63,12.66c-15.76.11-25-5.84-25-9.41s5.19-39.64,5.19-39.64l12.34-27.31Z" transform="translate(-85 -182.91)" style="fill:#f3a088"/><path d="M891.35,307c-11.41-21.69,1.5-20.44,2.42-25.73,4.94-28.61,47.72-22.83,54.49-13.38,4.54,6.35,12.11,16.4,11,24.08-.85,5.66-2.26,25.41-9.24,29.69-15.76,9.67-34.15,11.81-44.15,8.1C902.61,328.53,895.06,314,891.35,307Z" transform="translate(-85 -182.91)" style="fill:#232b59"/><path d="M899.81,283.1c-4.67,5.51-6.45,19.94-5,29.6.73,5,3,10,4.36,14.63,3.66,12.2,8.8,21.71,18,20.79,26.71-2.68,28.75-37.35,29.41-35.5,2.78,7.25,9.4-4.94,9.11-10.74-.2-4-6.48-5.52-7.87,3-7.79,5.1-5.42-18.49-14-20.84-3.93-1.08-9.89,3.88-20,3.88C902.76,287.94,901.39,281.23,899.81,283.1Z" transform="translate(-85 -182.91)" style="fill:#f7b690"/><path d="M957.13,284c-13.59,12.48-41.69,17.06-55.5,12.68-2.45-.78-4.32-13.15-1.82-12.56s10.69,5.52,33.09,1.8c18.34-3,22.67-9,23.91-8.49S959.63,281.71,957.13,284Z" transform="translate(-85 -182.91)" style="fill:#2e6c9e"/><path d="M888.19,287.2c-.71,7.76,1.65,17.75,5.6,24.58,3,5.26,7,8.64,11.25,7.68l.24-.06a7.59,7.59,0,0,0,3.71-2.55c4.31-5,6.68-16.05,5-25.46-1.52-8.59-6.41-15.82-16.29-15.83a8.36,8.36,0,0,0-4.55,1.22,9.15,9.15,0,0,0-3.3,3.86q-.19.38-.35.79A20.23,20.23,0,0,0,888.19,287.2Zm10.72,4.64c.29-.51.66-.79,1.09-.73,3,.45,3.66,6.65,2.68,9.46-.31.91-.8,1.46-1.44,1.37C898,301.45,897.59,294.2,898.92,291.85Z" transform="translate(-85 -182.91)" style="fill:#5ea4cc"/><path d="M889.5,281.43a31.87,31.87,0,0,1,9.41,10.41c.29-.51.66-.79,1.09-.73,3,.45,3.66,6.65,2.68,9.46A55.21,55.21,0,0,1,905,319.46l.24-.06c6.51-1.73,10.82-16.17,8.72-28-5.68-7.64-14-12-20.85-14.61A9.58,9.58,0,0,0,889.5,281.43Z" transform="translate(-85 -182.91)" style="fill:#dedcd5;mix-blend-mode:soft-light"/><path d="M888.19,287.2c8,10.12,8.23,18.35,5.6,24.58,3,5.26,7,8.64,11.25,7.68l.24-.06a7.59,7.59,0,0,0,3.71-2.55c1.94-16.93-8.3-30-19.12-36.21q-.19.38-.35.79A20.23,20.23,0,0,0,888.19,287.2Zm10.72,4.64c.29-.51.66-.79,1.09-.73,3,.45,3.66,6.65,2.68,9.46-.31.91-.8,1.46-1.44,1.37C898,301.45,897.59,294.2,898.92,291.85Z" transform="translate(-85 -182.91)" style="fill:#dedcd5;mix-blend-mode:soft-light"/><path d="M906.08,353.6c-1.79-.66-9.93,12.08-10.44,14.94s14.78,20.7,18.42,18.88,6.54-9.14,8-9.71c2.23-.89,3.57,11.53,8,11.53s37.77-14.46,38-24c0-1.08-14.81-18.32-15.67-17.87-2,1-15.11,13.15-31.17,13.15C912.79,360.56,907.63,354.17,906.08,353.6Z" transform="translate(-85 -182.91)" style="fill:#97c4de"/><path d="M922.34,365.07l-6.7,19.75s2.09,8.41,3.35,12.05c-3.35,6.55-12.18,94.19,0,124.29a205.54,205.54,0,0,0,20.52-31.07s-17.56-68-15.62-93.22c2.24-4.86,4.16-13.85,4.16-13.85Z" transform="translate(-85 -182.91)" style="fill:#cb3470"/><path d="M930,390.34a1.11,1.11,0,0,1-1.06-.77l-6.66-20.93-7.1,21a1.11,1.11,0,0,1-1.63.59c-.56-.34-13.74-8.51-18.51-19.61a1.11,1.11,0,1,1,2-.88c3.7,8.6,13.15,15.58,16.46,17.83l7.73-22.8a1.07,1.07,0,0,1,1.06-.75,1.11,1.11,0,0,1,1,.77l7.35,23.11c5-1.57,26.69-8.91,35.34-20.21a1.11,1.11,0,1,1,1.76,1.35c-10.19,13.33-36.41,21-37.52,21.31A1.13,1.13,0,0,1,930,390.34Z" transform="translate(-85 -182.91)" style="fill:#5a65d1"/><path d="M744.95,510.12c-5.11-9.51-19.33-10.86-22.55-11.87s-7-2.7-7,0,5.37,6.07,7,8.43-18.24-1-22-1-11.37,1.82-10.11,4.45,14.14,1.28,16.55,3.64-16.48,3.26-16.69,6.52,6,13,10.25,15.06,34.87,0,37,0,16.9-7.53,16.9-7.53Z" transform="translate(-85 -182.91)" style="fill:#f7b690"/><path d="M857.28,389.23c-11.45,17.87-37,97.73-54.67,104.89S745,509.66,745,509.66s0,24.18,6.32,26.58,75.82,1.43,88.2-3c21.15-7.48,48.4-75,48.4-75Z" transform="translate(-85 -182.91)" style="fill:#f7f6f1"/><path d="M751,536.88c-6.57-2.49-6.76-24.7-6.76-27.23v-.56l.55-.11c.4-.08,40.1-8.45,57.52-15.5,11.35-4.59,26.35-40.67,38.41-69.65,6.43-15.45,12-28.79,15.94-35l.69-1.08,31.24,70.46-.11.27c-1.12,2.77-27.61,67.94-48.81,75.43-8.28,2.93-39,4.28-62.07,4.28C764.21,538.22,753.35,537.76,751,536.88ZM857.18,390.71c-3.85,6.49-9.11,19.14-15.14,33.64-12.16,29.22-27.28,65.59-39.17,70.4-16.41,6.64-52.32,14.41-57.21,15.46.06,7,1.18,23.59,5.87,25.37,5.52,2.09,74.91,1.57,87.72-3,19.94-7.05,46-69.71,47.87-74.38Z" transform="translate(-85 -182.91)" style="fill:#97c4de"/><path d="M962.17,357.71c2.51,26.05-21.3,308.56-9.1,340.08,41.33,10.27,99.38-7.81,99.38-7.81s-25.75-125.58-25-149.1,5.16-134.09-2.05-149.84C1016.75,372.11,962.17,357.71,962.17,357.71Z" transform="translate(-85 -182.91)" style="fill:#f7f6f1"/><path d="M952.9,698.47l-.35-.09-.13-.34c-8-20.67-.65-148.11,4.72-241.16,2.9-50.32,5.2-90.07,4.33-99.1l-.1-1,1,.25c2.24.59,55,14.7,63.7,33.72,6.78,14.8,3.43,112.06,2.33,144l-.21,6.13c-.75,23.17,24.71,147.68,25,148.94l.13.61-.6.19c-.45.14-35.73,11-70.7,11A121.85,121.85,0,0,1,952.9,698.47Zm73.88-157.6.21-6.14c1.1-31.88,4.44-128.89-2.2-143.39-7.82-17.07-54.59-30.68-61.85-32.7.65,10.75-1.59,49.58-4.4,98.32-5.33,92.43-12.63,218.84-4.94,240.25,38.41,9.37,91.81-5.85,98.06-7.7C1049.47,678.87,1026,563.6,1026.78,540.87Z" transform="translate(-85 -182.91)" style="fill:#97c4de"/><path d="M898.5,362.7s-18.3,4.43-36.59,20.28c-23.59,20.45.06,132.36-9.52,162.46S823.9,684.22,826.81,688.1s42.81,15.07,54.46,12.19,9.12-164,5.24-191.95S898.5,362.7,898.5,362.7Z" transform="translate(-85 -182.91)" style="fill:#f7f6f1"/><path d="M826.26,688.52c-3.3-4.4,16.22-114.21,25.47-143.28,3.83-12,2.27-37.7.61-64.87-2.44-40.07-5.21-85.49,9.11-97.9,18.21-15.78,36.69-20.38,36.88-20.43l1-.24-.14,1c-.16,1.18-15.82,117.9-12,145.45s7,189.57-5.75,192.71a21.59,21.59,0,0,1-5,.48C861.05,701.44,829.13,692.34,826.26,688.52Zm36.11-305c-13.8,12-11.06,57-8.64,96.77,1.66,27.3,3.23,53.09-.68,65.37-9.5,29.86-28.1,137.59-25.68,142,2.56,3.41,41.89,14.87,53.74,11.93,10.64-2.63,8.63-163,4.72-191.18-3.66-26.33,10.3-133.07,11.85-144.79A99.39,99.39,0,0,0,862.36,383.51Z" transform="translate(-85 -182.91)" style="fill:#97c4de"/><path d="M1020,556.63l-10.92,15.66S998.77,590.13,997.38,593s-3.94,9.47-2.48,10.2,24.76-2.18,27.67-3.28.35-20.52,2.91-21.73,20.37-27.06,20.37-27.06Z" transform="translate(-85 -182.91)" style="fill:#f7b690"/><path d="M1025.42,391c24.22,29.62,68.89,89.69,68.89,105.23s-59.87,81-59.87,81L1012,562.55s29.86-63.85,32-69.67-45.15-34.83-46.61-53.77S1017.34,381.18,1025.42,391Z" transform="translate(-85 -182.91)" style="fill:#f7f6f1"/><path d="M1011.13,562.8l.25-.54c.3-.64,29.87-63.89,32-69.62.7-1.86-7.12-8.58-14.69-15.08-13.84-11.89-31.07-26.69-32-38.39-1.19-15.44,13-45.77,23.37-49.92a4.69,4.69,0,0,1,5.82,1.37c22.53,27.54,69,89.61,69,105.67,0,15.63-57.6,78.77-60,81.45l-.4.43Zm13.75-171.32a3.34,3.34,0,0,0-4.23-1c-9,3.6-23.72,32.74-22.51,48.53.86,11.12,18.56,26.33,31.49,37.44,10.59,9.1,16.07,14,15.08,16.62-2.09,5.57-28.71,62.54-31.81,69.18l21.43,14.05c5.2-5.73,59.29-65.64,59.29-80.08,0-15.68-46.31-77.37-68.74-104.79Z" transform="translate(-85 -182.91)" style="fill:#97c4de"/><path d="M985,662c-2.8,0-4.82-.33-5.52-1.14-2.61-3-7.51-41.08-9.5-57.33a1.67,1.67,0,0,1,1.55-1.87l53.69-3.57a1.67,1.67,0,0,1,1.78,1.6c.07,1.93,1.77,47.42,1.34,51.5-.15,1.47-1.4,2.75-7.14,4.57C1014.56,657.88,994.85,662,985,662Zm-3.05-3.44c4.82,1.73,39.55-4.73,43.09-8,.25-4.39-.81-35.19-1.32-49l-50.22,3.34C976.45,629,980.31,655.21,981.91,658.58Z" transform="translate(-85 -182.91)" style="fill:#97c4de"/><path d="M1026.67,476.54a1.67,1.67,0,0,1-1.26-.57C1012.33,461,1000.25,447,996,440a1.67,1.67,0,0,1,2.86-1.72c4.42,7.38,18.65,23.64,29,35.52a1.67,1.67,0,0,1-1.26,2.77Z" transform="translate(-85 -182.91)" style="fill:#97c4de"/><path d="M853.41,520a1.67,1.67,0,0,1-1.67-1.67c0-11.8-.36-28.26-.71-44.19-.53-24.2-1-47.06-.29-53.15a1.65,1.65,0,0,1,1.86-1.46A1.67,1.67,0,0,1,854,421.4c-.71,5.86-.19,29.66.32,52.68.35,15.94.71,32.42.71,44.26A1.67,1.67,0,0,1,853.41,520Z" transform="translate(-85 -182.91)" style="fill:#97c4de"/><path d="M959.19,502.18a1.67,1.67,0,0,1-1.54-2.32c6.82-16.12,26.89-67,26.64-72.67-.85-.93-5.06-1.84-7.61-2.4-5.52-1.2-10.28-2.25-10.35-5.67-.07-3.69,8.39-19.52,20.36-41.49l3.11-5.72a1.67,1.67,0,1,1,2.93,1.59l-3.11,5.72c-7.48,13.73-20,36.71-20,39.83.48.89,5.19,1.92,7.72,2.47,4.62,1,8.6,1.88,9.9,4.14.66,1.16,1.66,2.9-10.82,35.8-6.28,16.58-13.46,34.3-15.74,39.69A1.67,1.67,0,0,1,959.19,502.18Z" transform="translate(-85 -182.91)" style="fill:#97c4de"/><path d="M884.32,503.91a1.67,1.67,0,0,1-1.57-1.11c-2.11-5.89-16.84-72-16-76.73.52-2.84,4.26-4.26,8.59-5.9,2.73-1,7.29-2.77,7.29-4.16,0-1.81-1.31-6.12-2.82-11.12a210.47,210.47,0,0,1-6.9-27.7,1.67,1.67,0,1,1,3.3-.53,207.39,207.39,0,0,0,6.8,27.26c1.72,5.68,3,9.78,3,12.09,0,3.7-4.8,5.52-9.45,7.28-2.21.84-6.31,2.39-6.49,3.38-.48,4.31,13.41,68.24,15.84,75a1.67,1.67,0,0,1-1.57,2.23Z" transform="translate(-85 -182.91)" style="fill:#97c4de"/><path d="M1014.6,700a1.67,1.67,0,0,1-.28-3.31l4.27-.71c8.83-1.45,29.26-4.82,32.59-7.11,1.11-4.13-5.86-36.31-13.37-65.52a1.67,1.67,0,1,1,3.23-.83c0,.16,4.17,16.24,7.82,32.47,7.6,33.77,5.84,35.28,4.67,36.28-3.12,2.68-18.05,5.31-34.4,8l-4.26.71Z" transform="translate(-85 -182.91)" style="fill:#97c4de"/></g></g><path d="M585.84,549h-8.6a1.79,1.79,0,0,1,0-3.58h8.6a1.79,1.79,0,0,1,0,3.58Zm-17.2,0H560a1.79,1.79,0,0,1,0-3.58h8.6a1.79,1.79,0,0,1,0,3.58Zm-17.2,0h-8.6a1.79,1.79,0,0,1,0-3.58h8.6a1.79,1.79,0,0,1,0,3.58Zm-17.2,0h-8.6a1.79,1.79,0,0,1,0-3.58h8.6a1.79,1.79,0,0,1,0,3.58ZM517,549h-8.6a1.79,1.79,0,0,1,0-3.58H517a1.79,1.79,0,0,1,0,3.58Zm-17.2,0h-8.6a1.79,1.79,0,0,1,0-3.58h8.6a1.79,1.79,0,0,1,0,3.58Zm-17.2,0H474a1.79,1.79,0,0,1,0-3.58h8.6a1.79,1.79,0,1,1,0,3.58Zm-17.2,0h-8.6a1.79,1.79,0,0,1,0-3.58h8.6a1.79,1.79,0,1,1,0,3.58Zm-17.2,0h-8.6a1.79,1.79,0,0,1,0-3.58h8.6a1.79,1.79,0,1,1,0,3.58ZM431,549h-8.6a1.79,1.79,0,1,1,0-3.58H431a1.79,1.79,0,1,1,0,3.58Zm-17.2,0h-8.6a1.79,1.79,0,1,1,0-3.58h8.6a1.79,1.79,0,1,1,0,3.58Zm-17.2,0H388a1.79,1.79,0,1,1,0-3.58h8.6a1.79,1.79,0,1,1,0,3.58Zm-17.2,0h-8.6a1.79,1.79,0,1,1,0-3.58h8.6a1.79,1.79,0,1,1,0,3.58Zm-17.2,0h-8.6a1.79,1.79,0,1,1,0-3.58h8.6a1.79,1.79,0,1,1,0,3.58ZM345,549h-8.6a1.79,1.79,0,0,1,0-3.58H345a1.79,1.79,0,1,1,0,3.58Zm-17.2,0h-8.6a1.79,1.79,0,0,1,0-3.58h8.6a1.79,1.79,0,0,1,0,3.58Zm-17.2,0H302a1.79,1.79,0,0,1,0-3.58h8.6a1.79,1.79,0,0,1,0,3.58Zm-17.2,0h-8.6a1.79,1.79,0,0,1,0-3.58h8.6a1.79,1.79,0,0,1,0,3.58Zm297-4.12a1.79,1.79,0,0,1-1.79-1.79v-8.6a1.79,1.79,0,0,1,3.58,0v8.6A1.79,1.79,0,0,1,590.33,544.88Zm-306.5-3.55a1.79,1.79,0,0,1-1.79-1.79v-8.6a1.79,1.79,0,0,1,3.58,0v8.6A1.79,1.79,0,0,1,283.83,541.33Zm306.5-13.65a1.79,1.79,0,0,1-1.79-1.79v-8.6a1.79,1.79,0,0,1,3.58,0v8.6A1.79,1.79,0,0,1,590.33,527.68Zm-306.5-3.55a1.79,1.79,0,0,1-1.79-1.79v-8.6a1.79,1.79,0,0,1,3.58,0v8.6A1.79,1.79,0,0,1,283.83,524.12Zm306.5-13.65a1.79,1.79,0,0,1-1.79-1.79v-8.6a1.79,1.79,0,0,1,3.58,0v8.6A1.79,1.79,0,0,1,590.33,510.47Zm-306.5-3.55a1.79,1.79,0,0,1-1.79-1.79v-8.6a1.79,1.79,0,0,1,3.58,0v8.6A1.79,1.79,0,0,1,283.83,506.92Zm306.5-13.65a1.79,1.79,0,0,1-1.79-1.79v-8.6a1.79,1.79,0,0,1,3.58,0v8.6A1.79,1.79,0,0,1,590.33,493.27Zm-306.5-3.55a1.79,1.79,0,0,1-1.79-1.79v-8.6a1.79,1.79,0,0,1,3.58,0v8.6A1.79,1.79,0,0,1,283.83,489.71Zm306.5-13.65a1.79,1.79,0,0,1-1.79-1.79v-8.6a1.79,1.79,0,0,1,3.58,0v8.6A1.79,1.79,0,0,1,590.33,476.06Zm-306.5-3.55a1.79,1.79,0,0,1-1.79-1.79v-8.6a1.79,1.79,0,0,1,3.58,0v8.6A1.79,1.79,0,0,1,283.83,472.51Zm306.5-13.65a1.79,1.79,0,0,1-1.79-1.79v-8.6a1.79,1.79,0,0,1,3.58,0v8.6A1.79,1.79,0,0,1,590.33,458.86Zm-306.5-3.55a1.79,1.79,0,0,1-1.79-1.79v-8.6a1.79,1.79,0,0,1,3.58,0v8.6A1.79,1.79,0,0,1,283.83,455.3Zm306.5-13.65a1.79,1.79,0,0,1-1.79-1.79v-8.6a1.79,1.79,0,0,1,3.58,0v8.6A1.79,1.79,0,0,1,590.33,441.65Zm-306.5-3.55a1.79,1.79,0,0,1-1.79-1.79v-8.6a1.79,1.79,0,0,1,3.58,0v8.6A1.79,1.79,0,0,1,283.83,438.1Zm306.5-13.65a1.79,1.79,0,0,1-1.79-1.79v-8.6a1.79,1.79,0,0,1,3.58,0v8.6A1.79,1.79,0,0,1,590.33,424.45Zm-306.5-3.55A1.79,1.79,0,0,1,282,419.1v-8.6a1.79,1.79,0,0,1,3.58,0v8.6A1.79,1.79,0,0,1,283.83,420.9Zm306.5-13.65a1.79,1.79,0,0,1-1.79-1.79v-8.6a1.79,1.79,0,0,1,3.58,0v8.6A1.79,1.79,0,0,1,590.33,407.24Zm-306.5-3.55A1.79,1.79,0,0,1,282,401.9v-8.6a1.79,1.79,0,0,1,3.58,0v8.6A1.79,1.79,0,0,1,283.83,403.69ZM590.33,390a1.79,1.79,0,0,1-1.79-1.79v-8.6a1.79,1.79,0,0,1,3.58,0v8.6A1.79,1.79,0,0,1,590.33,390Zm-306.5-3.55a1.79,1.79,0,0,1-1.79-1.79v-8.6a1.79,1.79,0,0,1,3.58,0v8.6A1.79,1.79,0,0,1,283.83,386.49Zm306.5-13.65a1.79,1.79,0,0,1-1.79-1.79v-8.6a1.79,1.79,0,0,1,3.58,0V371A1.79,1.79,0,0,1,590.33,372.83Zm-306.5-3.55a1.79,1.79,0,0,1-1.79-1.79v-8.6a1.79,1.79,0,0,1,3.58,0v8.6A1.79,1.79,0,0,1,283.83,369.28Zm306.5-13.65a1.79,1.79,0,0,1-1.79-1.79v-8.6a1.79,1.79,0,0,1,3.58,0v8.6A1.79,1.79,0,0,1,590.33,355.63Zm-306.5-3.55a1.79,1.79,0,0,1-1.79-1.79v-8.6a1.79,1.79,0,0,1,3.58,0v8.6A1.79,1.79,0,0,1,283.83,352.08Zm306.5-13.65a1.79,1.79,0,0,1-1.79-1.79V328a1.79,1.79,0,1,1,3.58,0v8.6A1.79,1.79,0,0,1,590.33,338.42Zm-306.5-3.55a1.79,1.79,0,0,1-1.79-1.79v-8.6a1.79,1.79,0,0,1,3.58,0v8.6A1.79,1.79,0,0,1,283.83,334.87Zm306.5-13.65a1.79,1.79,0,0,1-1.79-1.79v-8.6a1.79,1.79,0,0,1,3.58,0v8.6A1.79,1.79,0,0,1,590.33,321.22Zm-306.5-3.55a1.79,1.79,0,0,1-1.79-1.79v-8.6a1.79,1.79,0,0,1,3.58,0v8.6A1.79,1.79,0,0,1,283.83,317.67ZM590.33,304a1.79,1.79,0,0,1-1.79-1.79v-8.6a1.79,1.79,0,0,1,3.58,0v8.6A1.79,1.79,0,0,1,590.33,304Zm-306.5-3.55a1.79,1.79,0,0,1-1.79-1.79v-8.6a1.79,1.79,0,0,1,3.58,0v8.6A1.79,1.79,0,0,1,283.83,300.46Zm306.5-13.65a1.79,1.79,0,0,1-1.79-1.79v-8.6a1.79,1.79,0,0,1,3.58,0V285A1.79,1.79,0,0,1,590.33,286.81Zm-306.5-3.55a1.79,1.79,0,0,1-1.79-1.79v-8.6a1.79,1.79,0,0,1,3.58,0v8.6A1.79,1.79,0,0,1,283.83,283.26Zm-5-12.2h-8.6a1.79,1.79,0,1,1,0-3.58h8.6a1.79,1.79,0,1,1,0,3.58Zm-17.2,0H253a1.79,1.79,0,1,1,0-3.58h8.6a1.79,1.79,0,1,1,0,3.58Zm-17.2,0h-8.6a1.79,1.79,0,1,1,0-3.58h8.6a1.79,1.79,0,1,1,0,3.58Zm-17.2,0h-8.6a1.79,1.79,0,1,1,0-3.58h8.6a1.79,1.79,0,1,1,0,3.58Zm-17.21,0h-8.6a1.79,1.79,0,1,1,0-3.58H210a1.79,1.79,0,1,1,0,3.58Zm-17.2,0h-8.6a1.79,1.79,0,1,1,0-3.58h8.6a1.79,1.79,0,1,1,0,3.58Zm-17.2,0H167a1.79,1.79,0,1,1,0-3.58h8.6a1.79,1.79,0,1,1,0,3.58Zm414.73-1.45a1.79,1.79,0,0,1-1.79-1.79v-8.6a1.79,1.79,0,0,1,3.58,0v8.6A1.79,1.79,0,0,1,590.33,269.61Zm0-17.2a1.79,1.79,0,0,1-1.79-1.79V242a1.79,1.79,0,0,1,3.58,0v8.6A1.79,1.79,0,0,1,590.33,252.4Zm0-17.2a1.79,1.79,0,0,1-1.79-1.79v-2.26a1.79,1.79,0,0,1,1.79-1.79h6.35a1.79,1.79,0,0,1,0,3.58h-4.55v.46A1.79,1.79,0,0,1,590.33,235.2Zm161.19-2.26h-8.6a1.79,1.79,0,0,1,0-3.58h8.6a1.79,1.79,0,0,1,0,3.58Zm-17.2,0h-8.6a1.79,1.79,0,0,1,0-3.58h8.6a1.79,1.79,0,0,1,0,3.58Zm-17.2,0h-8.6a1.79,1.79,0,0,1,0-3.58h8.6a1.79,1.79,0,0,1,0,3.58Zm-17.2,0h-8.6a1.79,1.79,0,0,1,0-3.58h8.6a1.79,1.79,0,0,1,0,3.58Zm-17.2,0h-8.6a1.79,1.79,0,0,1,0-3.58h8.6a1.79,1.79,0,0,1,0,3.58Zm-17.2,0h-8.6a1.79,1.79,0,0,1,0-3.58h8.6a1.79,1.79,0,0,1,0,3.58Zm-17.2,0h-8.6a1.79,1.79,0,0,1,0-3.58h8.6a1.79,1.79,0,0,1,0,3.58Zm-17.2,0h-8.6a1.79,1.79,0,0,1,0-3.58h8.6a1.79,1.79,0,0,1,0,3.58Zm-17.2,0h-8.6a1.79,1.79,0,0,1,0-3.58h8.6a1.79,1.79,0,0,1,0,3.58Z" transform="translate(-85 -182.91)" style="fill:#34a4ca"/><path d="M164.14,307.24a42.7,42.7,0,1,1,42.7-42.7A42.74,42.74,0,0,1,164.14,307.24Z" transform="translate(-85 -182.91)" style="fill:#f7f6f1"/><path d="M164.14,223.23a41.32,41.32,0,1,1-41.32,41.32,41.36,41.36,0,0,1,41.32-41.32Zm0-2.76a44.07,44.07,0,1,0,44.07,44.07,44.07,44.07,0,0,0-44.07-44.07Z" transform="translate(-85 -182.91)" style="fill:#34a4ca"/><path d="M175.44,262l-10-16.54,13.39-8.08a9.66,9.66,0,0,1,13.26,3.28h0A9.66,9.66,0,0,1,188.84,254Z" transform="translate(-85 -182.91)" style="fill:#34a4ca"/><path d="M153,272.06c-3.13,0-6.15-1.79-7.15-3.45-1.33-2.2-1-8.3,2.59-10.46l14.2-8.57,7.87,13-14.2,8.57a6.31,6.31,0,0,1-3.31.86Z" transform="translate(-85 -182.91)" style="fill:#f7f6f1"/><path d="M162.32,250.88l6.9,11.44-13.4,8.08a5.39,5.39,0,0,1-2.83.72c-2.71,0-5.47-1.55-6.34-3a7.62,7.62,0,0,1-.4-4.62,6.53,6.53,0,0,1,2.67-4.56l13.4-8.08Zm.64-2.57-15,9.05c-4,2.44-4.44,9.19-2.91,11.74,1.24,2,4.63,3.9,7.95,3.9a7.28,7.28,0,0,0,3.8-1l15-9.05L163,248.3Z" transform="translate(-85 -182.91)" style="fill:#34a4ca"/><path d="M175.45,263.92a1.87,1.87,0,0,1-1.61-.91l-10-16.54a1.87,1.87,0,0,1,3.21-1.94l10,16.54a1.87,1.87,0,0,1-1.6,2.84Z" transform="translate(-85 -182.91)" style="fill:#34a4ca"/><path d="M150.84,285.75c0,5-3.22,7.32-6.55,7.32s-6.55-2.31-6.55-7.32c0-5.43,5.34-12.36,6.55-12.36S150.84,280.31,150.84,285.75Z" transform="translate(-85 -182.91)" style="fill:#34a4ca"/><path d="M142.24,280c-.76.12-3.16,5.68-1.34,8.41s3.1.08,3.4-1.76S143.15,279.84,142.24,280Z" transform="translate(-85 -182.91)" style="fill:#f7f6f1"/><path d="M755.56,264.49a40.07,40.07,0,1,1,40.07-40.07A40.12,40.12,0,0,1,755.56,264.49Z" transform="translate(-85 -182.91)" style="fill:#f7f6f1"/><path d="M755.56,265.92a41.5,41.5,0,1,1,41.51-41.5A41.55,41.55,0,0,1,755.56,265.92Zm0-80.15a38.64,38.64,0,1,0,38.64,38.64A38.69,38.69,0,0,0,755.56,185.77Z" transform="translate(-85 -182.91)" style="fill:#34a4ca"/><path d="M756,251.16a23.07,23.07,0,0,1-23-23V209.78a9.79,9.79,0,0,1,9.78-9.78h5.94v2.86h-5.94a6.93,6.93,0,0,0-6.92,6.92v18.34a20.18,20.18,0,0,0,40.36,0V209.78a6.93,6.93,0,0,0-6.92-6.92h-6V200h6a9.79,9.79,0,0,1,9.78,9.78v18.34A23.07,23.07,0,0,1,756,251.16Z" transform="translate(-85 -182.91)" style="fill:#34a4ca"/><path d="M779.58,274.73a25,25,0,0,1-25-25h2.86a22.13,22.13,0,1,0,44.26,0h2.86A25,25,0,0,1,779.58,274.73Z" transform="translate(-85 -182.91)" style="fill:#34a4ca"/><circle cx="663.7" cy="18.52" r="2.57" style="fill:#34a4ca"/><circle cx="678.4" cy="18.52" r="2.57" style="fill:#34a4ca"/><circle cx="718.15" cy="66.82" r="8.42" style="fill:#f7f6f1"/><path d="M803.15,259.59a9.85,9.85,0,1,1,9.85-9.85A9.86,9.86,0,0,1,803.15,259.59Zm0-16.84a7,7,0,1,0,7,7A7,7,0,0,0,803.15,242.74Z" transform="translate(-85 -182.91)" style="fill:#34a4ca"/><circle cx="718.15" cy="66.82" r="3.52" style="fill:#f7f6f1"/><path d="M803.15,254.69a5,5,0,1,1,5-5A5,5,0,0,1,803.15,254.69Zm0-7a2.09,2.09,0,1,0,2.09,2.09A2.09,2.09,0,0,0,803.15,247.64Z" transform="translate(-85 -182.91)" style="fill:#34a4ca"/><g id="plant2"><path d="M208.55,718.55c4.8-15.35,31.73-3.69,42.69-35.77,2.25-6.58-21.11-18-20.64-25.78.22-3.66,24.65-3.42,24.77-7.23,1.35-44.76-18.7-75.46-10.81-101.85,2.76-9.23-15.21-9.62-13.13-16.82.71-2.47,18.72,2.53,20.32.55,9.36-11.54,29.52-33.39,33-46.51,2.58-9.61,1-25-1-39.54-.42-3.16-18.79-2.45-19.2-5.46-1.38-10,18.49-3,19.08-8.09,1.64-14.08,20.31-66.34-1-75.25-15.92-6.65-57.07,60.27-62.12,78.09-.58,2,14.89,20.1,12.89,21.7-1.75,1.4-21.85-14.36-23.87-12.82-15.65,11.89-37.83,27.7-42.69,43.59-6.2,20.29,7,58.73,5,71.5-3.17,19.92-29.61,56.6-34.48,93.88-.3,2.29,25.33-3.15,25.2-.86-.22,4-26,15.72-25.61,19.69.29,2.88,47.13-21,47.79-18.13.88,3.78-44.28,34.26-42.65,38,12.39,28.14,35,17.79,45.68,17.35S208.55,718.55,208.55,718.55Z" transform="translate(-85 -182.91)" style="fill:#97c4de"/><path d="M211.11,671.08c-1.43-.38-2.87-.71-4.31-1-2,52-.4,99.17,3,129.29a2.74,2.74,0,1,0,5.42-.72C211.49,765.5,209.69,719.93,211.11,671.08Z" transform="translate(-85 -182.91)" style="fill:#97c4de"/><path d="M268.84,410.2c-2-1.88-52.24,53.41-61.61,249.91q2.11.41,4.21.92c2.71-71.73,14.5-194.35,57.47-249.41A1,1,0,0,0,268.84,410.2Z" transform="translate(-85 -182.91)" style="fill:#f7f6f1"/><path d="M234,743.9c9.79-13.36,30.9,6.88,54-19,1.65-1.84-24.88-18.13-23.54-20.32,2.11-3.46,31.87,6.93,33.34,2.75,9.76-27.77,7.14-69.32,16.62-97.64.85-2.53-16.94-15.74-15.88-18,1.3-2.84,21.48,5.34,23,2.9,13.69-21.26,36.63-28.46,52.87-40.78,2.65-2-20.19-31-18-33.33,1.53-1.63,28.26,23.46,29.54,21.59,11.24-16.41,11.68-40.34,14.12-57,.61-4.18-13.91-10.56-12.84-13.59.84-2.38,17.14-1.68,18.48-3.1,9.86-10.42,34.33-38.14,20.24-54.28-1.79-2-13.68,16.47-15.71,15.67-2.66-1,4.46-21,1.45-20.26-17.13,4.15-39.55,33.59-61.61,50.56-1.79,1.37,5.84,24.19,4.06,25.37-2,1.33-13.37-19-15.33-17.95-16.18,8.61-56.43,14.63-70.37,31.26-1,1.21,37.37,33.21,36.52,34.67-1.07,1.84-41.32-26.8-42.16-24.64-7.64,19.65-6.65,50.88-12.85,62.75-9.67,18.51-47.89,44.65-64.93,79.7-1,2.15,26.13,6.66,25.25,8.88-1.53,3.88-30.92,5.54-31.83,9.63-.66,3,53.58-2.59,53.3.49-.37,4.09-55.1,16.85-54.7,21.14,3,32.67,28.87,31.15,39.57,34.83S234,743.9,234,743.9Z" transform="translate(-85 -182.91)" style="fill:#f7f6f1"/><path d="M233.89,745.5a1.49,1.49,0,0,1-1.17-.87c-.06-.13-6.45-13.5-16.42-16.92a58.22,58.22,0,0,0-6.69-1.63c-12.46-2.57-31.29-6.46-33.91-34.57-.28-3,4.09-4.9,29.2-12.68,8.16-2.53,18.72-5.8,23.39-7.91-5-.25-15.46.25-23.58.63-22,1-26.05.95-27.23-.6a1.94,1.94,0,0,1-.34-1.6c.63-2.84,5.52-4,17.37-6.19,4.36-.8,10.51-1.94,13.27-3-2.42-.89-7.09-2.09-10.45-2.94-10.21-2.61-12.86-3.47-13.52-5.05a2,2,0,0,1,0-1.67c10.14-20.85,27.93-38.83,42.23-53.28,10.12-10.22,18.85-19.05,22.72-26.46,2.89-5.53,4.21-16,5.6-27.06,1.49-11.84,3.18-25.27,7.17-35.52a1.71,1.71,0,0,1,1-1c1.57-.56,5,1.35,22.62,12.77,4.1,2.65,8.71,5.63,12.47,8-3.64-3.35-8.27-7.48-12.15-10.93-16.75-14.91-18.35-16.61-18.44-18a1.9,1.9,0,0,1,.4-1.27c9.35-11.15,29.58-17.49,47.42-23.08,9.18-2.88,17.86-5.59,23.4-8.54,2-1,3.92,1.57,9.3,9.28,1.6,2.29,3.78,5.41,5.29,7.21-.41-2.45-1.35-6.34-2-9.19-2.56-10.57-3-13.39-1.48-14.59,8.22-6.32,16.54-14.44,24.59-22.29,13.62-13.29,26.49-25.84,37.56-28.52a1.86,1.86,0,0,1,1.85.56c1.21,1.33.81,3.87-.67,10.81a72.55,72.55,0,0,0-1.43,8.14c1.39-1.37,3.67-4.2,5.31-6.23,5.06-6.28,7.3-8.84,9.12-8.88a1.89,1.89,0,0,1,1.48.66c10.43,11.95,3.42,31.5-20.28,56.54-.9.95-2.83,1.15-8.57,1.52-2.92.19-7.58.49-9.27,1.09a33.48,33.48,0,0,0,4.9,4c4.21,3.07,8.19,6,7.72,9.17s-.87,6.73-1.29,10.43c-1.71,15-3.83,33.73-13.11,47.27a1.69,1.69,0,0,1-1.15.73c-1.63.25-4.81-2.15-15.65-11.15-3.88-3.22-8.82-7.32-11.7-9.36,1.67,3.23,5.31,8.79,7.94,12.8,7,10.72,9.84,15.31,9.47,17.65a2.19,2.19,0,0,1-.81,1.42A168.34,168.34,0,0,1,358.28,566c-12.91,7.52-26.26,15.3-35.41,29.51-1.23,1.91-4.29,1.32-12.73-.84a65.66,65.66,0,0,0-9.5-2,88.76,88.76,0,0,0,6.76,6.7c7,6.49,9.2,8.77,8.48,10.91-4.62,13.81-6.37,31.2-8.07,48-1.75,17.4-3.56,35.4-8.57,49.65-1.09,3.11-6.33,2.35-18.92-.27-4.34-.91-10.5-2.19-13.36-2.19h-.17c2.08,2,7.09,5.65,10.62,8.23,9.58,7,12,9,12.19,10.82a2,2,0,0,1-.48,1.53c-13.93,15.58-27.08,15-37.65,14.49-7.07-.32-12.66-.58-16.28,4.36a1.44,1.44,0,0,1-1.16.61Zm17.71-8.16c9.8.44,21.94,1,34.69-12.74-1.6-1.7-6.69-5.42-10.53-8.23-11.49-8.4-13.83-10.42-12.47-12.64s6-1.65,17.6.78c5.58,1.17,14,2.91,15.66,2.07,4.81-13.83,6.59-31.52,8.32-48.64,1.7-16.87,3.45-34.31,8.11-48.42-.7-1.39-4.77-5.17-7.51-7.72-7-6.48-9.15-8.75-8.19-10.84,1.14-2.49,5.2-1.57,13.54.57,3.38.87,8.43,2.17,9.78,1.88,9.55-14.68,23.14-22.59,36.28-30.25a172.2,172.2,0,0,0,16.31-10.31c-.64-2.35-5.56-9.87-8.89-14.94-8.6-13.13-10.59-16.67-8.78-18.59,1.49-1.58,3.37-.39,16.76,10.73,4.68,3.89,10.94,9.07,13.15,10.28,8.37-12.79,10.31-29.86,12-45,.42-3.73.82-7.26,1.31-10.54.17-1.18-4.47-4.56-6.45-6-4.2-3.06-7.24-5.27-6.31-7.91.74-2.11,4.1-2.54,12.15-3.06a42.21,42.21,0,0,0,6.79-.73c12.58-13.31,31.66-37.41,20.55-51.35-1.41,1-4.54,4.91-6.68,7.57-5.21,6.46-7.1,8.66-8.91,8-2.45-1-1.71-5-.07-12.7a69.63,69.63,0,0,0,1.3-7.23c-10.11,3-22.3,14.93-35.17,27.49-8,7.8-16.27,15.87-24.51,22.26-.07,1.68,1.34,7.49,2.29,11.41,2.57,10.59,3,13.18,1.35,14.28-2.05,1.37-4.13-1.38-9.82-9.54-2-2.85-4.92-7-6.14-8.07-5.77,3-14.33,5.65-23.38,8.48-17,5.31-36.1,11.31-45.24,21.24,2.29,2.53,10.33,9.68,16.92,15.55,4.68,4.16,9.51,8.47,13.05,11.76,6,5.61,6.75,6.59,5.9,8-1,1.67-2.63,1-8.7-2.71-3.85-2.33-9-5.66-14-8.87-7.17-4.63-16.73-10.82-19.8-12.16-3.54,9.72-5.13,22.37-6.54,33.58-1.5,11.88-2.79,22.15-6,28.21-4.1,7.84-13,16.82-23.28,27.23C214.22,613.57,197,631,187,650.88a104.1,104.1,0,0,0,11,3.18c10.29,2.63,13,3.5,13.71,5.06a2.05,2.05,0,0,1,.05,1.61c-1,2.46-5.61,3.54-16.77,5.6-3.87.71-9.12,1.68-12.31,2.67,5,.14,14.47-.3,21.89-.65,22.22-1,27-1,28.29.56a2,2,0,0,1,.47,1.47c-.23,2.59-4.62,4.42-27.64,11.55-10.52,3.26-24.81,7.68-27,9.72,2.55,25.31,19.26,28.75,31.47,31.28a60,60,0,0,1,7,1.72c8.8,3,14.84,12.41,17.14,16.55,3.34-3.34,7.54-4,12.31-4C248.24,737.18,249.89,737.26,251.6,737.34Zm14-31.65ZM405,467.08Z" transform="translate(-85 -182.91)" style="fill:#97c4de"/><path d="M190.54,745.42c-5.52-12.13-26.61.7-38.9-24.55-2.52-5.18,15.66-17.35,14.49-23.76-.55-3-20.73.09-21.21-3.06-5.61-36.87,7.9-64.63-1.28-85.52-3.21-7.31,11.61-9.75,9.18-15.46-.84-2-15.23,4.3-16.75,2.86-8.9-8.44-27.77-24.13-32-34.57-3.1-7.64-3.32-20.56-3.18-32.82,0-2.67,15.3-4.25,15.34-6.79.13-8.44-15.59-.29-16.6-4.44-2.77-11.45-23.45-52.47-6.71-62.36,12.5-7.38,53.25,43.1,59.21,57.25.68,1.63-10.3,18.39-8.49,19.47,1.59.95,16.63-14.46,18.46-13.42,14.14,8,34.07,18.44,39.68,31,7.17,16,.08,49.41,3,59.74,4.62,16.1,30.17,43.32,37.94,73.57.48,1.86-21.27.39-20.93,2.27.58,3.28,23.09,9.93,23.16,13.26.05,2.42-41.09-11.78-41.35-9.35-.35,3.23,40.06,23.11,39.09,26.35-7.42,24.74-27.19,18.86-36,19.75S190.54,745.42,190.54,745.42Z" transform="translate(-85 -182.91)" style="fill:#f7f6f1"/><path d="M190.37,747a1.49,1.49,0,0,1-1.16-.88c-1.92-4.22-6.3-4.92-11.85-5.8-8.66-1.38-19.43-3.09-27-18.7-1.78-3.65,2.33-8.17,7.09-13.41,3.25-3.58,7.26-8,7.28-10.42-1.32-.55-5.92-.55-9-.55-7.93,0-11.79-.12-12.22-2.93-2.71-17.85-1-33.52.49-47.34,1.59-14.63,3-27.27-1.64-37.76-2.25-5.13,2.15-8.39,5.37-10.78,2.66-2,3.93-3.1,3.92-4.16a45.65,45.65,0,0,0-7,1.7c-6.09,1.79-8.33,2.31-9.55,1.15-1.63-1.55-3.64-3.38-5.77-5.31-9.72-8.85-23-21-26.62-29.82-3.16-7.78-3.45-20.69-3.3-33.49,0-2.47,3.08-3.42,8.92-5,2.2-.6,5.46-1.49,6.4-2.16a1.75,1.75,0,0,0-.48-1.24c-1.24-1.2-4.84-.71-7.74-.32-3.9.53-7.58,1-8.32-2.06-.56-2.33-2-6.11-3.59-10.49-6.27-16.91-16.75-45.21-2.4-53.69,2-1.21,4.7-1.23,7.89-.08,17.15,6.21,48.28,46,53.38,58.08.57,1.36-.18,3-4,10-1.12,2.08-2.74,5.09-3.73,7.24,1.65-1.28,3.89-3.2,5.71-4.77,7.57-6.52,9.67-8.08,11.29-7.16l3.07,1.72c14.18,8,31.83,17.85,37.26,30,4.48,10,3.64,25.83,2.89,39.78-.45,8.41-.87,16.35.23,20.18,1.84,6.4,7.22,14.81,13.46,24.55,8.85,13.82,19.86,31,24.49,49.07a1.94,1.94,0,0,1-.28,1.59c-.86,1.25-3.08,1.42-11.5,1.58-2.34,0-5.47.1-7.57.27,2.2,1.29,6.1,3,8.94,4.22,9.16,4,12.63,5.74,12.68,8.26a1.84,1.84,0,0,1-.63,1.45c-1.27,1.09-4.28.46-21.45-4.44-5.51-1.57-12.46-3.56-16.65-4.48,3.69,2.55,10.34,6.41,15.6,9.47,18.64,10.84,21.56,13,20.8,15.55-6.46,21.52-21.78,21.09-31.92,20.81a45.58,45.58,0,0,0-5.39,0c-8.12.82-15.06,9.89-15.13,10a1.44,1.44,0,0,1-1.15.59Zm21.92-13.82c9.72.27,23,.64,28.87-18.07-1.74-2.08-11.79-7.92-19.22-12.24-17.25-10-20-12-19.77-14.32a1.85,1.85,0,0,1,.73-1.29c1.36-1,4.9-.27,22.25,4.69,4.66,1.33,10.39,3,14.43,3.95-2.16-1.07-4.8-2.22-6.88-3.13-8.61-3.76-11.91-5.39-12.31-7.64a2,2,0,0,1,.35-1.51c.91-1.21,3.16-1.39,11.63-1.54,2.8-.05,6.78-.13,8.62-.39-4.69-17.07-15.22-33.51-23.72-46.8-6.38-10-11.88-18.56-13.85-25.43-1.26-4.39-.84-12.24-.36-21.32.69-12.88,1.54-28.91-2.6-38.19-5-11.2-22.17-20.82-36-28.56l-2.73-1.53c-1.39.58-5.6,4.2-8.43,6.64-7.23,6.22-8.92,7.47-10.41,6.58a2,2,0,0,1-.89-1.24c-.45-1.75,1.08-4.83,4.92-12a68.6,68.6,0,0,0,3.67-7.35c-5.27-11.86-35.46-50.23-51.48-56-2.38-.86-4.24-.91-5.54-.15-12,7.11-2.17,33.75,3.73,49.67,1.71,4.6,3.06,8.25,3.68,10.78.69.39,3.45,0,5.11-.21,3.86-.53,7.84-1.07,10.09,1.12a5.32,5.32,0,0,1,1.47,4.07c0,2.49-3.28,3.37-8.65,4.84-2.19.6-5.76,1.58-6.69,2.3-.14,12.31.15,24.64,3.06,31.79,3.32,8.17,16.32,20,25.81,28.65,2.06,1.88,4,3.65,5.63,5.18,1.07.08,4.62-1,7-1.66,6.47-1.9,9.37-2.65,10.29-.49,1.67,3.91-1.93,6.57-4.82,8.71-3.9,2.89-5.37,4.46-4.37,6.74,5,11.32,3.55,24.39,1.91,39.52-1.47,13.51-3.13,28.81-.56,46.06,1.29.62,6.29.62,9.35.61,7.68,0,11.42.11,11.91,2.77.73,4-3.53,8.71-8,13.68-2.92,3.22-7.34,8.08-6.58,9.65,6.9,14.17,16.43,15.69,24.84,17,5.16.82,10.07,1.6,13,5.62,2.6-2.93,8.65-8.8,15.79-9.52.82-.08,1.72-.11,2.67-.11S211.23,733.17,212.29,733.2Z" transform="translate(-85 -182.91)" style="fill:#97c4de"/><path d="M197.81,812.38l-.07-3.75c-.07-2.47-.16-6.09-.37-10.67-.41-9.17-1.28-22.23-2.88-37.83s-3.89-33.74-7-53.05-7-39.81-11.63-60.1-10.1-40.38-16.19-58.85c-3.06-9.23-6.24-18.07-9.57-26.31s-6.74-15.91-10.2-22.82S133,526,129.63,520.69a140.33,140.33,0,0,0-9.34-13.11c-1.38-1.75-2.7-3.22-3.84-4.51s-2.18-2.32-3-3.18l-2.6-2.52a.78.78,0,0,0-1.17.07,1,1,0,0,0,.06,1.26l0,0,2.53,2.5c.79.85,1.78,1.89,2.91,3.15s2.39,2.75,3.73,4.48a138.66,138.66,0,0,1,9.07,13c3.25,5.24,6.63,11.37,10,18.24s6.67,14.52,9.89,22.74,6.3,17,9.25,26.24c5.87,18.43,11.1,38.48,15.52,58.72s8.1,40.69,11,60,5,37.33,6.42,52.85,2.16,28.49,2.48,37.56c.17,4.54.22,8.09.26,10.51s0,3.75,0,3.75a2.5,2.5,0,1,0,5,0Z" transform="translate(-85 -182.91)" style="fill:#97c4de"/><path d="M224.06,817.58l.42-3.88L225,809l.78-6.25.47-3.69.59-4.05c.41-2.82.83-5.87,1.38-9.12s1.06-6.71,1.74-10.34l1-5.59,1.12-5.84c1.51-8,3.38-16.53,5.45-25.57S242,720,244.66,710.32s5.63-19.75,8.85-29.84,6.76-20.23,10.44-30.32,7.7-20,11.9-29.67,8.5-19.07,13-28c2.2-4.49,4.54-8.79,6.79-13,1.11-2.13,2.33-4.16,3.46-6.2s2.25-4.07,3.45-6c2.36-3.89,4.59-7.72,6.95-11.28l3.41-5.29,3.43-5c2.2-3.29,4.49-6.28,6.63-9.17l1.58-2.13c.53-.69,1.08-1.35,1.61-2l3.09-3.85,1.47-1.84c.49-.59,1-1.15,1.48-1.72l2.82-3.23c.91-1,1.75-2.05,2.62-3l2.48-2.6c1.58-1.63,2.94-3.15,4.22-4.35l3.24-3.08,2.69-2.56,0,0a1.11,1.11,0,0,0,.09-1.48.92.92,0,0,0-1.36-.1l-2.75,2.56-3.3,3.08c-1.3,1.21-2.69,2.73-4.3,4.36l-2.53,2.6c-.89.91-1.74,1.93-2.67,3l-2.88,3.24c-.49.56-1,1.12-1.51,1.72l-1.5,1.84-3.15,3.85c-.54.66-1.1,1.33-1.64,2L321.22,535c-2.18,2.89-4.52,5.89-6.77,9.18l-3.51,5-3.48,5.3c-2.41,3.56-4.68,7.4-7.1,11.29-1.22,1.94-2.33,4-3.53,6s-2.41,4.08-3.54,6.21c-2.3,4.24-4.7,8.55-7,13-4.64,8.91-9.05,18.34-13.36,28s-8.33,19.67-12.23,29.73S253.27,669,250,679.13s-6.41,20.14-9.16,29.93-5.23,19.3-7.47,28.36-4.12,17.69-5.71,25.7L226.45,769l-1.05,5.63c-.71,3.65-1.28,7.14-1.84,10.41s-1,6.35-1.47,9.19l-.63,4.09-.51,3.75-.85,6.33-.54,4.66-.45,3.88a2.67,2.67,0,0,0,2.16,3,2.54,2.54,0,0,0,2.78-2.34Z" transform="translate(-85 -182.91)" style="fill:#97c4de"/><path d="M249.58,793.06H167.9a2.28,2.28,0,0,0-2.19,2.37l2.73,5.58s1.84,58.78,15.48,58.78h49.63c13.47,0,15.48-58,15.48-58l2.73-6.33A2.28,2.28,0,0,0,249.58,793.06Z" transform="translate(-85 -182.91)" style="fill:#97c4de"/></g><path d="M1085.19,310.6a40.22,40.22,0,1,1,40.22-40.22A40.27,40.27,0,0,1,1085.19,310.6Z" transform="translate(-85 -182.91)" style="fill:#f7f6f1"/><path d="M1085.19,231.77a38.6,38.6,0,1,1-38.6,38.6,38.65,38.65,0,0,1,38.6-38.6Zm0-3.24A41.84,41.84,0,1,0,1127,270.38a41.84,41.84,0,0,0-41.84-41.84Z" transform="translate(-85 -182.91)" style="fill:#34a4ca"/><path d="M1104.52,256.5l4.21,12.86c2.45,7.48-5.76,16.87-18.32,21s-24.73,1.38-27.18-6.09L1059,271.39Z" transform="translate(-85 -182.91)" style="fill:#f7f6f1"/><path d="M1078.83,293.89c-8.47,0-15.2-3.3-17.12-9.14l-4.21-12.86a1.6,1.6,0,0,1,1-2L1104,255a1.6,1.6,0,0,1,2,1l4.21,12.86c1.36,4.17,0,8.89-3.85,13.3a35.21,35.21,0,0,1-15.49,9.7A39.14,39.14,0,0,1,1078.83,293.89ZM1061,272.41l3.71,11.35c2.13,6.52,13.66,8.84,25.16,5.07a32,32,0,0,0,14.08-8.76c3.08-3.52,4.22-7.15,3.22-10.21l-3.71-11.35Z" transform="translate(-85 -182.91)" style="fill:#34a4ca"/><ellipse cx="1081.77" cy="263.95" rx="23.94" ry="14.24" transform="translate(-113.45 166.56) rotate(-18.12)" style="fill:#f7f6f1"/><path d="M1074.62,281c-8.47,0-15.2-3.3-17.12-9.14-1.36-4.17,0-8.89,3.85-13.3a38,38,0,0,1,33.72-11c5.7,1.28,9.6,4.28,11,8.45s0,8.89-3.85,13.3a35.2,35.2,0,0,1-15.49,9.7A39.14,39.14,0,0,1,1074.62,281Zm14.2-30.94a35.67,35.67,0,0,0-11,1.84,32,32,0,0,0-14.08,8.76c-3.08,3.52-4.22,7.15-3.22,10.21,2.13,6.52,13.66,8.84,25.16,5.07a32,32,0,0,0,14.08-8.76c3.07-3.52,4.22-7.15,3.22-10.21h0c-1-3.06-4.06-5.31-8.63-6.33A25.5,25.5,0,0,0,1088.82,250.09Z" transform="translate(-85 -182.91)" style="fill:#34a4ca"/><path d="M1069.51,276.48a2.13,2.13,0,0,1-1.48-3.66l21.88-21.22a2.13,2.13,0,1,1,3,3.06L1071,275.87A2.12,2.12,0,0,1,1069.51,276.48Z" transform="translate(-85 -182.91)" style="fill:#34a4ca"/><rect x="499.7" y="905.6" width="17.04" height="17.04" transform="translate(915.55 1653.99) rotate(-179.01)" style="fill:#eaa883"/><path d="M529.67,932.68c-4.46.1-8.93-.94-13.33-1.61l-20.88-3.16-.18,0c0-.07-.1-.14-.13-.22-.83-1.95,2-8.75,2.56-10.94,0-.17,9.71,1.33,10.7,1.44a11.71,11.71,0,0,1,.48-3.87,2.06,2.06,0,0,1,.45-.89,2.27,2.27,0,0,1,1-.49l6.53-1.89c2.52-.73,5.53,6.06,7,7.54,3.23,3.35,9.49,5.76,9.63,11,.07,2.88-1.24,3-3.73,3.06Z" transform="translate(-85 -182.91)" style="fill:#0e3651"/><rect x="569.24" y="908.31" width="17.04" height="19.96" transform="translate(1070.53 1653.68) rotate(180)" style="fill:#eaa883"/><path d="M615,932.48H566.56a2.55,2.55,0,0,1-.14-.22c-.87-1.93,1.8-8.78,2.37-11a76.43,76.43,0,0,0,21.53-3.44,4,4,0,0,1,1.5-.27c1.66.14,2.35,2.11,3.26,3.5,2.09,3.21,6.38,4,10.19,4.33,2.48.23,11.15.9,11,4.84a2.94,2.94,0,0,1-1.09,2Z" transform="translate(-85 -182.91)" style="fill:#0e3651"/><path d="M546.63,591.29a101.75,101.75,0,0,1,12.32-25.92,10.57,10.57,0,0,1,9.81-6.07,112.83,112.83,0,0,1,50.93,7.16,13.79,13.79,0,0,1,4.71,2.64c3,2.9,3,7.65,2.77,11.83-2.47,45.5-8.1,91.15-14.88,136.39,0,0-28,127.07-23.94,192.08-5.5,1.42-23.59,2.61-23.59,2.61s-2.58-27.24-2.86-29.29c-2.91-20.88-5.46-41.88-8-62.81-1.79-14.59-2.14-29.73,2.67-43.62,4.38-12.65,5-26.35,4.46-39.62-1.52-36.79-4.41-73.79-7.21-110.67-.94-12.44-3.33-28.62,1.91-40.41,4.74-10.68,17.61-15.32,27.78-18.88Z" transform="translate(-85 -182.91)" style="fill:#053c5e"/><path d="M586.11,554.66c-1.11-1-2.84-.81-4.33-.54-14.35,2.69-29.11,5.53-41.37,13.47-24.46,15.83-24.25,44.92-20.64,70.26,5.23,36.62,10.56,73.34,14.52,110,.4,3.7,1,8.91,2,14.43l-.45-.08a84.84,84.84,0,0,1-9.72,18.35c-8.53,12-12.47,26.6-14.87,41.1-3.44,20.8-6.92,41.67-10,62.53-.3,2-4.27,24.28-2.8,24.84,0,0,15.37-.11,21,.08,5.9-25.9,16.55-50.78,27.57-74.86,8.15-17.81,18.41-34.56,26.49-52.41,6.53-14.42,7.84-29.7,12-44.62,5-17.71,6.78-37.08,8.46-55.33a468.59,468.59,0,0,0,1.31-67.8c-.62-11.57-.95-23.8-3.22-35.18-.69-3.44-2.18-6.24-3.13-9.53C587.93,565.59,588.94,557.28,586.11,554.66Z" transform="translate(-85 -182.91)" style="fill:#20587d"/><path d="M660.81,461.4c-.26-2.08-.44-4.18-.71-6.26-.7-5.44-1.62-10.86-2.78-16.22-1.69-7.78-4.07-16.91-8.26-23.79-3.39-5.56-6.61-11.31-10.14-16.82A71.14,71.14,0,0,0,630,386.66c-4.19-4.27-9.17-7.64-14.17-10.89-3.7-2.4-8.5-5.33-13-5.48-3.07-.1-6.11.58-9.17.57a62.35,62.35,0,0,1-19.45-3.71c-8.48-3-18.59,1.34-26.37,4.47-12.24,4.92-36.63,19.65-36.63,19.66-2.14,1.29-4,8.89-5,11.07-2.65,6.29-5.4,11.42-3.94,18.12A152,152,0,0,1,505,468.31c-1.24,12.22-5,26.42,0,38.11,4.49,10.66,14.5,13.49,25.09,15.34,0,0-11.88,54-13.07,58.78-1,3.85-2.36,9.11-.86,13,2.34,6.11,6.84,4.16,12.47,4,19.32-.38,38.65-.57,58-.7,9.9-.07,19.82-.27,29.73-.17,12.22.12,14.59-2,14.2-13.82-.32-9.7,1.08-19.44,3-28.92,1.86-9.3,1.48-18.76,3.12-28.15a2.33,2.33,0,0,1,.58-1.39,2.17,2.17,0,0,1,1.56-.38c3.55.14,7.42,1.66,10.45-.19a9.3,9.3,0,0,0,2.71-2.89C664.07,502.82,662.79,481.89,660.81,461.4Z" transform="translate(-85 -182.91)" style="fill:#34a4ca"/><path d="M665.33,437.38c-3.15-19.7-8.64-39.41-17.68-57.18-2.66-5.24-19.58-35.55-27-20.12-1.17,2.43-1.36,5.22-1.52,7.93-.81,13.25.3,26.55,2.1,39.68,1.72,12.53,2.65,24.91,4.71,37.42,1.48,9,3,18.27,5.44,27.06,2.21,7.89,3.79,15.9,7.89,23.11,3.11,5.47,11,12.46,17.86,10.73s8.4-12,9.72-18.22C670.41,471.18,668,453.95,665.33,437.38Z" transform="translate(-85 -182.91)" style="fill:#c0dced"/><path d="M613.1,383.29a4.07,4.07,0,0,0,.4-2.06c-.3-3.76-3.19-5.55-5.91-7.6-3.25-2.45-7.23-5.69-9.69-9a18.76,18.76,0,0,1-7.19,5.42,19.44,19.44,0,0,1-10,.77,23.23,23.23,0,0,1-10.32-4.5c-2.2-1.68-4.7-3.83-7.74-3.21a7,7,0,0,0-3,1.88,8.28,8.28,0,0,0-2.89,3.83,7.07,7.07,0,0,0,.07,3.05c.89,4.65,3.76,8.66,7.21,11.79a29.66,29.66,0,0,0,11.94,6.47,48.32,48.32,0,0,0,22.46,1,33.09,33.09,0,0,0,8.89-2.86C609.19,387.39,612,385.56,613.1,383.29Z" transform="translate(-85 -182.91)" style="fill:#fff"/><path d="M605.24,361.81a12.24,12.24,0,0,1,.83-6.55c1.45-3.2,3.26-5.73,2.92-9.48-.56-6.32-2.55-12.27-6.7-17.17a28.38,28.38,0,0,0-17.7-9.67c-4.06-.54-8.45,0-11.43,3-3.48,3.53-4.31,6.54-4.32,11.55,0,8.33-2.13,16-5.32,23.73-1.69,4.08-4.48,7.44-7.08,11,0,0,4.16,6.66,7.16,9.35,6,5.41,14.43,8.92,24.26,9.69a42.12,42.12,0,0,0,25.78-6c.84-.53-6.79-12.6-7.75-16.21A23.7,23.7,0,0,1,605.24,361.81Z" transform="translate(-85 -182.91)" style="fill:#eaa883"/><path d="M615,932.48H566.56a2.55,2.55,0,0,1-.14-.22c-.87-1.93,1.8-8.78,2.37-11a76.43,76.43,0,0,0,21.53-3.44,4,4,0,0,1,1.5-.27c1.66.14,2.35,2.11,3.26,3.5,2.09,3.21,6.38,4,10.19,4.33,2.48.23,11.15.9,11,4.84a2.94,2.94,0,0,1-1.09,2Z" transform="translate(-85 -182.91)" style="fill:#0e3651"/><path d="M605.11,319.35l-.29,0c-4-.28-5.4,3.14-8.76,4.22a15.2,15.2,0,0,1-16.44-4.87c-1.64-2-1.51-3.16-4.37-2.81a8.6,8.6,0,0,0-5.62,3.35c-1.54,1.81-3.22,3.53-4.78,5.33-.93-6.7-4.17-13-4.25-19.9,0-2.22,6.43-20.85,11.2-14.39a9.28,9.28,0,0,1-.78-8.81,17.35,17.35,0,0,1,5.79-7.06c16-12.28,53.43-2.78,54.67,20.44.17,3.14-.77,6.22-1.7,9.23l-2.79,9a37.19,37.19,0,0,1-4,9.59c-1.71,2.61-12.86,10.69-13.61,3.23a15.76,15.76,0,0,0-.35-3.62A4.76,4.76,0,0,0,605.11,319.35Z" transform="translate(-85 -182.91)" style="fill:#282751"/><path d="M609.11,308.67c1.85.87,7.34,2.9,7.34,2.9a5.51,5.51,0,0,1,.24,1.87c-1.68,11.1-3.44,21.3-8.48,31.56-1.7,3.46-3.76,7-7,9-5.66,3.49-13,1.58-19.11-1.14a21.85,21.85,0,0,1-7.39-4.79c-2.36-2.58-3.53-6-4.63-9.31-2.22-6.64-4.33-26.2,2.79-30.9a6.11,6.11,0,0,1,3.07-1.08c5.15-.21,7.56,5.93,5,10a7.12,7.12,0,0,0,5.3-1.25c4.5-3.28,5.49-10.09,5.06-15.17-.43.24.05.87.5,1.08,5.31,2.44,10.67,4.14,16,6.67Z" transform="translate(-85 -182.91)" style="fill:#fab68a"/><path d="M638.25,520.23l-.16-21.09-6.75-1.57-5.21,23S638.22,520.33,638.25,520.23Z" transform="translate(-85 -182.91)" style="fill:#fff"/><path d="M612.94,343.62a8.81,8.81,0,0,0,1.45,5.55c2.64,4.56,9.49,12.49,15.44,7.28,5.48-4.81,4.15-13,5.11-19.25,1.26-8.33.5-11.23-4.08-18.36-1.59-2.47-4.15-10.95-8.78-9.17-5,1.91-2.84,17.74-3.72,21.81C617.15,337,613.4,339.73,612.94,343.62Z" transform="translate(-85 -182.91)" style="fill:#fab68a"/><path d="M641,370.59A117.29,117.29,0,0,0,638.88,359l-20.62-3.21s.29,9.48.79,10.92C620,369.51,635.55,370.14,641,370.59Z" transform="translate(-85 -182.91)" style="fill:#fff"/><path d="M515.52,588.4a12.32,12.32,0,0,0,.62,5.16c2.34,6.11,6.84,4.16,12.47,4,19.32-.38,38.65-.57,58-.7,9.9-.07,19.82-.27,29.73-.17,8.27.08,12-.88,13.47-5.16C630.09,590.67,515.52,588.4,515.52,588.4Z" transform="translate(-85 -182.91)" style="fill:#fff"/><path d="M630.33,504c0-1.08,0-2.15-.05-3.18a2.17,2.17,0,0,0-1.85-2.51c-25.26-9.67-60.18-13.91-86.84-9.38,1-10.29-1.11-20.38-1.94-30.59a217.46,217.46,0,0,0-4.5-31.63c-1.81-7.81-4.28-17.41-8.46-24.31s-16.08-15.82-22.1-6.51c-5.29,8.19-7.55,18-8,27.77-.36,8,.86,15.74,1.41,23.68.39,5.67-.29,11.23.15,17,1.1,14.13,2.47,28.45,6.89,42,6.67,20.43,37.16,15.83,53.32,16.29q20.54.59,41.08.95c5.53.1,23.32-2,28.84-2.69.95-.12-2.82-1-2-1.46a5.67,5.67,0,0,0,2.06-2.35C630.41,513.23,630.42,508.5,630.33,504Z" transform="translate(-85 -182.91)" style="fill:#c0dced"/><path d="M649.51,502.05a15.94,15.94,0,0,1-8.68-5.31c-.74-.95-3.48.45-4.19,1.35-1.24,1.54-.43,4.61-.54,6.42q-.22,3.6-.36,7.21a6.71,6.71,0,0,0,.47,3.41,5.7,5.7,0,0,0,2.16,2c4.33,2.68,9.16,5,14.28,5.55,4.43.48,8.88-2.66,12.36-5.27,3.13-2.36,7.65-7.14,6.57-11.46a3.84,3.84,0,0,0-3.05-3c.36,0,1.12-2.33,1.18-2.72a5.51,5.51,0,0,0-.65-3.33,4.27,4.27,0,0,0-2.08.57c-4.46,2.09-9.39,5.72-14.43,5.13A22.56,22.56,0,0,1,649.51,502.05Z" transform="translate(-85 -182.91)" style="fill:#fab68a"/><path d="M639.14,307.74a.47.47,0,0,0,0-.43l-1.11.42c-.28-.72-.47-1.25,15.17-8.3,7.49-3.38,15.13-6.66,15.2-6.69l.47,1.09C657.94,298.53,640.17,306.47,639.14,307.74Z" transform="translate(-85 -182.91)" style="fill:#20587d"/><rect x="642.35" y="312.46" width="25.75" height="1.19" transform="matrix(0.98, -0.18, 0.18, 0.98, -131.48, -56.75)" style="fill:#20587d"/><rect x="634.03" y="290.71" width="22.62" height="1.19" transform="translate(-131.8 257.62) rotate(-36.46)" style="fill:#20587d"/></g></g></svg>