<svg xmlns="http://www.w3.org/2000/svg" viewBox="0 0 2976.26 2828.45"><defs><style>.cls-1{fill:#7bb07c;}.cls-2{fill:#fdfefe;}.cls-3{fill:none;}.cls-4{fill:#080a00;}.cls-5{fill:#ce6a20;}.cls-6{fill:#efefef;}.cls-7{fill:#0e4665;}.cls-8{fill:#88bfd1;}.cls-9{fill:#d1b699;}.cls-10{fill:#ebd0ad;}.cls-11{fill:#dcdfe5;}.cls-12{fill:#4c5b78;}.cls-13{fill:#cad2ce;}.cls-14{fill:#dcc19f;}.cls-15{fill:#3c2d19;}.cls-16{fill:#38606b;}.cls-17{fill:#fff;}.cls-18{fill:#384a53;}.cls-19{fill:#383736;}.cls-20{fill:#bbb9b9;}.cls-21{fill:#2e2d27;}.cls-22{fill:#4e9e4f;}.cls-23{fill:#3d5154;}</style></defs><title>Recurso 1</title><g id="Capa_2" data-name="Capa 2"><g id="Layer_1" data-name="Layer 1"><path class="cls-1" d="M1368.17,2060.22l.06-16c.94-17.09,1.91-35.46,2.85-54.79l-150.64,289.06A136.76,136.76,0,0,1,1122.9,2350l-366,6.94L677,2371.26l-124.66,33.18c210.68,214.79,489.35,362.64,801.18,408.71l3-363.1Z"/><path class="cls-1" d="M2976.26,1414.22C2976.26,633.17,2343.09,0,1562,0S147.82,633.17,147.82,1414.22c0,176.66,32.4,345.75,91.56,501.67a136.71,136.71,0,0,1,240.3-96.52q16.36,64,38.18,125.75l26.74,229,70.1-12.35,394.36-69.49,203.85-391.17A162.7,162.7,0,0,1,1371,1499.91c.88,0,1.75.05,2.63.07,0-.27,0-.55-.06-.82h137v-.05a271.7,271.7,0,0,0,109.11-28.76c.2.28.42.55.63.85l-16.08,9.5-65.16,267.23,89.4,22.35L1568.92,1882l250,494.58,46.47,68.3,59,117.23.24-6.19,26-74.14L2253.85,1882l-59.59-111.74,89.4-22.35-65.16-267.23-16.08-9.5c.2-.29.42-.57.64-.85a271.63,271.63,0,0,0,109.1,28.76v.05H2467s79.67-1.37,104.67,23.77l-102.75,381-.22-.14v.93l-.12.46.13.33c.42,128.68,3.74,272.54,12.35,421.8l-3.11-13.71,2.66,175.95C2783.94,2230.18,2976.26,1844.67,2976.26,1414.22Z"/><path class="cls-2" d="M2481,2327.33c-8.61-149.25-11.93-293.12-12.35-421.8l-.12-.33.12-.46v-.93l.22.14,102.75-381c-25-25.14-104.67-23.77-104.67-23.77h-154.8v-.05a271.63,271.63,0,0,1-109.1-28.76c-.22.28-.43.55-.64.85l16.08,9.5,65.16,267.23-89.4,22.35L2253.85,1882l-303.21,599.78-26,74.14-.24,6.19,17.78,35.32L1919,2783a1410.44,1410.44,0,0,0,561.6-293.44l-2.66-175.95Z"/><path class="cls-2" d="M240.07,1924.22l49.69,425.61a136.75,136.75,0,0,0,54.15,93.81c23.77,17.7,58.19-11.22,87.41-11.22a136.69,136.69,0,0,0,23.73-2.07l97.31-25.9a1415.18,1415.18,0,0,1-313-488.55C239.54,1918.66,239.75,1921.43,240.07,1924.22Z"/><path class="cls-2" d="M1915.71,2783.86l8.71-221.75-59-117.23-46.47-68.3-250-494.58,59.59-111.74-89.4-22.35,65.16-267.23,16.08-9.5c-.21-.29-.43-.57-.63-.85a271.7,271.7,0,0,1-109.11,28.76v.05h-137c0,.27,0,.55.06.82-.87,0-1.74-.07-2.63-.07a162.7,162.7,0,0,0-158.08,201.23l-203.85,391.17L614.7,2161.8l-70.1,12.35-26.74-229q-21.79-61.67-38.18-125.75a136.71,136.71,0,0,0-240.3,96.52,1415.18,1415.18,0,0,0,313,488.55L677,2371.26l79.84-14.37,366-6.94a136.76,136.76,0,0,0,97.54-71.47l150.64-289.06c-.94,19.34-1.91,37.7-2.85,54.79l-.06,16-11.6,389.84-3,363.1a1426.6,1426.6,0,0,0,562.16-29.29Z"/><path class="cls-2" d="M1919,2783l23.25-185.57-17.78-35.32-8.71,221.75Z"/><path class="cls-3" d="M1908.34,2619.19h0Z"/><path class="cls-4" d="M2249,1484.73c-63.57-87.38-172.59-131.69-324-131.69-171.56,0-292.38,45.61-359.14,135.56l-.11.16c13-3.59,38.87-12,70.61-29,65.06-50.7,161.76-76.34,288.64-76.34,110.63,0,196.43,24.64,256.06,73.36,21,10.49,52.33,23.28,69.53,30.15C2250,1486.21,2249.49,1485.46,2249,1484.73Z"/><path class="cls-3" d="M614.7,2161.8a1473.08,1473.08,0,0,1-96.84-216.67l26.74,229Z"/><path class="cls-5" d="M1908.22,2619.19h0Z"/><path class="cls-2" d="M511.72,1892.51a136,136,0,0,0-32-73.13q16.36,64,38.18,125.75Z"/><path class="cls-3" d="M1908.22,2619.19h0Z"/><polygon class="cls-6" points="1924.67 2555.92 1924.67 2552.09 1912.22 2552.09 1912.22 2557.78 1918.62 2573.2 1924.67 2555.92"/><path class="cls-6" d="M1918.62,2573.2l-6.39-15.42v9.4l2.41,0c3.35,0,6.69,0,10-.06v-11.21Z"/><path class="cls-3" d="M2468.65,1904.75l.22-.79-.22-.14Z"/><path class="cls-3" d="M1908.34,2619.19h0Z"/><path class="cls-7" d="M2468.66,1905.54c0-.26,0-.53,0-.79l-.12.46Z"/><path class="cls-8" d="M1908.34,2619.19h0Z"/><path class="cls-9" d="M2086.15,1313.56l.14.11v-54.92H1750.67v79.34h-1.12a274.27,274.27,0,0,1-58.15,83.13C1953.39,1446.32,2086.15,1313.56,2086.15,1313.56Z"/><path class="cls-10" d="M2086.29,1364.83v-51.16l-.14-.11s-132.76,132.75-394.76,107.67a274.41,274.41,0,0,1-68.53,49.11A355.19,355.19,0,0,0,1750.67,1582v73.8h.42v5h319v-5h16.2V1575a355.56,355.56,0,0,0,115.49-105.65A275.05,275.05,0,0,1,2086.29,1364.83Z"/><path class="cls-11" d="M2149,1526.36a351.74,351.74,0,0,1-464.42,14l233.88,1033.15Z"/><polygon class="cls-12" points="1978.42 2403.74 2031.24 2274.47 1968.4 1686.95 1918.76 1672.47 1918.76 1671.85 1917.68 1672.16 1916.6 1671.85 1916.6 1672.47 1866.95 1686.95 1799.79 2313.39 1879.72 2464.91 1917.95 2571.95 1930.46 2549.7 1961.73 2461.43 1978.42 2403.74"/><polygon class="cls-12" points="1993.65 1590.48 1915.95 1579.83 1838.24 1590.48 1823.13 1633.64 1859.83 1691.92 1915.95 1694.09 1972.08 1691.92 2008.76 1633.64 1993.65 1590.48"/><polygon class="cls-13" points="1663.21 1445.85 1912.41 1579.83 1735.57 1756.68 1604.27 1480.69 1663.21 1445.85"/><polygon class="cls-13" points="2162.21 1445.85 1913.01 1579.83 2089.85 1756.68 2217.93 1483.52 2162.21 1445.85"/><path class="cls-10" d="M2345.47,728.64c0-302.45-181.84-397.68-418.2-397.68-2.91,0-5.8,0-8.7.08V1368.81C2154.44,1367.85,2345.47,1030.67,2345.47,728.64Z"/><path class="cls-14" d="M1907.79,331.31c-227.76,7.42-418.12,103.23-418.12,397.33,0,298.29,186.36,633.21,418.12,639.87,3.29.1,6.53.33,9.78.33l1,0V331Q1913.17,331.14,1907.79,331.31Z"/><path class="cls-15" d="M2373.95,690.39c-10.23-135.26-65.37-233.1-65.37-233.1,36.88-164.58-117-210.42-279.16-214.38-150-3.62-307,28.49-327.33,35.89-22,8-52.91,10.79-77.4,11.62-22.49.74-39.64-.1-39.64-.1.92,3.71,4.53,12.38,8.07,20.33,3.67,8.45,7.26,16.09,7.26,16.09-4.31.45-12.16-1.71-21.59-5.19-32.83-12-85.89-40.83-85.89-40.83-5.73,44.15,4.83,83.51,16.82,111.81s25.41,45.56,25.41,45.56c-9.63,1.93-36.48-9.59-36.48-9.59,7.71,36.46,15.4,53.75,15.4,53.75-57.74,42.13-71.12,163.78-72.18,258.95l99,115.56,34.22-83c.73.11,1.42.12,2.17.22,24.16-87.33,44.28-218.87,44.28-218.87,258.2,165.77,495.79,33.32,536.84,7.88,7.79-8.54,11.91-13.67,11.91-13.67,14.64,165.88,126.8,278.07,126.8,278.07-9.36-70.44,71.45-125.68,77.47-129.69l.56-.38C2374.77,695,2374.36,692.77,2373.95,690.39Z"/><path class="cls-10" d="M2289.42,799.19c-16.15,61.71-4.67,118.24,25.58,126.2s68-35.55,84.16-97.29,4.66-118.21-25.6-126.2S2305.62,737.47,2289.42,799.19Z"/><path class="cls-14" d="M1534.31,800.82c16.79,60.31,8,115.45-19.54,123.1s-63.37-35-80.12-95.35-8-115.46,19.53-123.13S1517.63,740.47,1534.31,800.82Z"/><path class="cls-3" d="M1911.38,2559.42l39.25-77.64c-29.15-30.69-90.63,32.65-90.63,32.65v15.21l33.4-5.78Z"/><polygon class="cls-6" points="1918.48 2573.47 1684.59 1540.32 1663.21 1445.85 1620.35 1471.19 1604.27 1480.69 1539.11 1747.91 1628.51 1770.26 1568.92 1882 1918.48 2573.47"/><polygon class="cls-6" points="2290.84 1747.91 2225.69 1480.69 2224.98 1480.26 2165.21 1448.28 2149.01 1526.36 1918.48 2573.47 2261.05 1882 2201.45 1770.26 2290.84 1747.91"/><rect class="cls-16" x="160.77" y="988.02" width="1098.94" height="1391.98" transform="translate(-319.22 173.86) rotate(-11.41)"/><rect class="cls-17" x="218.61" y="1061.27" width="983.27" height="1245.46" transform="translate(-319.22 173.87) rotate(-11.41)"/><rect class="cls-18" x="256.64" y="1462.51" width="73.27" height="73.25" transform="translate(-290.82 87.66) rotate(-11.41)"/><rect class="cls-18" x="394.84" y="1380.59" width="608.36" height="73.25" transform="translate(-266.64 166.36) rotate(-11.41)"/><rect class="cls-18" x="284.18" y="1598.92" width="73.25" height="73.25" transform="translate(-317.56 95.93) rotate(-11.42)"/><rect class="cls-18" x="423.14" y="1524.59" width="531.66" height="73.25" transform="translate(-295.34 167.23) rotate(-11.41)"/><rect class="cls-18" x="311.72" y="1735.32" width="73.27" height="73.25" transform="translate(-343.85 104.01) rotate(-11.42)"/><rect class="cls-18" x="451.18" y="1666" width="481.12" height="73.25" transform="translate(-323.27 170.57) rotate(-11.41)"/><rect class="cls-18" x="339.26" y="1871.74" width="73.27" height="73.25" transform="translate(-370.27 112.15) rotate(-11.42)"/><rect class="cls-18" x="477.31" y="1788.28" width="623.94" height="73.25" transform="translate(-345.52 192.28) rotate(-11.41)"/><polygon class="cls-18" points="446.59 2073.43 374.78 2087.92 360.28 2016.13 432.1 2001.62 446.59 2073.43"/><rect class="cls-18" x="504.85" y="1924.69" width="623.94" height="73.25" transform="translate(-371.97 200.43) rotate(-11.41)"/><path class="cls-14" d="M71.8,1744.44a56.91,56.91,0,0,0,8.09-.58l157.17-22.45a56.7,56.7,0,1,0-16-112.26L63.85,1631.6a56.7,56.7,0,0,0,7.95,112.84Z"/><path class="cls-14" d="M63.74,1867.39l154-19.24a56.7,56.7,0,0,0-14.06-112.53l-154,19.25a56.7,56.7,0,1,0,14.06,112.52Z"/><path class="cls-14" d="M250.55,1960.2a56.7,56.7,0,0,0-20.9-111.46l-154,28.86a56.7,56.7,0,1,0,20.9,111.45Z"/><path class="cls-14" d="M324.77,2005.14a50.75,50.75,0,0,0-58.43-41.75l-137.89,23a50.79,50.79,0,0,0,8.29,100.88,49.9,49.9,0,0,0,8.41-.71l137.89-23A50.77,50.77,0,0,0,324.77,2005.14Z"/><path class="cls-2" d="M2641.3,1600.85c38.53,81.6,14.81,173.7-53,205.71s-154-8.18-192.52-89.79-14.82-173.7,53-205.71S2602.76,1519.25,2641.3,1600.85Z"/><circle class="cls-19" cx="1892.82" cy="2319.57" r="18.85"/><ellipse class="cls-19" cx="1950.22" cy="2325.24" rx="18.85" ry="18.86"/><path class="cls-6" d="M2473.5,2350.34c-81.1-56.56-247.88-85-398.79-93.08l-73.46,149.92,477.42,22.48Z"/><path class="cls-4" d="M1508.6,1686c1.12,57.47,13.57,99.21,14.1,101l29.11-8.8c-.47-1.56-46.07-157.8,38.54-271.6a242.77,242.77,0,0,1,46-46.75c-31.74,17-57.6,25.38-70.61,29C1526.85,1541.17,1507.12,1609.36,1508.6,1686Z"/><polygon class="cls-4" points="2256.35 1880.49 2270.81 1885.16 2256.35 1880.48 2256.35 1880.49"/><path class="cls-4" d="M2250.53,1487c-17.2-6.86-48.49-19.66-69.53-30.15a245.3,245.3,0,0,1,43.3,45.72c54.72,75.15,60.69,173.33,56.06,242.46-5.1,76.07-23.79,134.8-24,135.49l14.46,4.68,14.46,4.68c.81-2.5,19.93-62.31,25.37-142C2317.84,1642.38,2297,1552.26,2250.53,1487Z"/><circle class="cls-6" cx="2273.54" cy="1885.09" r="92.64"/><path class="cls-4" d="M2273.54,1984.38a99.29,99.29,0,1,1,99.3-99.29A99.4,99.4,0,0,1,2273.54,1984.38Zm0-185.28a86,86,0,1,0,86,86A86.09,86.09,0,0,0,2273.54,1799.1Z"/><circle class="cls-20" cx="2273.54" cy="1885.09" r="66.99"/><path class="cls-20" d="M1542.69,2385.93c-73.85-3.93-82.62-51.37-83-53.38l-49.61-296.68,22.53-3.77,49.61,296.68c.22,1.12,6.94,31.43,61.63,34.33Z"/><path class="cls-20" d="M1713.72,2342.91c68.56-27.73,61.41-75.45,61.08-77.46l-49.6-296.68-22.53,3.77,49.6,296.68c.15,1.12,3.67,32-47.11,52.51Z"/><path class="cls-21" d="M1562,2349.53c21.69,4.31,37,19.18,34.23,33.22s-22.64,21.93-44.34,17.61-37-19.18-34.24-33.22S1540.36,2345.22,1562,2349.53Z"/><path class="cls-21" d="M1683.41,2329.24c-19.11,11.13-28.77,30.19-21.56,42.56s28.54,13.37,47.65,2.23,28.77-30.19,21.56-42.56S1702.52,2318.1,1683.41,2329.24Z"/><path class="cls-21" d="M1403.91,2044.13c-.44-2.63-10.67-65.11-2.37-131.78,11.61-93.29,54-148.66,122.51-160.12,162.49-27.17,206.49,224.46,208.28,235.19l-33.79,5.66c-.38-2.29-40-228.6-168.84-207.06-52.79,8.83-84.47,52.75-94.16,130.54-7.68,61.78,2.06,121.32,2.16,121.91Z"/><path class="cls-22" d="M606.67,1137.2a108.84,108.84,0,1,0,127,86.93A108.84,108.84,0,0,0,606.67,1137.2Z"/><polygon class="cls-17" points="673.84 1202.22 656.77 1191.1 612.73 1265.12 584.13 1246.79 573.81 1264.36 619.27 1293.68 619.82 1292.74 620.02 1292.88 673.84 1202.22"/><path class="cls-23" d="M763.07,925.92,566.72,971.72l-198.76,34s22.66,62.89,2.4,129.62L583,1092.37l15.41-3.11,216.14-43.64C770,992,763.07,925.92,763.07,925.92Z"/><path class="cls-18" d="M816.87,1040.74a23.52,23.52,0,0,1-18.39,27.72L390.15,1150.9a23.55,23.55,0,0,1-27.75-18.4h0a23.56,23.56,0,0,1,18.43-27.73l408.33-82.44a23.53,23.53,0,0,1,27.71,18.41Z"/><path class="cls-18" d="M771,926.59a21.24,21.24,0,0,1-16.62,25l-368.86,74.48a21.27,21.27,0,0,1-25.05-16.62h0a21.27,21.27,0,0,1,16.64-25.05l368.85-74.48a21.26,21.26,0,0,1,25,16.64Z"/><path class="cls-18" d="M677,914.27a121.14,121.14,0,1,0-237.5,47.95l7.07,35,237.5-47.95ZM559.85,945.88a47.05,47.05,0,1,1,36.8-55.42A47.07,47.07,0,0,1,559.85,945.88Z"/><path class="cls-14" d="M1718.76,2046.35s16.93,19,63.25,31.64l-14,254.09s-42.1-8.22-82.81,10Z"/><path class="cls-17" d="M1875.33,2043.27l-98.22-4.77a24.65,24.65,0,0,0-25.82,23.42L1745,2191l-6.27,129.1a24.64,24.64,0,0,0,23.42,25.81l98.22,4.78a24.65,24.65,0,0,0,25.8-23.43l6.27-129.1,6.27-129.12A24.64,24.64,0,0,0,1875.33,2043.27Z"/><path class="cls-14" d="M1394.85,2298.46c1-21,18.44-37,39.08-37.4a3.25,3.25,0,0,0-.15-.54l-37-1.8a39.79,39.79,0,0,1,3.86-79.49l-39.74-1.93a39.78,39.78,0,1,1,3.86-79.47l-159-7.72a39.78,39.78,0,1,1,3.86-79.47l25.38,1.23,213.06,10.36,28.72,1.4c4.85.23,9.37-4,11-8.59a11.88,11.88,0,0,0-3.81-13.17c-36.71-31.11-74.48-31.08-72.43-73.23a27.58,27.58,0,0,1,42.15-22.15L1715.64,2044a19.9,19.9,0,0,1,9.35,17.88c-1.69,34.77-7.65,157.4-11.28,232.14a59.66,59.66,0,0,1-62.5,56.71l-218.56-10.62A39.87,39.87,0,0,1,1394.85,2298.46Z"/><path class="cls-2" d="M2718.09,2414.24c-2.4,0-4.79-.05-7.2-.15l-925.84-38.58L1799.41,2031l703.78,55.47-151.47-358.74L2647.58,1615l223.67,547.71a172.4,172.4,0,0,1-153.16,251.49Z"/></g></g></svg>