<?xml version="1.0" encoding="utf-8"?>
<!-- Generator: Adobe Illustrator 21.1.0, SVG Export Plug-In . SVG Version: 6.00 Build 0)  -->
<svg version="1.2" baseProfile="tiny" id="Layer_1" xmlns="http://www.w3.org/2000/svg" xmlns:xlink="http://www.w3.org/1999/xlink"
	 x="0px" y="0px" viewBox="0 0 5000 5000" overflow="visible" xml:space="preserve">
<g>
	<path fill="#439645" stroke="#439645" stroke-miterlimit="10" d="M534,2556.5c0,0,0.2-12.6,0.5-37.1c0.1-6.1,0-13,0.4-20.6
		c0.3-7.6,0.6-15.9,1-24.9c0.4-9,0.6-18.8,1.3-29.2c0.7-10.4,1.4-21.6,2.1-33.4c3.5-47.2,8.9-105.5,19.6-173.4
		c10.6-67.9,26.4-145.4,49.9-230.7c1.5-5.3,2.9-10.7,4.4-16.1c1.6-5.4,3.2-10.8,4.8-16.2c3.3-10.9,6.6-21.9,9.9-33
		c7.3-22.1,14.3-44.9,22.7-67.9c7.9-23.1,17-46.4,26.1-70.3c9.7-23.7,19.3-47.9,30.2-72.3c42.6-97.7,96.9-199.9,164.6-302.8
		c67.6-102.9,149-206.4,245.3-305.4c96.3-98.9,207.5-193.6,333.6-277.7c63-42,129.7-81.5,199.7-117.7c70-36.3,143.6-68.7,220-97.5
		c76.4-28.9,156-53.2,238-72.9c20.4-5.2,41.2-9.4,61.9-14c10.3-2.4,20.8-4.2,31.3-6.2c10.5-2,20.9-4.1,31.5-5.9
		c10.6-1.7,21.1-3.5,31.7-5.2l15.9-2.6l16-2.2c10.7-1.5,21.4-3,32.1-4.5c10.7-1.4,21.5-2.5,32.3-3.7c21.5-2.7,43.2-4.3,65-6.3
		c10.9-1.1,21.8-1.6,32.7-2.3c10.9-0.6,21.9-1.4,32.9-2c11-0.4,22-0.8,33.1-1.2l16.6-0.6l16.5-0.2c11-0.1,22-0.3,33.1-0.4
		c11.3,0,22.3,0.3,33.4,0.4c22.3,0.1,44.6,1.2,66.9,2c11.2,0.3,22.4,1.3,33.6,1.9c11.2,0.8,22.4,1.3,33.6,2.3
		c22.4,2.1,45,3.8,67.4,6.6c11.2,1.3,22.5,2.5,33.8,4c11.2,1.6,22.5,3.2,33.8,4.8c11.3,1.5,22.5,3.4,33.8,5.3
		c11.2,1.9,22.5,3.7,33.8,5.7c22.5,4.4,45.1,8.4,67.5,13.5c45.1,9.4,89.8,21.2,134.5,33.8c22.3,6.7,44.7,13.1,66.8,20.6
		c22.3,7,44.3,15,66.4,22.8c11,4,22,8.3,33,12.4l16.5,6.3c5.5,2.1,10.9,4.4,16.4,6.6c10.9,4.5,21.8,8.9,32.7,13.4
		c10.8,4.8,21.6,9.5,32.5,14.2c172.9,76.9,337.9,179.4,486.9,304.7c149,125.2,282,273.3,391.8,438.8
		c109.8,165.4,196.3,348.2,254.2,540.6c58.1,192.3,87.4,394,87.2,595.6c-0.2,201.6-30,403.1-88.4,595.2
		c-58.3,192.1-145,374.6-255.1,539.6c-110,165.1-243.1,312.6-392.1,437.3c-149,124.8-313.9,226.7-486.5,303.1
		c-10.8,4.7-21.6,9.4-32.4,14.1c-10.9,4.4-21.8,8.9-32.7,13.3c-5.4,2.2-10.9,4.5-16.3,6.6l-16.5,6.2c-11,4.1-21.9,8.4-32.9,12.3
		c-22.1,7.7-44,15.7-66.3,22.6c-22.1,7.4-44.4,13.8-66.6,20.4c-44.6,12.5-89.3,24.1-134.2,33.5c-22.4,5.1-44.9,9-67.3,13.4
		c-11.2,2-22.5,3.7-33.7,5.6c-11.2,1.9-22.4,3.8-33.7,5.2c-11.2,1.6-22.5,3.1-33.7,4.7c-11.2,1.5-22.5,2.6-33.7,3.9
		c-22.4,2.8-44.9,4.4-67.2,6.4c-11.2,1-22.4,1.5-33.6,2.3c-11.2,0.6-22.3,1.6-33.5,1.9c-22.3,0.8-44.6,1.9-66.7,1.9
		c-11.1,0.1-22.1,0.3-33.2,0.3c-11.1-0.1-22.1-0.3-33.1-0.5l-16.5-0.2l-16.5-0.6c-11-0.4-21.9-0.9-32.9-1.3
		c-10.9-0.5-21.8-1.4-32.7-2c-10.9-0.8-21.8-1.3-32.6-2.3c-21.7-2-43.3-3.7-64.8-6.4c-10.7-1.3-21.5-2.4-32.2-3.8
		c-10.7-1.5-21.3-3-31.9-4.5l-15.9-2.2l-15.8-2.6c-10.5-1.8-21.1-3.5-31.6-5.3c-10.5-1.9-20.9-4-31.4-6c-10.4-2.1-20.9-3.9-31.2-6.2
		c-20.7-4.6-41.3-8.8-61.7-14c-81.6-19.9-160.8-44.3-236.9-73.1c-76.1-28.8-149.3-61.3-218.9-97.5
		c-69.6-36.2-135.9-75.6-198.6-117.6c-125.4-84-235.8-178.5-331.5-277.1c-95.7-98.7-176.4-201.9-243.5-304.4
		C813.4,3576,759.7,3474.3,717.4,3377c-10.8-24.2-20.3-48.4-29.9-71.9c-9-23.8-18-46.9-25.8-70c-8.3-22.8-15.2-45.5-22.5-67.5
		c-3.3-11.1-6.6-22-9.8-32.9c-1.6-5.4-3.2-10.8-4.8-16.1c-1.5-5.4-2.9-10.7-4.4-16c-23.2-84.8-38.7-161.9-49.1-229.4
		c-10.4-67.5-15.7-125.4-19.1-172.4c-0.7-11.8-1.4-22.8-2.1-33.2c-0.7-10.4-0.8-20.1-1.2-29c-0.3-9-0.6-17.2-0.9-24.8
		c-0.3-7.5-0.2-14.4-0.3-20.4c-0.3-24.3-0.4-36.9-0.4-36.9H534z M547.1,2556.5c0,0,0.2,12.6,0.5,36.9c0.1,6.1,0.1,12.9,0.4,20.4
		c0.3,7.5,0.6,15.8,1,24.8c0.4,9,0.6,18.7,1.3,29c0.7,10.4,1.4,21.4,2.1,33.2c3.5,47,8.9,104.8,19.4,172.3
		c10.5,67.5,26.2,144.5,49.6,229.2c1.4,5.3,2.8,10.7,4.4,16c1.6,5.3,3.2,10.7,4.8,16.1c3.2,10.8,6.5,21.7,9.9,32.8
		c7.2,22,14.2,44.6,22.6,67.4c7.9,23,16.9,46.1,25.9,69.8c9.6,23.5,19.2,47.6,30,71.8c42.4,97.1,96.3,198.6,163.5,300.9
		c67.2,102.2,148,205.1,243.8,303.5c95.7,98.3,206.2,192.4,331.5,276c62.6,41.8,128.8,81,198.4,117c69.5,36.1,142.7,68.3,218.6,96.9
		c75.9,28.7,155,52.8,236.4,72.5c20.3,5.2,40.9,9.4,61.5,13.9c10.3,2.4,20.7,4.1,31.1,6.2c10.4,1.9,20.8,4,31.3,5.9
		c10.5,1.7,21,3.5,31.5,5.2l15.8,2.6l15.9,2.2c10.6,1.5,21.2,2.9,31.9,4.4c10.6,1.4,21.3,2.5,32.1,3.7c21.4,2.7,43,4.3,64.6,6.2
		c10.8,1.1,21.7,1.5,32.5,2.3c10.9,0.6,21.7,1.4,32.6,1.9c10.9,0.4,21.8,0.8,32.8,1.2l16.4,0.6l16.5,0.2c11,0.1,22,0.3,33,0.4
		c10.9,0,22.1-0.3,33.1-0.4c22.2-0.1,44.3-1.2,66.5-2c11.1-0.3,22.2-1.3,33.4-1.9c11.1-0.8,22.3-1.3,33.4-2.3
		c22.3-2.1,44.7-3.7,67-6.6c11.2-1.3,22.4-2.5,33.6-4c11.2-1.6,22.4-3.1,33.6-4.7c11.2-1.5,22.4-3.3,33.6-5.2
		c11.2-1.9,22.4-3.7,33.6-5.7c22.3-4.4,44.8-8.3,67.1-13.5c44.8-9.4,89.2-21.1,133.7-33.6c22.1-6.6,44.4-13,66.3-20.5
		c22.1-6.9,44-14.9,65.9-22.7c11-3.9,21.8-8.2,32.7-12.3l16.4-6.2c5.4-2.1,10.8-4.4,16.3-6.6c10.8-4.4,21.7-8.9,32.5-13.3
		c10.7-4.7,21.5-9.4,32.2-14.1c171.7-76.4,335.7-178.2,483.7-302.8c148.1-124.4,280.2-271.5,389.3-436
		c109.1-164.3,195-346,252.6-537.1c57.7-191.1,86.8-391.4,86.6-591.8c-0.2-200.3-29.8-400.6-87.8-591.4
		c-57.9-190.9-144.1-372.2-253.5-536.1c-109.3-164-241.5-310.6-389.6-434.5c-148-124-311.9-225.2-483.4-301.2
		c-10.7-4.7-21.5-9.4-32.2-14c-10.8-4.4-21.6-8.8-32.5-13.2c-5.4-2.2-10.8-4.5-16.2-6.6l-16.3-6.2c-10.9-4.1-21.7-8.4-32.7-12.3
		c-21.9-7.7-43.7-15.6-65.8-22.5c-21.9-7.3-44.1-13.7-66.2-20.3c-44.3-12.4-88.7-24-133.4-33.2c-22.2-5.1-44.7-8.9-66.9-13.3
		c-11.2-2-22.4-3.7-33.5-5.6c-11.2-1.9-22.3-3.7-33.5-5.2c-11.2-1.5-22.3-3.1-33.5-4.6c-11.2-1.5-22.3-2.6-33.5-3.9
		c-22.3-2.8-44.6-4.4-66.8-6.4c-11.1-1-22.2-1.5-33.3-2.2c-11.1-0.6-22.2-1.6-33.3-1.9c-22.2-0.8-44.2-1.9-66.3-1.9
		c-11-0.1-22.1-0.3-32.9-0.3c-11,0.1-22.1,0.3-33.1,0.5l-16.5,0.2L2525,521c-10.9,0.4-21.8,0.8-32.6,1.3c-10.9,0.5-21.7,1.4-32.5,2
		c-10.8,0.7-21.6,1.2-32.4,2.3c-21.5,2-43,3.7-64.3,6.3c-10.7,1.3-21.3,2.4-32,3.8c-10.6,1.5-21.2,3-31.7,4.5l-15.8,2.2l-15.7,2.6
		c-10.5,1.8-20.9,3.5-31.4,5.2c-10.4,1.8-20.8,4-31.2,5.9c-10.4,2-20.7,3.8-31,6.2c-20.5,4.5-41.1,8.8-61.3,14
		c-81.1,19.7-159.8,44-235.4,72.7c-75.6,28.6-148.3,60.9-217.5,96.9c-69.2,36-135,75.2-197.3,116.8
		c-124.6,83.4-234.3,177.4-329.4,275.4c-95.1,98.1-175.3,200.6-241.9,302.5c-66.7,101.9-120.1,203-162,299.6
		c-10.8,24-20.2,48.1-29.7,71.4c-8.9,23.6-17.9,46.6-25.6,69.5c-8.3,22.7-15.1,45.2-22.3,67.1c-3.3,11-6.5,21.9-9.7,32.6
		c-1.6,5.4-3.2,10.7-4.7,16c-1.5,5.3-2.9,10.6-4.3,15.9c-23.1,84.3-38.5,160.9-48.8,227.9c-10.3,67.1-15.6,124.6-19,171.3
		c-0.7,11.7-1.4,22.7-2.1,33c-0.7,10.3-0.8,19.9-1.2,28.9c-0.3,8.9-0.6,17.1-0.9,24.6c-0.3,7.5-0.2,14.3-0.4,20.3
		c-0.3,24.2-0.4,36.7-0.4,36.7H547.1z"/>
	<path fill="#E5EFE5" d="M3933.2,1489.5c0,199.8,161.9,361.7,361.7,361.7c199.8,0,361.7-161.9,361.7-361.7
		c0-199.8-161.9-361.7-361.7-361.7C4095.2,1127.7,3933.2,1289.7,3933.2,1489.5z"/>
	<circle fill="#E5EFE5" cx="3418.9" cy="551.4" r="398"/>
	<path fill="#E5EFE5" d="M1332,620.2c0,227.7,184.5,412.2,412.2,412.2c227.6,0,412.2-184.5,412.2-412.2
		c0-227.6-184.6-412.2-412.2-412.2C1516.5,208,1332,392.6,1332,620.2z"/>
	<path fill="#E5EFE5" d="M1092.3,1579.4c0,206.1-167,373.1-373.1,373.1c-206.1,0-373.1-167-373.1-373.1
		c0-206.1,167-373.1,373.1-373.1C925.2,1206.3,1092.3,1373.4,1092.3,1579.4z"/>
	<circle fill="#7BB07C" cx="4466.9" cy="2744.4" r="278.5"/>
	<path fill="#E5EFE5" d="M1731.3,4530.8c0,177.2,143.6,320.8,320.8,320.8c177.2,0,320.8-143.6,320.8-320.8
		c0-177.2-143.6-320.8-320.8-320.8C1874.9,4210,1731.3,4353.6,1731.3,4530.8z"/>
	<path fill="#E5EFE5" d="M3977,3839.5c0,199.8,161.9,361.7,361.7,361.7c199.8,0,361.7-161.9,361.7-361.7
		c0-199.8-161.9-361.7-361.7-361.7C4139,3477.8,3977,3639.7,3977,3839.5z"/>
	
		<ellipse transform="matrix(0.8056 -0.5924 0.5924 0.8056 -2135.7483 1227.532)" fill="#7BB07C" cx="802.9" cy="3868.7" rx="398" ry="398"/>
	<path fill="#E5EFE5" d="M250.8,2773.7c0,199.8,161.9,361.7,361.7,361.7c199.8,0,361.7-161.9,361.7-361.7S812.3,2412,612.6,2412
		C412.8,2412,250.8,2573.9,250.8,2773.7z"/>
	<g>
		<g>
			<polygon fill="#FFFFFF" points="2084.6,4657 2021.1,4657 2021.1,4593.4 1957.4,4593.4 1957.4,4593.4 1957.4,4513.9 2021,4513.9 
				2021,4450.4 2084.6,4450.4 2084.6,4513.9 2148.2,4513.9 2148.2,4593.4 2084.6,4593.4 			"/>
		</g>
		<g>
			<polygon fill="none" points="2021,4450.4 2084.6,4450.4 2084.6,4513.9 2148.2,4513.9 2148.2,4593.4 2084.6,4593.4 2084.6,4657 
				2021.1,4657 2021.1,4593.4 1957.4,4593.4 1957.4,4593.4 1957.4,4513.9 2021,4513.9 			"/>
		</g>
		<g>
			<polygon fill="none" points="2021,4450.4 2084.6,4450.4 2084.6,4513.9 2148.2,4513.9 2148.2,4593.4 2084.6,4593.4 2084.6,4657 
				2021.1,4657 2021.1,4593.4 1957.4,4593.4 1957.4,4593.4 1957.4,4513.9 2021,4513.9 			"/>
			<path fill="#BC4F40" d="M1815,4442v219.3c0,32.6,26.7,59.3,59.3,59.3h356.9c32.7,0,59.4-26.7,59.4-59.3V4442
				c0-32.6-26.7-55.2-59.4-55.2h-67.2v-0.1h-31.8v0.1h-159h-31.8h-67.2C1841.7,4386.8,1815,4409.4,1815,4442z M1957.4,4513.9h63.6
				v-63.6h63.6v63.6h63.6v79.5h-63.6v63.6h-63.6v-63.6h-63.6h0V4513.9z"/>
			<path fill="#BC4F40" d="M2132.3,4363.7c0-14.6-13-27.6-27.6-27.6h-103.9c-14.5,0-27.5,13-27.5,27.6v23.1h-31.8v-23.1
				c0-32.7,26.7-59.4,59.3-59.4h103.9c32.6,0,59.4,26.7,59.4,59.4v23h-31.8V4363.7z"/>
		</g>
	</g>
	<g>
		<path fill="#FFFFFF" d="M1609.4,502.6l-18.7,142.5l-96.7,28.8c0,0-5.1,69.5-20.4,78c-15.3,8.5-45.8-1.7-45.8-1.7v-67.8l66.2-62.8
			l28.8-106.9L1609.4,502.6z"/>
		<rect x="1731.2" y="495.8" fill="#FFFFFF" width="207.8" height="173.4"/>
		<g>
			<g>
				<g>
					<g>
						<path fill="#BC4F40" d="M1496.5,779.4c0,36.7,29.8,66.4,66.4,66.4c36.7,0,66.4-29.7,66.4-66.4c0-36.7-29.7-66.4-66.4-66.4
							C1526.3,713,1496.5,742.7,1496.5,779.4z M1576.4,794c-3.5,3.2-8.2,5.2-13.4,5.2c-5.2,0-9.9-2-13.4-5.2
							c-3.9-3.6-6.4-8.8-6.4-14.6c0-1.2,0.1-2.4,0.3-3.6c1.7-9.2,9.8-16.2,19.5-16.2c9.7,0,17.8,7,19.5,16.2
							c0.2,1.2,0.3,2.4,0.3,3.6C1582.8,785.2,1580.3,790.4,1576.4,794z"/>
					</g>
					<path fill="#BC4F40" d="M1901,779.4c0,36.7,29.8,66.4,66.4,66.4c36.7,0,66.4-29.7,66.4-66.4c0-36.7-29.8-66.4-66.4-66.4
						C1930.8,713,1901,742.7,1901,779.4z M1947.6,779.4c0-1.2,0.1-2.4,0.3-3.6c1.7-9.2,9.8-16.2,19.5-16.2c9.7,0,17.8,7,19.5,16.2
						c0.2,1.2,0.3,2.4,0.3,3.6c0,5.8-2.5,11-6.4,14.6c-3.5,3.2-8.2,5.2-13.4,5.2c-5.2,0-9.9-2-13.4-5.2
						C1950.1,790.4,1947.6,785.2,1947.6,779.4z"/>
					<g>
						<path fill="#BC4F40" d="M1700.1,477.6v217h246.6v-217H1700.1z M1758.2,563.7h48.1v-48.1h48.1v48.1h48.1v48.1h-48.1v48.1h-48.1
							v-48.1h-48.1V563.7z"/>
					</g>
				</g>
				<g>
					<path fill="#41474E" d="M1411.4,734.5c0,10.6,0.3,21.4,0.3,32c25.3,0,50.6,0,76-0.3c8.3-36.7,44-66.2,82.4-60.7
						c33.8,1.9,57.6,30,67.8,59.9v2.7H1894c4.1-26.9,22.7-49.1,47.6-58.4c8.1-3,16.9-4.7,26-4.7c33.1,0,61.1,21.7,70.8,51.6
						c1.2,3.7,2.1,7.6,2.8,11.5h13.6v-11.5V617.1V452.8h-313.1c0-0.3,0-0.7,0-1h-73.4c0,0.4,0,0.7,0,1h-30.3v17.1
						c-38.9-0.3-77.9-0.5-117.1,0c3.1,38.4-15.3,73.2-24.2,109.6c-5.6,13.9-4.7,33.9-21.1,40.3c-16.4,8.1-33.1,15.6-49.5,23.1
						c-1.1,30.3-0.3,60.4-0.6,90.7C1420.6,733.9,1416.2,734.2,1411.4,734.5z M1733.1,587.7c0-53.7,43.5-97.2,97.2-97.2
						c53.7,0,97.2,43.5,97.2,97.2c0,53.7-43.5,97.2-97.2,97.2C1776.6,684.9,1733.1,641.4,1733.1,587.7z M1502.4,614.3
						c7.8-29.5,17.3-58.4,25-87.6c19.8-0.8,39.8-0.6,59.5-0.6c1.1,29.5,0.6,59,0.3,88.5C1558.9,614.5,1530.8,614.8,1502.4,614.3z
						 M1428.8,705.3c17.2-0.3,34.4-0.3,51.6,0c0.3,10.4,0.3,20.4,0,30.8c-17.2,0.3-34.7,0.3-51.9-0.3
						C1428.2,725.8,1428.2,715.7,1428.8,705.3z"/>
					<path fill="#BC4F40" d="M1668.2,412.2c0-20.3,16.5-36.8,36.8-36.8c20.3,0,36.8,16.5,36.8,36.8c0,6.8,0,31.6,0,39.5h-73.4
						C1668.2,443.7,1668.2,419,1668.2,412.2z"/>
				</g>
			</g>
			<path fill="#41474E" d="M1662.5,450.2c0,3.7,3,6.7,6.7,6.7h73.8c3.7,0,6.7-3,6.7-6.7l0,0c0-3.7-3-6.7-6.7-6.7h-73.8
				C1665.5,443.5,1662.5,446.5,1662.5,450.2L1662.5,450.2z"/>
		</g>
	</g>
	<g>
		<path fill="#BC4F40" d="M3138,513.4c0,12,1.4,23.6,4.1,34.8c0.1,0.4,0.2,0.8,0.3,1.2c0.2,0.7,0.3,1.3,0.5,2
			c5,20.6,14.1,40.5,25.5,59.5c14.9,24.7,34,47.6,53.9,67.9h154.3c5,0,9.4,3.1,11.2,7.7l25,65.2l88.5-219.5c1.8-4.4,6-7.3,10.7-7.5
			c4.2-0.3,9.1,2.5,11.2,6.7l40.7,83.7h76.6c0.6,0,1.2,0.1,1.8,0.2c6.3-10,11.9-20.3,16.7-30.8c4.9-10.8,8.8-21.9,11.6-33.1
			c0.1-0.7,0.3-1.3,0.5-2c0.1-0.4,0.2-0.8,0.3-1.2c2.6-11.2,4.1-22.8,4.1-34.8c0-0.7,0-1.3,0-2c-0.8-60.3-37.4-111.9-89.5-134.7
			c-2.1-0.7-4.2-1.4-6.3-2c-16.7-6.6-34.8-10.2-53.8-10.3c-47,0.2-88.9,22.2-116.1,56.4c-1.9,1.4-2.9,2.2-2.9,2.2
			c-0.1,0-0.1-0.1-0.2-0.1c0,0,0,0,0,0c-27.2-35.6-70.1-58.5-118.4-58.5c-0.2,0-0.5,0-0.7,0c-0.2,0-0.4,0-0.6,0
			c-21.2,0-41.3,4.4-59.5,12.4c-26.4,9.3-50.7,28.7-70.3,62.3c-3.6,6.3-6.8,12.9-9.4,19.3c-7.2,17.8-10.2,35.6-9.8,53.1
			C3138,512.1,3138,512.7,3138,513.4z M3631.5,513.3c-0.3-0.7-0.5-1.4-0.6-2.2c-2.5-52.7-48.4-98.6-101.1-101.1
			c-4.2-0.2-7.7-5.4-7.8-11.5c-0.1-6.1,4.1-10.9,9.4-10.6c63.4,3.1,118.5,58.2,121.6,121.6c0.1,1.3-0.2,2.6-0.7,3.7
			c-1.5,3.4-5.3,5.7-9.9,5.6C3637.4,518.8,3633.1,516.5,3631.5,513.3z"/>
		<path fill="#BC4F40" d="M3401.4,788.6c1.8,4.6,6.2,7.6,11.1,7.7c0,0,0.1,0,0.1,0c4.9,0,9.3-3,11.1-7.5l89.8-222.7l32.2,66.2
			c2,4.1,6.2,6.7,10.8,6.7h69.3c-51.6,67.6-127.2,117.5-143.6,129c-15.8,11.1-35.9,23.7-51.4,33.3c-14.9,9.7-23.8,14.6-23.8,14.6
			s-0.1,0-0.2-0.1c-0.1,0.1-0.2,0.1-0.2,0.1s-8.9-4.9-23.8-14.6c-15.5-9.5-35.6-22.2-51.4-33.3c-10.6-7.4-46.2-31.1-84.1-65.3
			l121.2,0L3401.4,788.6z"/>
	</g>
	<g>
		<polygon fill="#FFFFFF" points="959.4,3928.1 665.7,3759 641.4,3772.9 619.8,3818.7 633.7,3843 918.5,4002.1 		"/>
		<g>
			
				<rect x="818.5" y="3914.5" transform="matrix(0.4974 -0.8675 0.8675 0.4974 -2977.6365 2699.2666)" fill="#41474E" width="44.5" height="10"/>
			<polygon fill="#41474E" points="879.1,3967.1 901.3,3928.5 892.6,3923.5 870.5,3962.2 			"/>
			
				<rect x="844" y="3932.4" transform="matrix(0.4973 -0.8676 0.8676 0.4973 -2983.4309 2725.7344)" fill="#41474E" width="32.9" height="10"/>
			
				<rect x="889.1" y="3958.3" transform="matrix(0.4973 -0.8676 0.8676 0.4973 -2983.2117 2777.9387)" fill="#41474E" width="32.9" height="10"/>
			<g>
				<path fill="#BC4F40" d="M642,3793.2c0,0,12.5-29,35.6-15.7l167.6,96.1l-32,55.8l-171.4-98.2
					C641.8,3831.1,625.4,3821.7,642,3793.2z"/>
			</g>
		</g>
		<g>
			<path fill="none" d="M676.3,3770.9l275.3,157.8l-4.8,8.4l-0.2,0.3l-28.4,49.5l-0.2,0.3l-4.8,8.5l-277.2-158.9
				c0,0-16.9-15.5,0.9-46.5C637,3790.3,652.5,3757.3,676.3,3770.9z"/>
			<path fill="#41474E" d="M616.6,3802.8c0-0.1,0.1-0.2,0.1-0.3c0,0,0,0,0,0C616.7,3802.6,616.6,3802.7,616.6,3802.8z"/>
			<path fill="#41474E" d="M635,3769.9c2.8-3,5.1-5.1,6.5-6.2c-2.3,2.1-4.4,4.3-6.3,6.4C635.1,3770,635.1,3770,635,3769.9z"/>
		</g>
		<g>
			<polygon fill="none" points="595.6,3775.5 595.8,3775.1 595.8,3775.1 			"/>
			<polygon fill="none" points="601.1,3765.9 601.3,3765.5 601.1,3765.9 			"/>
			<path fill="#619F9E" d="M601.1,3765.9l0.2-0.4c2.3-4.1,9.4-4.4,15.8-0.7l10.4,5.9c1.5-2.1,4.4-2.8,6.6-1.5
				c0.3,0.2,0.6,0.4,0.8,0.6c-5.8,6.4-13.6,17.1-18.3,32.6c-0.4-0.1-0.9-0.3-1.3-0.5c-2.3-1.3-3.1-4.1-2-6.5l-10.4-5.9
				c-6.4-3.7-9.7-9.9-7.4-14l0.2-0.4l0,0L601.1,3765.9L601.1,3765.9z"/>
			<polygon fill="#FFFFFF" points="474.4,3693.3 601.1,3765.9 595.8,3775.1 484.7,3711.4 			"/>
		</g>
		<g>
			<path fill="none" d="M676.3,3770.9l275.3,157.8l-4.8,8.4l-0.2,0.3l-28.4,49.5l-0.2,0.3l-4.8,8.5l-277.2-158.9
				c0,0-16.9-15.5,0.9-46.5C637,3790.3,652.5,3757.3,676.3,3770.9z"/>
			<path fill="#41474E" d="M627.1,3843.3L627.1,3843.3l280,160.5l-5.6,9.8l17.4,10l4.7-8.2l9.3-16.2l33.5-58.8l0.4-0.2l12-20.9
				l-17.4-10l-5.5,9.6l-280-160.5c-13.6-7.8-25.6-2.3-34.3,5.4c-2.3,2.1-4.4,4.3-6.3,6.4c-0.1-0.1-0.1-0.1-0.2-0.2
				c-5.8,6.4-13.6,17.1-18.3,32.6c0,0,0,0,0,0c0,0.1-0.1,0.2-0.1,0.3C612.2,3815.6,610.1,3833.5,627.1,3843.3z M637,3790.3
				c0,0,15.6-33,39.4-19.4l275.3,157.8l-4.8,8.4l-0.2,0.3l-28.4,49.5l-0.2,0.3l-4.8,8.5l-277.2-158.9
				C636.1,3836.8,619.2,3821.2,637,3790.3z"/>
		</g>
		<g>
			<polygon fill="#58606B" points="932.9,3999 966.3,3940.3 966.7,3940.1 964.3,3944.3 1084.9,4013.4 1053.5,4068.2 			"/>
			<polygon fill="#41474E" points="1084.9,4013.4 1103.3,3981.2 1126,3994.2 1057.8,4113.1 1035.1,4100.1 1053.5,4068.2 			"/>
		</g>
	</g>
	<g>
		<rect x="651.8" y="1374.7" fill="#353939" width="170.7" height="53"/>
		<path fill="#484D53" d="M557.7,1525.6c0-68.4,48.3-123.9,107.8-123.9h143.3c59.5,0,107.8,55.5,107.8,123.9v277.7
			c0,3.8-0.2,7.6-0.5,11.3c0.1,0.6,0.2,1.2,0.2,1.9c0,2.1-0.4,4.2-1.1,6c-0.1,0.5-0.1,0.9-0.2,1.4h-0.5c-2.3,4.6-6.5,7.8-11.5,7.8
			H571.3c-5,0-9.2-3.2-11.5-7.8h-0.5c-0.1-0.5-0.1-0.9-0.2-1.4c-0.7-1.8-1.1-3.9-1.1-6c0-0.6,0.1-1.2,0.2-1.9
			c-0.3-3.7-0.5-7.5-0.5-11.3V1525.6z"/>
		<path fill="#F4F9F9" d="M585.3,1661.8c0,39,27.5,70.6,61.4,70.6h181c33.9,0,61.4-31.6,61.4-70.6V1614c0-39-27.5-70.6-61.4-70.6
			h-181c-33.9,0-61.4,31.6-61.4,70.6V1661.8z"/>
		<rect x="629.1" y="1573.7" fill="#EECD72" width="216.1" height="28.5"/>
		<rect x="629.1" y="1625.9" fill="#EECD72" width="216.1" height="28.5"/>
		<rect x="652.6" y="1678.2" fill="#EECD72" width="169.2" height="28.5"/>
		<g>
			<rect x="693.9" y="1304.3" fill="#DA9620" width="8.6" height="70.4"/>
			<rect x="713.5" y="1304.3" fill="#DA9620" width="8.6" height="70.4"/>
			<rect x="830.9" y="1304.3" fill="#DA9620" width="8.6" height="70.4"/>
			<rect x="811.3" y="1304.3" fill="#DA9620" width="8.6" height="70.4"/>
			<rect x="733.1" y="1304.3" fill="#DA9620" width="8.6" height="70.4"/>
			<rect x="752.6" y="1304.3" fill="#DA9620" width="8.6" height="70.4"/>
			<rect x="674.4" y="1304.3" fill="#DA9620" width="8.6" height="70.4"/>
			<rect x="791.8" y="1304.3" fill="#DA9620" width="8.6" height="70.4"/>
			<rect x="654.8" y="1304.3" fill="#DA9620" width="8.6" height="70.4"/>
			<rect x="635.2" y="1304.3" fill="#DA9620" width="8.6" height="70.4"/>
			<rect x="772.2" y="1304.3" fill="#DA9620" width="8.6" height="70.4"/>
			<rect x="616.7" y="1304.3" fill="#DA9620" width="7.5" height="70.4"/>
			<rect x="850.5" y="1304.3" fill="#DA9620" width="7.2" height="70.4"/>
			<line fill="#AC3A8B" x1="850.5" y1="1304.3" x2="839.5" y2="1304.3"/>
			<rect x="839.5" y="1304.3" fill="#D7B569" width="11" height="70.4"/>
			<line fill="#AC3A8B" x1="830.9" y1="1304.3" x2="819.9" y2="1304.3"/>
			<rect x="819.9" y="1304.3" fill="#D7B569" width="11" height="70.4"/>
			<line fill="#AC3A8B" x1="811.3" y1="1304.3" x2="800.3" y2="1304.3"/>
			<rect x="800.3" y="1304.3" fill="#D7B569" width="11" height="70.4"/>
			<line fill="#AC3A8B" x1="791.8" y1="1304.3" x2="780.8" y2="1304.3"/>
			<rect x="780.8" y="1304.3" fill="#D7B569" width="11" height="70.4"/>
			<line fill="#AC3A8B" x1="772.2" y1="1304.3" x2="761.2" y2="1304.3"/>
			<rect x="761.2" y="1304.3" fill="#D7B569" width="11" height="70.4"/>
			<line fill="#AC3A8B" x1="752.6" y1="1304.3" x2="741.6" y2="1304.3"/>
			<rect x="741.6" y="1304.3" fill="#D7B569" width="11" height="70.4"/>
			<line fill="#AC3A8B" x1="733.1" y1="1304.3" x2="722" y2="1304.3"/>
			<rect x="722" y="1304.3" fill="#D7B569" width="11" height="70.4"/>
			<line fill="#AC3A8B" x1="713.5" y1="1304.3" x2="702.5" y2="1304.3"/>
			<rect x="702.5" y="1304.3" fill="#D7B569" width="11" height="70.4"/>
			<line fill="#AC3A8B" x1="693.9" y1="1304.3" x2="682.9" y2="1304.3"/>
			<rect x="682.9" y="1304.3" fill="#D7B569" width="11" height="70.4"/>
			<line fill="#AC3A8B" x1="674.4" y1="1304.3" x2="663.3" y2="1304.3"/>
			<rect x="663.3" y="1304.3" fill="#D7B569" width="11" height="70.4"/>
			<line fill="#AC3A8B" x1="654.8" y1="1304.3" x2="643.8" y2="1304.3"/>
			<rect x="643.8" y="1304.3" fill="#D7B569" width="11" height="70.4"/>
			<line fill="#AC3A8B" x1="635.2" y1="1304.3" x2="624.2" y2="1304.3"/>
			<rect x="624.2" y="1304.3" fill="#D7B569" width="11" height="70.4"/>
		</g>
	</g>
	<g>
		<path fill="#FFFFFF" d="M628.1,1740.5c19.9,13.3,26.5,39.1,16.2,60l-77.7-51.8C581.9,1731.2,608.2,1727.3,628.1,1740.5z"/>
		<path fill="#FFFFFF" d="M575.9,1818.9c-19.9-13.3-26.5-39.1-16.2-60l77.7,51.8C622.1,1828.3,595.8,1832.2,575.9,1818.9z"/>
	</g>
	<g>
		<g>
			<path fill="#F0EFED" d="M4311.3,2815.3c0.6-74,52.7-122.3,122.2-137.5v-116.7h-10.2c-8.3,0-15-6.7-15-14.9
				c0-8.3,6.7-14.9,15-14.9h43.6v284.1H4311.3z"/>
			<path fill="#FFFEFC" d="M4467,2531.2h43.6c8.2,0,14.9,6.7,14.9,14.9c0,8.3-6.7,14.9-14.9,14.9h-10.2v116.7
				c69.5,15.3,121.6,63.6,122.2,137.5H4467V2531.2z"/>
			<path fill="#C36259" d="M4622.6,2815.3c0,0.4,0.1,0.8,0.1,1.3c0,86-68.2,141.1-154.3,141.1c-0.5,0-1-0.1-1.5-0.1v-142.3H4622.6z"
				/>
			<path fill="#BC4F40" d="M4311.2,2816.5c0-0.4,0.1-0.8,0.1-1.3H4467v142.3C4381.6,2957,4311.2,2902,4311.2,2816.5z"/>
		</g>
	</g>
	<g>
		<g>
			<path fill="#41474E" d="M665.3,2640.8H615c-4.2,0-7.5-3.4-7.5-7.5c0-4.2,3.4-7.5,7.5-7.5h50.2c4.2,0,7.5,3.4,7.5,7.5
				C672.8,2637.4,669.4,2640.8,665.3,2640.8z"/>
			<path fill="#41474E" d="M665.3,2595.6H615c-4.2,0-7.5-3.4-7.5-7.5c0-4.2,3.4-7.5,7.5-7.5h50.2c4.2,0,7.5,3.4,7.5,7.5
				C672.8,2592.2,669.4,2595.6,665.3,2595.6z"/>
		</g>
		<g>
			<path fill="#BC4F40" d="M560.9,2654.9c-24.8,0-56.5,6.3-69.9,9.3v112.6c0,0,27.6,55.7,120.4,55.7c92.8,0,105.1-59.8,105.1-59.8
				V2664c-15.7-3.2-55.9-9.6-84.3,1.5C632.2,2665.6,593.1,2654.9,560.9,2654.9z M607.5,2768.8c0-4.2,3.4-7.5,7.5-7.5h50.2
				c4.2,0,7.5,3.4,7.5,7.5c0,4.2-3.4,7.5-7.5,7.5H615C610.9,2776.4,607.5,2773,607.5,2768.8z M607.5,2727.4c0-4.2,3.4-7.5,7.5-7.5
				h50.2c4.2,0,7.5,3.4,7.5,7.5c0,4.2-3.4,7.5-7.5,7.5H615C610.9,2734.9,607.5,2731.6,607.5,2727.4z M607.5,2686
				c0-4.2,3.4-7.5,7.5-7.5h50.2c4.2,0,7.5,3.4,7.5,7.5c0,4.1-3.4,7.5-7.5,7.5H615C610.9,2693.5,607.5,2690.1,607.5,2686z"/>
			<path fill="#41474E" d="M471.4,2506.7v6v85.4v56.9v113.8c0,47,38.4,85.4,85.4,85.4h15.1c0.3,8.2,10.1,15.1,23.3,17.5v3.5v45.1
				h-0.5c-7.8,0-14.3,6.4-14.3,14.2v49.4c0,7.8,6.4,14.2,14.3,14.2h0.5v89.9h20.1v-89.9h0.5c7.8,0,14.2-6.4,14.2-14.2v-49.4
				c0-7.8-6.4-14.2-14.2-14.2h-0.5v-45.1v-3.5c13.3-2.4,23-9.2,23.3-17.5h15.1c47,0,85.4-38.4,85.4-85.4V2655v-56.9v-85.4v-6
				c0-11.1-9-20.1-20.1-20.1H491.5C480.4,2486.6,471.4,2495.6,471.4,2506.7z M491,2540.3h85.4H631h85.5v85.4v4.6v26.4v7.4v108.5
				c0,0-12.3,59.8-105.1,59.8c-92.8,0-120.4-55.7-120.4-55.7v-112.6v-7.4v-11.2v-19.7V2540.3z"/>
		</g>
	</g>
	<g>
		<polygon fill="#FDFDFE" points="4309.6,1327.6 4429.7,1654 4398.3,1712.9 4336.1,1696.3 4210.2,1361.5 		"/>
		<g>
			<polygon fill="#475050" points="4218,1361.4 4340.1,1689 4385.3,1707.3 4400.3,1701.7 4422.5,1658.3 4300.4,1330.7 
				4316.8,1323.6 4440.8,1656.2 4409.6,1717.2 4432.8,1779.4 4422.5,1783.3 4421.9,1783.5 4411.6,1787.3 4388.4,1725.1 
				4324.9,1699.4 4200.9,1366.8 			"/>
			<g>
				<polygon fill="#BC4F40" points="4355.3,1495.5 4413.3,1651.2 4395.2,1691.1 4382.2,1696 4342.4,1677.6 4284.4,1521.9 				"/>
			</g>
			<g>
				<path fill="#BC4F40" d="M4196.7,1333.6l-21.5-57.8c-10.4-28,3.8-59.2,31.9-69.7l40.5,108.5L4196.7,1333.6z"/>
				<path fill="#AC483D" d="M4207.1,1206.1c28-10.5,59.2,3.8,69.7,31.8l21.5,57.8l-50.8,18.9L4207.1,1206.1z"/>
				<path fill="#373C39" d="M4298.3,1295.8l18.1-6.7c10.1-3.8,21.7,2.2,25.8,13.4c4.2,11.2-0.7,23.3-10.8,27l-68.9,25.7l-5.5-14.8
					l-9.5-25.6L4298.3,1295.8z"/>
				<path fill="#475050" d="M4178.6,1340.3l18.1-6.7l50.8-18.9l9.5,25.6l5.5,14.8l-68.9,25.7c-10.1,3.8-21.7-2.2-25.8-13.4
					C4163.7,1356.2,4168.5,1344.1,4178.6,1340.3z"/>
			</g>
		</g>
	</g>
	<g>
		<g>
			<path fill="#BC4F40" d="M4441,3661c0.8,0.7,1.5,1.4,2.3,2.2l50-38.6c0,0-12.4-121-144.2-126.3
				c-131.8,7.1-144.5,126.1-144.5,126.1l51.2,39.5c1.9-2.1,3.1-3.1,3.1-3.1l0,0.1c23.4-24.1,58.1-39.7,103.7-33.2
				c0,0,43.2,1.2,78.2,33l0,0C4440.8,3660.8,4440.9,3660.9,4441,3661z M4394,3577.8h-31.3v31.4h-27.3v-31.4H4304v-27.3h31.4v-31.3
				h27.3v31.3h31.3V3577.8z"/>
			<g>
				<g>
					<path fill="#373C39" d="M4351.7,3985.4l3,5.8l0,0.1l2.9-5.9l41-80.5l1.3-2.3l1.3-2.7l-0.7-3.1l-3.9-16.6
						c5.4-2.5,10.5-5.5,15.4-8.8c15.5,24.3,66.2,22,66.2,22c-14.6-28.8-1.6-31.8,3.8-106.2l0,0c1.6-9.9,2-20.2,0.7-30.6
						c-5.4-39.4-21.1-65.7-39.3-83.3c-0.8-0.7-1.5-1.5-2.3-2.2c-0.2-0.2-0.3-0.3-0.3-0.3v0c-35-31.8-78.2-33-78.2-33
						c-45.6-6.5-80.3,9.1-103.7,33.2l0-0.1c0,0-1.2,1.1-3.1,3.1c-10.3,11-42.7,50.6-38.1,113.2c5.5,74.4,18.4,77.5,3.8,106.2
						c0,0,47.3,2.1,64.5-19.7c4.4,1.3,8.3,2,11,2.3c4.2,2.4,8.5,4.5,13,6.4l-3.1,13.1l-0.3,1.1l3.6,7.6L4351.7,3985.4z
						 M4395.5,3875.4c-0.5,0.2-1.4,0.7-1.4,0.7c-13.2,6.1-27.9,9.7-43.5,9.7c-29.7,0-56.5-12.7-75.5-32.8
						c-17.4-25.7-18.8-60.7-15.9-79.5c71.6-27.1,103.2-77.4,103.2-77.4c28.3,77.4,94.8,63,75,128.4c-4.8,18.2-13.1,30.1-21.3,38
						C4409.9,3867.5,4403,3871.9,4395.5,3875.4z M4354.7,3979.5l-42.4-83.3l0.1-0.3l2.7-11.6c11.2,3.9,23.1,6.1,35.6,6.1
						c14.5,0,28.3-2.9,40.9-8.1l4,16.9L4354.7,3979.5z"/>
					<circle fill="#475050" cx="4394.4" cy="3779.4" r="9.3"/>
					<ellipse fill="#475050" cx="4309.5" cy="3778.8" rx="8.7" ry="8.7"/>
					<path fill="#373C39" d="M4404.4,3899.7c43.9,11,81.1,34.7,105.3,65.9c18.9,24.4,29.9,53.5,29.9,84.6h-117.4h-59.6v-62.8h49.1
						L4404.4,3899.7z"/>
				</g>
			</g>
		</g>
		<g>
			<path fill="#373C39" d="M4100.7,4001.8l7.3-3.3c19.1-8.7,38.1-4.1,50.7,1.3l4,1.7l2.5,1.1l0.5-9.6l1.8-37.7
				c0.9-17.8-12.9-32.9-30.7-33.8c-11.3-0.5-21.9,4.7-28.3,14.1c-3.3,4.9-5.2,10.6-5.5,16.6L4100.7,4001.8z M4111.3,3986.8l1.6-34
				c0.2-4.1,1.5-8.1,3.8-11.5c4.4-6.5,11.8-10.2,19.6-9.8c12.3,0.6,21.9,11.1,21.3,23.5l-1.6,33.4
				C4144.7,3984.4,4128.3,3981.5,4111.3,3986.8z"/>
			<path fill="#BC1918" d="M4172.6,3998.4c0.2,0.1,0.4,0.2,0.6,0.3l0.5,0.2l-1.3,0.2L4172.6,3998.4z"/>
		</g>
		<g>
			<path fill="#373C39" d="M4171,4003.7c0.2,0.1,0.4,0.2,0.6,0.3l0.5,0.2l6.7-0.9c20.7-2.8,37.7,7,48.2,15.8l5.4,4.5l15.7-44.6
				c5.9-16.8-2.9-35.2-19.7-41.2c-4.7-1.6-9.5-2.2-14.2-1.7c-6.1,0.7-12,3.1-16.9,7.1c-4.6,3.7-8.1,8.7-10,14.3l-1.2,3.4l-11.3,32
				l-3,8.5L4171,4003.7z M4185.2,3993l11.3-32.1c1.4-3.9,3.8-7.3,7-9.9c6.1-5,14.2-6.4,21.6-3.8c11.7,4.1,17.8,16.9,13.7,28.6
				l-11.1,31.5C4217.9,4000.3,4203.1,3992.8,4185.2,3993z"/>
			<path fill="#BC4F40" d="M4099.5,4048.7c-0.8,17,12.3,31.5,29.3,32.3c7.6,0.4,14.9-2,20.6-6.6c1.3-1,2.5-2.1,3.6-3.4
				c0.5-0.5,0.9-1,1.4-1.6c0.5-0.6,1-1.3,1.4-1.9c2.5-3.6,4.1-7.7,4.8-12c0.2-1.3,0.4-2.6,0.4-3.9l0.8-16.1l0.8-15.7l0.6-13.2
				l0.1-2.3l-0.4-0.2l-1.3,0.2l0.3-0.7c-0.9-0.4-1.9-0.9-3-1.4c-8.6-3.9-23.3-8.6-39.2-5.4c0.3,0.5-5.4,1.4-5.4,1.4
				c-4,1.3-8.1,3.1-12.2,5.7l-0.6,0.4L4099.5,4048.7z M4108.1,4006.9l14.6-4.4c-7,4.1-7.9,8.9-7.9,8.9c-14.7,45.2,0.9,60.3,0.9,60.3
				C4093.9,4058.7,4108.1,4006.9,4108.1,4006.9z"/>
			<path fill="#BC4F40" d="M4160.2,4072.9c0.6-0.6,3.6-4,3.8-4.2c0.3-0.4,0.6-0.8,0.9-1.2c0.3-0.4,0.6-0.9,0.9-1.3
				c2-3.3,3.3-6.9,4-10.6c0.2-1.3,0.4-2.6,0.4-3.9l0.8-16.1l1.4-28.9c9.8-3.5,21.2-1.3,21.2-1.3v0c17.1,2.5,30.1,13.1,35.9,18.7
				l0.7,0.7l-10.8,30.7l-4.9,13.9c-1.9,5.4-5.2,10.1-9.6,13.7c-8.4,6.8-19.5,8.8-29.8,5.2c-7.3-2.6-13-7.7-16.6-13.9
				C4159,4073.9,4159.6,4073.4,4160.2,4072.9z"/>
		</g>
		<path fill="#373C39" d="M4239.8,4023.7c0.5-1.1,1-2.2,1.4-3.2c0,0,0-0.1,0.1-0.1c0.4-0.7,0.7-1.4,1-2.1c0-0.1,0.1-0.2,0.1-0.3
			l0.4,0.4l15.7-44.6c5.9-16.8-2.9-35.2-19.7-41.2c-4.7-1.6-9.5-2.2-14.2-1.7c22.6-16,49.8-27.8,79.8-33.7l-7.5,90.2h50.2v62.8
			h-117.4l8.4-23.8C4238.8,4025.6,4239.4,4024.7,4239.8,4023.7z"/>
	</g>
	<g>
		<path fill="#7BB07C" d="M3201.8,4496c0,180.4,146.3,326.7,326.7,326.7c180.4,0,326.7-146.3,326.7-326.7
			c0-180.4-146.3-326.7-326.7-326.7C3348.1,4169.3,3201.8,4315.6,3201.8,4496z"/>
	</g>
	<g>
		<g>
			<g>
				<path fill="#FFFFFF" d="M3621.9,4340.1c0-44.6-36.2-80.9-80.8-80.9c-44.6,0-80.8,36.3-80.8,80.9c0,44.5,36.2,80.8,80.8,80.8
					C3585.7,4420.8,3621.9,4384.6,3621.9,4340.1z"/>
			</g>
			<g>
				<path fill="#FFFFFF" d="M3665.8,4429.8c50.2,19.2,49.7,54.4,49.9,56.2l0.2,124.9c0,0.3,0.1,11.6-6.7,18.6
					c-3.7,3.8-9,5.8-15.7,5.8l-4.8,0L3665.8,4429.8z M3372.3,4682v-185.4c6.4-76,93.3-75.8,97.1-75.8h135.1l-41.6,156.3h-23.8
					c-18.9,0-34.4,15.4-34.4,34.4c0,19,15.4,34.4,34.4,34.4h23.2h73.2l0,58.2l-198.3,0.1l0.1-189.8l-12.6,16.3v145.5l-0.1,5.5
					c0,14.7-11.8,26.5-26.2,26.5C3384,4708.2,3372.3,4696.4,3372.3,4682L3372.3,4682z M3549.6,4634.8l-10.5,0
					c-12.8,0-23.3-10.4-23.3-23.3c0-12.8,10.5-23.3,23.3-23.3h19.8C3554.1,4600.5,3546.9,4621.9,3549.6,4634.8z"/>
			</g>
		</g>
		<path fill="#BC4F40" d="M3677.7,4634.8l-20.7-205c-7.7-2.7-11.4-6.5-41.1-8.7c0,0-58.6,207.5-54.9,213.2c0.2,0.3,0.3,0.5,1.4,0.5
			L3677.7,4634.8L3677.7,4634.8z"/>
	</g>
</g>
<g>
	<g>
		<g>
			<path fill="#7BB07C" d="M2378.2,3148.5l0.1-16c0.9-17.1,1.9-35.5,2.8-54.8l-150.6,289.1c-19.6,37.7-55.7,64.1-97.5,71.5l-366,6.9
				l-79.8,14.4l-124.7,33.2c210.7,214.8,489.4,362.6,801.2,408.7l3-363.1L2378.2,3148.5z"/>
			<path fill="#7BB07C" d="M3986.3,2502.5c0-781.1-633.2-1414.2-1414.2-1414.2c-781.1,0-1414.2,633.2-1414.2,1414.2
				c0,176.7,32.4,345.8,91.6,501.7c-4-71.6,48.4-134.9,120.7-143.3c8.4-1,16.6-1.1,24.7-0.6c37.4,2.4,71.4,20.1,94.9,47.4
				c10.9,42.7,23.7,84.6,38.2,125.8l26.7,229l70.1-12.3l394.4-69.5l203.9-391.2c-3-12.4-4.6-25.2-4.6-38.5
				c0-89.9,72.8-162.7,162.7-162.7c0.9,0,1.8,0.1,2.6,0.1c0-0.3,0-0.5-0.1-0.8h137v-0.1c39.1-1.9,76-12.1,109.1-28.8
				c0.2,0.3,0.4,0.6,0.6,0.8l-16.1,9.5l-65.2,267.2l89.4,22.3l-59.6,111.7l250,494.6l46.5,68.3l59,117.2l0.2-6.2l26-74.1
				l303.2-599.8l-59.6-111.7l89.4-22.3l-65.2-267.2l-16.1-9.5c0.2-0.3,0.4-0.6,0.6-0.8c33.1,16.7,70,26.8,109.1,28.8v0.1H3477
				c0,0,79.7-1.4,104.7,23.8l-102.8,381l-0.2-0.1c0,0.3,0,0.6,0,0.9l-0.1,0.5l0.1,0.3c0.4,128.7,3.7,272.5,12.3,421.8l-3.1-13.7
				l2.7,175.9C3794,3318.5,3986.3,2932.9,3986.3,2502.5z"/>
			<path fill="#FDFEFE" d="M3491,3415.6c-8.6-149.3-11.9-293.1-12.3-421.8l-0.1-0.3l0.1-0.5c0-0.3,0-0.6,0-0.9l0.2,0.1l102.8-381
				c-25-25.1-104.7-23.8-104.7-23.8h-154.8v-0.1c-39.1-1.9-76-12.1-109.1-28.8c-0.2,0.3-0.4,0.6-0.6,0.8l16.1,9.5l65.2,267.2
				l-89.4,22.3l59.6,111.7l-303.2,599.8l-26,74.1l-0.2,6.2l17.8,35.3l-23.3,185.6c210.2-54.7,401.4-156.5,561.6-293.4l-2.7-175.9
				L3491,3415.6z"/>
			<path fill="#FDFEFE" d="M1250.1,3012.5l49.7,425.6c4.4,37.4,24,71.3,54.2,93.8c23.8,17.7,58.2-11.2,87.4-11.2
				c7.9,0,15.8-0.7,23.7-2.1l97.3-25.9c-135.6-138.2-243-304.2-313-488.6C1249.6,3006.9,1249.8,3009.7,1250.1,3012.5z"/>
			<path fill="#FDFEFE" d="M2925.7,3872.1l8.7-221.8l-59-117.2l-46.5-68.3l-250-494.6l59.6-111.7l-89.4-22.3l65.2-267.2l16.1-9.5
				c-0.2-0.3-0.4-0.6-0.6-0.8c-33.1,16.7-70,26.8-109.1,28.8v0.1h-137c0,0.3,0,0.5,0.1,0.8c-0.9,0-1.7-0.1-2.6-0.1
				c-89.9,0-162.7,72.8-162.7,162.7c0,13.3,1.6,26.2,4.6,38.5l-203.9,391.2l-394.4,69.5l-70.1,12.3l-26.7-229
				c-14.5-41.1-27.3-83.1-38.2-125.8c-23.5-27.4-57.5-45.1-94.9-47.4c-8.1-0.5-16.4-0.4-24.7,0.6c-72.2,8.4-124.7,71.7-120.7,143.3
				c70,184.4,177.4,350.3,313,488.6l124.7-33.2l79.8-14.4l366-6.9c41.9-7.4,77.9-33.8,97.5-71.5l150.6-289.1
				c-0.9,19.3-1.9,37.7-2.8,54.8l-0.1,16l-11.6,389.8l-3,363.1c68,10.1,137.7,15.3,208.5,15.3
				C2694.2,3916.7,2812.7,3901.2,2925.7,3872.1z"/>
			<path fill="#FDFEFE" d="M2929,3871.3l23.3-185.6l-17.8-35.3l-8.7,221.8C2926.8,3871.9,2927.9,3871.6,2929,3871.3z"/>
		</g>
		<path fill="none" d="M2918.4,3707.5L2918.4,3707.5c0,0-0.1,0-0.1,0C2918.3,3707.5,2918.3,3707.5,2918.4,3707.5z"/>
	</g>
	<g>
		<path fill="#080A00" d="M3259,2573c-63.6-87.4-172.6-131.7-324-131.7c-171.6,0-292.4,45.6-359.1,135.6c0,0-0.1,0.1-0.1,0.2
			c13-3.6,38.9-12,70.6-29c65.1-50.7,161.8-76.3,288.6-76.3c110.6,0,196.4,24.6,256.1,73.4c21,10.5,52.3,23.3,69.5,30.1
			C3260,2574.5,3259.5,2573.7,3259,2573z"/>
		<g>
			<g>
				<path fill="none" d="M1624.7,3250.1c-37.8-69.1-70.3-141.5-96.8-216.7l26.7,229L1624.7,3250.1z"/>
				<path fill="#CE6A20" d="M2918.2,3707.5c0,0,0.1,0,0.1,0v0C2918.3,3707.5,2918.3,3707.5,2918.2,3707.5z"/>
				<path fill="#FDFEFE" d="M1521.7,2980.8c-3.3-28.1-14.9-53.2-32-73.1c10.9,42.7,23.7,84.6,38.2,125.8L1521.7,2980.8z"/>
			</g>
			<path fill="none" d="M2918.2,3707.5c0,0,0.1,0,0.1,0v0C2918.3,3707.5,2918.3,3707.5,2918.2,3707.5z"/>
			<polygon fill="#EFEFEF" points="2934.7,3644.2 2934.7,3640.4 2922.3,3640.4 2922.3,3646.1 2928.6,3661.5 			"/>
			<g>
				<path fill="#EFEFEF" d="M2928.6,3661.5l-6.4-15.4v9.4c0.8,0,1.6,0,2.4,0c3.4,0,6.7,0,10-0.1v-11.2L2928.6,3661.5z"/>
			</g>
		</g>
		<g>
			<path fill="none" d="M3478.7,2993l0.2-0.8l-0.2-0.1C3478.7,2992.4,3478.7,2992.7,3478.7,2993z"/>
			<path fill="none" d="M2918.4,3707.5L2918.4,3707.5c0,0-0.1,0-0.1,0C2918.3,3707.5,2918.3,3707.5,2918.4,3707.5z"/>
			<path fill="#0E4665" d="M3478.7,2993.8c0-0.3,0-0.5,0-0.8l-0.1,0.5L3478.7,2993.8z"/>
			<path fill="#88BFD1" d="M2918.4,3707.5L2918.4,3707.5c0,0-0.1,0-0.1,0C2918.3,3707.5,2918.3,3707.5,2918.4,3707.5z"/>
		</g>
		<g>
			<path fill="#D1B699" d="M3096.2,2401.8l0.1,0.1V2347h-335.6v79.3h-1.1c-14.1,31.3-34,59.4-58.2,83.1
				C2963.4,2534.6,3096.2,2401.8,3096.2,2401.8z"/>
			<path fill="#EBD0AD" d="M3096.3,2453.1v-51.2l-0.1-0.1c0,0-132.8,132.8-394.8,107.7c-20.1,19.7-43.2,36.3-68.5,49.1
				c32.8,46.8,76.7,85.3,127.8,111.7v73.8h0.4v5h319v-5h16.2v-80.9c45.9-26.2,85.4-62.4,115.5-105.7
				C3163.9,2534.6,3123.8,2498.2,3096.3,2453.1z"/>
		</g>
		<path fill="#DCDFE5" d="M3159,2614.6c-63,58.7-147.3,94.7-240.2,94.7c-85.3,0-163.3-30.4-224.2-80.8l233.9,1033.1L3159,2614.6z"/>
		<polygon fill="#4C5B78" points="2988.4,3492 3041.3,3362.7 2978.4,2775.2 2928.8,2760.8 2928.8,2760.1 2927.7,2760.4 
			2926.6,2760.1 2926.6,2760.8 2877,2775.2 2809.8,3401.7 2889.7,3553.2 2928,3660.2 2940.5,3638 2971.8,3549.7 		"/>
		<polygon fill="#4C5B78" points="3003.7,2678.8 2926,2668.1 2848.3,2678.8 2833.2,2721.9 2869.9,2780.2 2926,2782.4 2982.1,2780.2 
			3018.8,2721.9 		"/>
		<polygon fill="#CAD2CE" points="2673.2,2534.1 2922.4,2668.1 2745.6,2845 2614.3,2569 		"/>
		<polygon fill="#CAD2CE" points="3172.2,2534.1 2923,2668.1 3099.9,2845 3228,2571.8 		"/>
		<g>
			<path fill="#EBD0AD" d="M3355.5,1816.9c0-302.4-181.8-397.7-418.2-397.7c-2.9,0-5.8,0-8.7,0.1v1037.8
				C3164.5,2456.1,3355.5,2119,3355.5,1816.9z"/>
			<path fill="#DCC19F" d="M2917.8,1419.6c-227.8,7.4-418.1,103.2-418.1,397.3c0,298.3,186.4,633.2,418.1,639.9
				c3.3,0.1,6.5,0.3,9.8,0.3c0.3,0,0.7,0,1,0V1419.3C2925,1419.4,2921.4,1419.5,2917.8,1419.6z"/>
		</g>
		<g>
			<g>
				<g>
					<g>
						<path fill="#3C2D19" d="M3384,1778.7c-10.2-135.3-65.4-233.1-65.4-233.1c36.9-164.6-117-210.4-279.2-214.4
							c-150-3.6-307,28.5-327.3,35.9c-22,8-52.9,10.8-77.4,11.6c-22.5,0.7-39.6-0.1-39.6-0.1c0.9,3.7,4.5,12.4,8.1,20.3
							c3.7,8.4,7.3,16.1,7.3,16.1c-4.3,0.4-12.2-1.7-21.6-5.2c-32.8-12-85.9-40.8-85.9-40.8c-5.7,44.2,4.8,83.5,16.8,111.8
							c12,28.3,25.4,45.6,25.4,45.6c-9.6,1.9-36.5-9.6-36.5-9.6c7.7,36.5,15.4,53.8,15.4,53.8c-57.7,42.1-71.1,163.8-72.2,258.9
							l99,115.6l34.2-83c0.7,0.1,1.4,0.1,2.2,0.2c24.2-87.3,44.3-218.9,44.3-218.9c258.2,165.8,495.8,33.3,536.8,7.9
							c7.8-8.5,11.9-13.7,11.9-13.7c14.6,165.9,126.8,278.1,126.8,278.1c-9.4-70.4,71.4-125.7,77.5-129.7c0.2-0.2,0.6-0.4,0.6-0.4
							C3384.8,1783.3,3384.4,1781,3384,1778.7z"/>
						<path fill="#EBD0AD" d="M3299.4,1887.5c-16.1,61.7-4.7,118.2,25.6,126.2c30.3,8,68-35.6,84.2-97.3
							c16.2-61.7,4.7-118.2-25.6-126.2C3353.3,1782.2,3315.6,1825.7,3299.4,1887.5z"/>
						<path fill="#DCC19F" d="M2544.3,1889.1c16.8,60.3,8,115.5-19.5,123.1c-27.5,7.7-63.4-35-80.1-95.3
							c-16.7-60.3-8-115.5,19.5-123.1C2491.7,1786.1,2527.7,1828.7,2544.3,1889.1z"/>
					</g>
				</g>
			</g>
		</g>
		<path fill="none" d="M2921.4,3647.7l39.3-77.6c-29.1-30.7-90.6,32.7-90.6,32.7v15.2l33.4-5.8L2921.4,3647.7z"/>
		<polygon fill="#EFEFEF" points="2928.5,3661.7 2694.6,2628.6 2673.2,2534.1 2630.4,2559.5 2614.3,2569 2549.1,2836.2 
			2638.5,2858.5 2578.9,2970.3 		"/>
		<polygon fill="#EFEFEF" points="3300.9,2836.2 3235.7,2569 3235,2568.5 3175.2,2536.6 3159,2614.6 2928.5,3661.7 3271.1,2970.3 
			3211.5,2858.5 		"/>
		
			<rect x="1170.8" y="2076.3" transform="matrix(0.9802 -0.1979 0.1979 0.9802 -514.6107 395.2698)" fill="#38606B" width="1098.9" height="1392"/>
		
			<rect x="1228.6" y="2149.5" transform="matrix(0.9802 -0.1979 0.1979 0.9802 -514.6176 395.2775)" fill="#FFFFFF" width="983.3" height="1245.5"/>
		<g>
			
				<rect x="1266.7" y="2550.8" transform="matrix(0.9802 -0.1979 0.1979 0.9802 -486.1766 309.0217)" fill="#384A53" width="73.3" height="73.2"/>
			
				<rect x="1404.9" y="2468.9" transform="matrix(0.9802 -0.1979 0.1979 0.9802 -462.0305 387.7685)" fill="#384A53" width="608.4" height="73.2"/>
		</g>
		<g>
			
				<rect x="1294.2" y="2687.2" transform="matrix(0.9802 -0.198 0.198 0.9802 -513.0884 317.522)" fill="#384A53" width="73.3" height="73.2"/>
			
				<rect x="1433.2" y="2612.9" transform="matrix(0.9802 -0.1979 0.1979 0.9802 -490.7318 388.6337)" fill="#384A53" width="531.7" height="73.2"/>
		</g>
		<g>
			
				<rect x="1321.7" y="2823.6" transform="matrix(0.9802 -0.1979 0.1979 0.9802 -539.2735 325.4684)" fill="#384A53" width="73.3" height="73.2"/>
			
				<rect x="1461.2" y="2754.3" transform="matrix(0.9802 -0.1979 0.1979 0.9802 -518.6577 391.9731)" fill="#384A53" width="481.1" height="73.2"/>
		</g>
		<g>
			
				<rect x="1349.3" y="2960" transform="matrix(0.9802 -0.1979 0.1979 0.9802 -565.6843 333.5845)" fill="#384A53" width="73.3" height="73.2"/>
			
				<rect x="1487.3" y="2876.6" transform="matrix(0.9802 -0.1979 0.1979 0.9802 -540.9078 413.6747)" fill="#384A53" width="623.9" height="73.2"/>
		</g>
		<g>
			<polygon fill="#384A53" points="1456.6,3161.7 1384.8,3176.2 1370.3,3104.4 1442.1,3089.9 			"/>
			
				<rect x="1514.9" y="3013" transform="matrix(0.9802 -0.1979 0.1979 0.9802 -567.3591 421.8238)" fill="#384A53" width="623.9" height="73.2"/>
		</g>
		<g>
			<path fill="#DCC19F" d="M1081.8,2832.7c2.7,0,5.4-0.2,8.1-0.6l157.2-22.4c31-4.4,52.5-33.1,48.1-64.2
				c-4.4-31-33.1-52.5-64.1-48.1l-157.2,22.4c-31,4.4-52.5,33.1-48.1,64.2C1029.8,2812.3,1054.1,2832.7,1081.8,2832.7z"/>
		</g>
		<g>
			<path fill="#DCC19F" d="M1073.8,2955.7l154-19.2c31.1-3.9,53.1-32.2,49.2-63.3c-3.9-31.1-32.2-53.1-63.3-49.2l-154,19.2
				c-31.1,3.9-53.1,32.2-49.2,63.3c3.6,28.7,28,49.7,56.2,49.7C1069,2956.1,1071.4,2956,1073.8,2955.7z"/>
		</g>
		<g>
			<path fill="#DCC19F" d="M1260.6,3048.5c30.8-5.8,51.1-35.4,45.3-66.2c-5.8-30.8-35.4-51.1-66.2-45.3l-154,28.9
				c-30.8,5.8-51,35.4-45.3,66.2c5.1,27.2,28.9,46.3,55.7,46.3c3.5,0,7-0.3,10.5-1L1260.6,3048.5z"/>
		</g>
		<g>
			<path fill="#DCC19F" d="M1334.8,3093.4c-4.6-27.7-30.7-46.4-58.4-41.7l-137.9,23c-27.7,4.6-46.4,30.8-41.7,58.4
				c4.1,24.8,25.7,42.4,50,42.4c2.8,0,5.6-0.2,8.4-0.7l137.9-23C1320.7,3147.2,1339.4,3121.1,1334.8,3093.4z"/>
		</g>
		<path fill="#FDFEFE" d="M3651.3,2689.1c38.5,81.6,14.8,173.7-53,205.7c-67.8,32-154-8.2-192.5-89.8
			c-38.5-81.6-14.8-173.7,53-205.7C3526.6,2567.3,3612.8,2607.5,3651.3,2689.1z"/>
		<ellipse fill="#383736" cx="2902.9" cy="3407.9" rx="18.9" ry="18.9"/>
		<ellipse fill="#383736" cx="2960.2" cy="3413.5" rx="18.9" ry="18.9"/>
		<g>
			<path fill="#EFEFEF" d="M3483.5,3438.6c-81.1-56.6-247.9-85-398.8-93.1l-73.5,149.9l477.4,22.5L3483.5,3438.6z"/>
		</g>
		<g>
			<path fill="#080A00" d="M2518.6,2774.3c1.1,57.5,13.6,99.2,14.1,101l29.1-8.8c-0.5-1.6-46.1-157.8,38.5-271.6
				c13-17.4,28.3-33,46-46.8c-31.7,17-57.6,25.4-70.6,29C2536.9,2629.4,2517.1,2697.6,2518.6,2774.3z"/>
			<polygon fill="#080A00" points="3266.4,2968.8 3280.8,2973.4 3266.4,2968.8 			"/>
		</g>
		<path fill="#080A00" d="M3260.6,2575.2c-17.2-6.9-48.5-19.7-69.5-30.1c16.4,13.4,30.9,28.7,43.3,45.7
			c54.7,75.1,60.7,173.3,56.1,242.5c-5.1,76.1-23.8,134.8-24,135.5l14.5,4.7l14.5,4.7c0.8-2.5,19.9-62.3,25.4-142
			C3327.9,2730.7,3307.1,2640.5,3260.6,2575.2z"/>
		<g>
			<ellipse fill="#EFEFEF" cx="3283.6" cy="2973.4" rx="92.6" ry="92.6"/>
			<path fill="#080A00" d="M3283.6,3072.7c-54.7,0-99.3-44.5-99.3-99.3c0-54.7,44.5-99.3,99.3-99.3c54.7,0,99.3,44.5,99.3,99.3
				C3382.9,3028.1,3338.3,3072.7,3283.6,3072.7z M3283.6,2887.4c-47.4,0-86,38.6-86,86c0,47.4,38.6,86,86,86s86-38.6,86-86
				C3369.6,2926,3331,2887.4,3283.6,2887.4z"/>
		</g>
		<circle fill="#BBB9B9" cx="3283.6" cy="2973.4" r="67"/>
		<g>
			<path fill="#BBB9B9" d="M2552.7,3474.2c-73.9-3.9-82.6-51.4-83-53.4l-49.6-296.7l22.5-3.8l49.6,296.7c0.2,1.1,6.9,31.4,61.6,34.3
				L2552.7,3474.2z"/>
			<path fill="#BBB9B9" d="M2723.7,3431.2c68.6-27.7,61.4-75.4,61.1-77.5l-49.6-296.7l-22.5,3.8l49.6,296.7
				c0.1,1.1,3.7,32-47.1,52.5L2723.7,3431.2z"/>
			<path fill="#2E2D27" d="M2572.1,3437.8c21.7,4.3,37,19.2,34.2,33.2c-2.8,14-22.6,21.9-44.3,17.6c-21.7-4.3-37-19.2-34.2-33.2
				C2530.5,3441.4,2550.4,3433.5,2572.1,3437.8z"/>
			<path fill="#2E2D27" d="M2693.4,3417.5c-19.1,11.1-28.8,30.2-21.6,42.6c7.2,12.4,28.5,13.4,47.7,2.2
				c19.1-11.1,28.8-30.2,21.6-42.6S2712.5,3406.4,2693.4,3417.5z"/>
			<path fill="#2E2D27" d="M2413.9,3132.4c-0.4-2.6-10.7-65.1-2.4-131.8c11.6-93.3,54-148.7,122.5-160.1
				c162.5-27.2,206.5,224.5,208.3,235.2l-33.8,5.7c-0.4-2.3-40-228.6-168.8-207.1c-52.8,8.8-84.5,52.8-94.2,130.5
				c-7.7,61.8,2.1,121.3,2.2,121.9L2413.9,3132.4z"/>
		</g>
		<path fill="#4E9E4F" d="M1616.7,2225.5c-59.1,11.1-98,67.9-86.9,127c11.1,59.1,67.9,98,127,86.9c59.1-11.1,98-68,86.9-127
			C1732.7,2253.3,1675.8,2214.4,1616.7,2225.5z"/>
		<g>
			<g>
				<path fill="#3D5154" d="M1773.1,2014.2l-196.3,45.8l-198.8,34c0,0,22.7,62.9,2.4,129.6l212.7-42.9l15.4-3.1l216.1-43.6
					C1780,2080.3,1773.1,2014.2,1773.1,2014.2z"/>
				<path fill="#384A53" d="M1826.9,2129c2.6,12.7-5.7,25.2-18.4,27.7l-408.3,82.4c-12.7,2.6-25.2-5.7-27.7-18.4l0,0
					c-2.6-12.7,5.7-25.2,18.4-27.7l408.3-82.4C1811.9,2108,1824.3,2116.3,1826.9,2129L1826.9,2129z"/>
				<path fill="#384A53" d="M1781,2014.9c2.3,11.5-5.1,22.7-16.6,25l-368.9,74.5c-11.5,2.3-22.7-5.1-25.1-16.6l0,0
					c-2.3-11.5,5.1-22.7,16.6-25.1l368.9-74.5C1767.5,1995.9,1778.7,2003.3,1781,2014.9L1781,2014.9z"/>
			</g>
			<g>
				<path fill="#384A53" d="M1687.1,2002.5c-13.2-65.6-77.2-108-142.7-94.8c-65.6,13.2-108,77.1-94.8,142.7l7.1,35l237.5-47.9
					L1687.1,2002.5z M1569.9,2034.2c-25.5,5.1-50.3-11.3-55.4-36.8c-5.1-25.5,11.3-50.3,36.8-55.4c25.5-5.1,50.3,11.3,55.4,36.8
					C1611.8,2004.2,1595.3,2029,1569.9,2034.2z"/>
			</g>
		</g>
		<path fill="#DCC19F" d="M2728.8,3134.6c0,0,16.9,19,63.2,31.6l-14,254.1c0,0-42.1-8.2-82.8,10L2728.8,3134.6z"/>
		<g>
			<g>
				<g>
					<g>
						<path fill="#FFFFFF" d="M2885.4,3131.5l-98.2-4.8c-13.6-0.7-25.2,9.8-25.8,23.4l-6.3,129.1l-6.3,129.1
							c-0.7,13.6,9.8,25.2,23.4,25.8l98.2,4.8c13.6,0.7,25.1-9.8,25.8-23.4l6.3-129.1l6.3-129.1
							C2909.4,3143.8,2898.9,3132.2,2885.4,3131.5z"/>
						<g>
							<g>
								<path fill="#DCC19F" d="M2404.9,3386.7c1-21,18.4-37,39.1-37.4c0-0.2-0.1-0.4-0.1-0.5l-37-1.8
									c-21.9-1.1-38.9-19.8-37.8-41.7c1.1-21.8,19.8-38.9,41.7-37.8l-39.7-1.9c-21.9-1.1-38.9-19.8-37.8-41.7
									c1.1-21.8,19.8-38.9,41.7-37.8l-159-7.7c-21.8-1.1-38.9-19.8-37.8-41.7c1.1-21.8,19.8-38.9,41.7-37.8l25.4,1.2l213.1,10.4
									l28.7,1.4c4.8,0.2,9.4-4,11-8.6c1.6-4.6,0.1-10.2-3.8-13.2c-36.7-31.1-74.5-31.1-72.4-73.2c0.5-9.8,6.1-18.6,14.7-23.2
									c8.7-4.5,19.1-4.1,27.4,1l261.9,137.5c6.1,3.8,9.7,10.7,9.3,17.9c-1.7,34.8-7.7,157.4-11.3,232.1
									c-1.6,32.9-29.5,58.3-62.5,56.7c-106.5-5.2-218.6-10.6-218.6-10.6C2420.8,3427.3,2403.8,3408.6,2404.9,3386.7z"/>
							</g>
						</g>
					</g>
				</g>
			</g>
		</g>
		<path fill="#FDFEFE" d="M3728.1,3502.5c-2.4,0-4.8-0.1-7.2-0.2l-925.8-38.6l14.3-344.5l703.8,55.5L3361.8,2816l295.9-112.7
			l223.7,547.7c28.2,54.6,25.2,120-7.8,171.8C3841.7,3472.6,3786.8,3502.5,3728.1,3502.5z"/>
	</g>
</g>
<polygon fill="#FFFFFF" points="1683.9,2290.5 1666.8,2279.4 1622.8,2353.4 1594.2,2335.1 1583.8,2352.6 1629.3,2382 1629.8,2381 
	1630.1,2381.2 "/>
</svg>
