<?xml version="1.0" encoding="utf-8"?>
<!-- Generator: Adobe Illustrator 22.0.1, SVG Export Plug-In . SVG Version: 6.00 Build 0)  -->
<svg version="1.1" id="Capa_1" xmlns="http://www.w3.org/2000/svg" xmlns:xlink="http://www.w3.org/1999/xlink" x="0px" y="0px"
	 viewBox="0 0 1194 500" style="enable-background:new 0 0 1194 500;" xml:space="preserve">
<style type="text/css">
	.stx0{clip-path:url(#SVGID_2_);}
	.st1{fill:#B9DBF3;}
	.stx2{clip-path:url(#SVGID_4_);fill:#E0EFF2;}
	.st3{clip-path:url(#SVGID_6_);}
	.st4{fill:#FFFFFF;}
	.st5{clip-path:url(#SVGID_8_);fill:#4684A3;}
	.st6{opacity:0.6;fill:url(#SVGID_9_);enable-background:new    ;}
	.st7{fill:#6EC1D5;}
	.st8{fill:#5B9FC6;}
	.st9{fill:#80E0C6;}
	.st10{fill:#81E1CA;}
	.st11{fill:#C63536;}
	.st12{opacity:0.6;fill:url(#SVGID_10_);enable-background:new    ;}
	.st13{fill:#589BC4;}
	.st14{fill:#516CCA;}
	.st15{fill:#6FC3D7;}
	.st16{fill:url(#SVGID_11_);}
	.st17{fill:#C6D7E3;}
	.st18{fill:url(#SVGID_12_);}
	.st19{fill:#9EC44E;}
	.st20{fill:#315777;}
	.st21{fill:url(#SVGID_13_);}
	.st22{fill:#7FBDEC;}
	.st23{fill:url(#SVGID_14_);}
	.st24{fill:url(#SVGID_15_);}
	.st25{fill:#5A61A1;}
	.st26{fill:#6F78B7;}
	.st27{fill:url(#SVGID_16_);}
	.st28{fill:#E1A5A6;}
	.st29{fill:#2941C7;}
	.st30{fill:#232350;}
	.st31{fill:#272862;}
	.st32{fill:#353572;}
	.st33{fill:#C54994;}
	.st34{fill:#28283D;}
	.st35{fill:#1A227A;}
	.st36{fill:#BE8D8D;}
	.st37{opacity:0.9;fill:#ADD7F2;}
	.st38{fill:#C54996;}
	.st39{fill:#5479F8;}
	.st40{fill:#C54A92;}
	.st41{opacity:0.5;fill:#83BEFA;enable-background:new    ;}
	.st42{fill:#2A3384;}
	.st43{fill:#273083;}
	.st44{fill:url(#SVGID_17_);}
	.st45{fill:#A3BBC6;}
	.st46{fill:#BBD4DE;}
	.st47{fill:#324ACA;}
	.st48{fill:url(#SVGID_18_);}
	.st49{fill:#4D85AD;}
	.st50{fill:#7079B7;}
	.st51{fill:#4E568D;}
	.st52{fill:#F1F1F1;}
	.st53{fill:#EEC88E;}
	.st54{fill:#E7F4FF;}
	.st55{fill:url(#SVGID_19_);}
	.st56{fill:#2941C5;}
	.st57{fill:#DFA4A5;}
	.st58{fill:#C78F92;}
	.st59{fill:#C972F6;}
	.st60{fill:#E2A6A6;}
	.st61{fill:#436AF8;}
	.st62{fill:#90D9E7;}
	.st63{fill:#EDBB9B;}
	.st64{fill:#F5F5F0;}
	.st65{fill:#487FC3;}
	.st66{fill:#669AD3;}
	.st67{fill:#D77B67;}
	.st68{fill:#292F54;}
	.st69{fill:url(#SVGID_20_);}
	.st70{fill:#EAA92E;}
	.st71{fill:#D07422;}
	.st72{fill:#C1DB83;}
	.st73{fill:#DD0A56;}
	.st74{opacity:0.36;fill:#90D9E7;enable-background:new    ;}
</style>
<g>
	<g>
		<defs>
			<rect id="SVGID_1_" x="1.6" y="0.2" width="1190.4" height="500.8"/>
		</defs>
		<clipPath id="SVGID_2_">
			<use xlink:href="#SVGID_1_"  style="overflow:visible;"/>
		</clipPath>
		<g class="stx0">
			<g>
				<path class="st1" d="M708.2,510c-0.4-0.1-43.6-8.9-70.4-35.7c-19.5-19.5-28.8-43.5-26.3-67.8v-0.4h0.4
					c8.7-0.5,21.9-0.7,35.3,2.8c14.8,3.9,26.7,11.8,35.6,23.3c10.2,13.3,24,35.8,26,77.3v0.6L708.2,510z M638.4,473.7
					c24.9,24.9,64.1,34.1,69.4,35.3c-2-40.9-15.7-63-25.8-76.1c-19.5-25.4-49.1-26.9-69.7-25.8C610,430.9,619.3,454.5,638.4,473.7z"
					/>
			</g>
			<g>
				<path class="st1" d="M642.5,414.7l-0.8,0.1l5.5,29.3L629,424.7l-3.4-18.3c-0.3,0-0.6,0-0.8,0l3.2,17.2l-15.3-16.3l-0.6,0.6
					l4.7,5l-5.2-1.4c0,0.3,0,0.6,0,0.8l6.1,1.6v-0.1l18.4,19.6l-23.4-6.1c0.1,0.3,0.1,0.6,0.2,0.9l24.1,6.3v-0.1l18.4,19.6
					l-29.4-7.6l-0.2,0.8l30.5,7.9V455l18.4,19.6l-29.4-7.6l-0.2,0.8l30.5,7.9v-0.1l31.5,33.7c0.8,0.2,1.3,0.3,1.3,0.3v-0.1l-21.5-23
					l-5.7-30.6l-0.8,0.1l5.5,29.3l-18.2-19.5l-5.7-30.6l-0.8,0.1l5.5,29.3l-18.2-19.5L642.5,414.7z"/>
			</g>
		</g>
	</g>
	<g>
		<defs>
			<rect id="SVGID_3_" x="1.6" y="0.2" width="1190.4" height="500.8"/>
		</defs>
		<clipPath id="SVGID_4_">
			<use xlink:href="#SVGID_3_"  style="overflow:visible;"/>
		</clipPath>
		<path class="stx2" d="M1034.8,97.6c-17.9-12.8-42-17.9-63.5-16.7c-36.6,2-71.1,17-107.4,22.1c-41,5.8-83.8-1.7-120.2-20.9
			c-32.4-17.1-59.3-43-92.1-59.4C610.9,2.4,545.8-7.4,505.8,19.9c-35.6,24.3-82.5,40.4-100.2,83c-7.3,17.7-8.4,37.7-18.2,54.3
			c-21.3,36.2-65.3,39.4-102.2,46.6c-46,9-92.4,24.3-131.7,49.6c-38.8,25.1-85.8,73-87.3,121.7c-0.3,9,3.5,17,4.5,25.9
			c1.6,14.3,0.2,29.5,0.1,43.9c0,2.6,0,5.3,0,7.9c0,17.7,14.6,32,32.7,32l137.4,12c67.3,0,228.1-23,295.4-23c88.7,0,172,7,260.6,7
			c70.7,0,141.2-12.6,211.6-10c25.4,0.9,75.5,17,98.1,2c21.3-14.1,21.9-54.5,20.4-78c-1.4-23.1-17-26.2-34.9-41.4
			c-12.5-10.6-28.7-18.8-34.2-34c-6-16.8,3.7-34.6,11.6-50.6c14.7-29.7,24.3-63.4,17.5-95.7c-5.3-25.3-24.8-47.2-42-66
			C1042.2,103.5,1038.6,100.4,1034.8,97.6z"/>
	</g>
	<g>
		<defs>
			<rect id="SVGID_5_" x="1.6" y="0.2" width="1190.4" height="500.8"/>
		</defs>
		<clipPath id="SVGID_6_">
			<use xlink:href="#SVGID_5_"  style="overflow:visible;"/>
		</clipPath>
		<g class="st3">
			<g>
				<path class="st4" d="M972.5,231.6h-2.2c0.3-14.6-5.3-28.4-15.7-38.8c-10.5-10.4-24.4-16-39.3-15.6l-0.1-2.2
					c15.4-0.4,30,5.4,40.9,16.2C967.1,202,972.9,216.3,972.5,231.6z"/>
			</g>
			<g>
				<path class="st4" d="M957.5,233.4h-2.2c0.2-11.4-4.1-22.1-12.2-30.2c-8.2-8.1-19-12.4-30.6-12.1l-0.1-2.2
					c12.1-0.3,23.6,4.2,32.2,12.8C953.2,210.1,957.8,221.4,957.5,233.4z"/>
			</g>
			<g>
				<path class="st4" d="M943.6,231.4h-2.2c0.2-7.1-2.6-13.9-7.6-18.9c-5.1-5.1-11.9-7.8-19.1-7.6l-0.1-2.2
					c7.9-0.2,15.2,2.7,20.8,8.2C940.9,216.4,943.8,223.6,943.6,231.4z"/>
			</g>
			<g>
				<path class="st4" d="M917.9,236.3c-2,0-4-0.8-5.6-2.3c-3.1-3.1-3.1-8,0-11.1s8.1-3.1,11.1,0c3.1,3,3.1,8,0,11.1l0,0
					C921.9,235.5,919.9,236.3,917.9,236.3z M917.9,222.9c-1.4,0-2.9,0.5-4,1.6c-2.2,2.2-2.2,5.8,0,7.9c2.2,2.2,5.8,2.2,8,0l0,0
					c2.2-2.2,2.2-5.8,0-7.9C920.8,223.4,919.4,222.9,917.9,222.9z"/>
			</g>
		</g>
	</g>
	<g>
		<defs>
			<rect id="SVGID_7_" x="1.6" y="0.2" width="1190.4" height="500.8"/>
		</defs>
		<clipPath id="SVGID_8_">
			<use xlink:href="#SVGID_7_"  style="overflow:visible;"/>
		</clipPath>
		<path class="st5" d="M227,132.3l-14.4,4.6c-2.6,0.8-4,3.6-3.2,6.2l9.3,29c0.8,2.6,3.6,4,6.2,3.2l14.4-4.6c2.6-0.8,4-3.6,3.2-6.2
			l-9.3-29C232.4,132.9,229.6,131.4,227,132.3z M277,119.7l-13.9,4.5c-2.8,0.9-5.7-0.8-6.3-3.6l-2.3-9.8c-0.1-0.5-0.3-0.9-0.5-1.4
			l-6.3-10.7c-1.2-2-3.6-2.9-5.8-2.2l0,0c-2.6,0.8-4,3.6-3.2,6.2l3.1,9.7c0.3,1,0.3,2.1,0,3.1l-6.2,18.5c-0.3,1-0.3,2.1,0,3.1
			l7.7,24.1c0.5,1.7,2,3,3.7,3.3l10.1,2c0.8,0.2,1.7,0.1,2.5-0.1l20.1-6.4c1.9-0.6,3.3-2.4,3.4-4.4l1.7-26.6c0-0.6,0-1.2-0.2-1.8
			l-1.4-4.3C282.4,120.3,279.6,118.9,277,119.7z"/>
	</g>
</g>
<g>
	
		<linearGradient id="SVGID_9_" gradientUnits="userSpaceOnUse" x1="853.7681" y1="436.0282" x2="924.581" y2="436.0282" gradientTransform="matrix(0.9875 0.1574 0.1574 -0.9875 -83.8907 379.9218)">
		<stop  offset="0.1453" style="stop-color:#F1F1F1"/>
		<stop  offset="0.2598" style="stop-color:#E7E7E7"/>
		<stop  offset="0.4022" style="stop-color:#E4E4E4"/>
		<stop  offset="0.5858" style="stop-color:#DEDEDE"/>
		<stop  offset="0.8323" style="stop-color:#CDCDCD"/>
		<stop  offset="0.8659" style="stop-color:#CACACA"/>
	</linearGradient>
	<circle class="st6" cx="862.8" cy="89.3" r="35.4"/>
	<path class="st7" d="M895,52.1c-2.9,2-5.9,3.9-8.8,6c-0.9,0.6-1.5,0.7-2.6-0.1c-2.4-1.6-4.9-3-7.6-4.1c-1.6-0.7-2.2-1-2.1-2.4
		c0.1-3.5,0-7,0.1-10.4c0-1.3-0.6-1.7-2.6-1.4c-3.3,0.5-6.6,0.2-9.8-0.8c-2.2-0.7-2.9-0.6-3.2,0.8c-0.6,3.5-1.5,7-2.1,10.6
		c-0.2,1-0.6,1.4-1.6,1.7c-3.1,0.9-6.1,1.9-9.1,2.8c-0.5,0.1-1.2-0.1-1.6-0.4c-2.8-2.7-5.6-5.5-8.5-8.4c-4.3,2.4-8.1,5.5-11.4,9.1
		c-0.3,0.3-0.1,1.3,0.2,1.8c1.8,2.9,3.7,5.8,5.7,8.6c0.8,1.1,0.7,1.8-0.1,3.2c-1.6,2.4-2.8,5-4,7.7c-0.4,1-0.9,1.3-1.8,1.3
		c-3.9,0-7.9,0-12,0.1c-0.4,2-0.9,3.9-1.1,5.8c-0.3,2.7-0.3,5.4-0.4,8.2c-0.1,1.1,0.4,1.6,1.5,1.8c3.5,0.6,7.1,1.3,10.6,2
		c0.5,0.1,1.1,0.7,1.3,1.2c0.9,2.9,1.7,5.9,2.7,8.8c0.3,1,0.2,1.5-0.5,2.3c-2.8,2.7-5.5,5.5-8.3,8.3c2.4,4.7,5.8,8.5,9.7,12.1
		c3.2-2.2,6.4-4.2,9.4-6.5c1.2-0.9,2-0.7,3.2,0c2.6,1.6,5.2,2.9,7.9,4.2c0.9,0.4,1.3,0.8,1.3,1.9c-0.1,3.9,0,8.4,0,12.6l1.9,0.1
		c3.9,0.3,7.9,0.5,11.8,0.8c1.3,0.1,1.8-0.3,2-1.6c0.5-3.4,1.4-6.7,2-10.1c0.2-1,0.6-1.5,1.8-1.7c2.9-0.7,5.8-1.5,8.6-2.6
		c1-0.4,1.6-0.3,2.3,0.4c2.5,2.5,5,5,7.5,7.5c0.8,0.8,1.4,1.1,2.6-0.3c2.5-2.9,5.5-5.2,8.8-7.2c1.4-0.8,1.5-1.5,0.8-2.5
		c-2-2.9-3.9-5.9-6-8.8c-0.5-0.8-0.5-1.2,0-2.1c1.7-2.8,3.2-5.7,4.7-8.7c0.5-0.9,0.8-1.4,2-1.4c3.9,0,7.8-0.1,11.6-0.1l0.6-1.6
		c0.3-1.7,0.6-3.4,0.7-5.1c0.2-2.5,0.2-5,0.4-7.4c0.1-1-0.4-1.3-1.3-1.4c-3.9-0.7-7.9-1.5-11.4-2.1c-1.3-3.8-2.5-7.3-3.6-10.8
		c-0.2-0.5,0-1.4,0.4-1.7c2.4-2.6,4.9-5.1,7.5-7.5c1.2-1.1,1.1-2-1.5-3.7s-4.5-4.2-5.7-7C896.7,51,895.9,51.5,895,52.1z
		 M888.1,103.1c-7.6,14.4-25.5,20-40,12.4c-14.4-7.6-20-25.5-12.4-40c7.6-14.4,25.5-20,40-12.4C890.1,70.7,895.7,88.6,888.1,103.1z"
		/>
	<path class="st8" d="M837.9,76.6c-7.1,13.4-1.9,30.1,11.5,37.1c13.4,7.1,30.1,1.9,37.1-11.5c7.1-13.4,1.9-30.1-11.5-37.1
		C861.6,58,845,63.2,837.9,76.6z M879.8,96.2c-3.4,9.7-14.4,14.7-24.3,11.2c-9.7-3.5-14.8-14.4-11.2-24.2
		c3.5-9.8,14.2-14.8,24.2-11.3C878.4,75.5,883.4,86.2,879.8,96.2z"/>
	<path class="st9" d="M848.9,110.1c6.7,4.3,15.2,5,22.6,2.1l-0.2-0.5c-7.3,2.9-15.5,2.1-22.1-2.1c-11.4-7.2-14.7-22.3-7.5-33.7
		l-0.4-0.3C833.8,87.4,837.3,102.8,848.9,110.1z"/>
	<path class="st9" d="M856,65.5c5.2-1.4,10.9-1,15.8,1.1l0.2-0.4c-5.1-2.2-10.8-2.6-16.1-1.2L856,65.5z"/>
	<path class="st9" d="M882.8,102.2l0.4,0.3c4.9-7.8,5.2-17.6,0.6-25.6l-0.4,0.2C887.9,85,887.6,94.6,882.8,102.2z"/>
	<path class="st10" d="M842.1,61.8c-8.8,6.4-14.1,16.8-14.1,27.8h0.7c0-10.7,5.1-20.9,13.8-27.2c15-10.9,36-7.6,46.9,7.4l0.5-0.4
		C878.8,54.1,857.4,50.7,842.1,61.8z"/>
	<path class="st11" d="M895.6,93.4c-0.9,7.4-4.2,14.4-9.5,19.6l0.5,0.5c5.3-5.4,8.7-12.5,9.6-20L895.6,93.4z"/>
</g>
<g>
	
		<linearGradient id="SVGID_10_" gradientUnits="userSpaceOnUse" x1="876.974" y1="453.4869" x2="923.8507" y2="453.4869" gradientTransform="matrix(0.9895 -0.1439 -0.1439 -0.9895 -31.0685 628.8899)">
		<stop  offset="0.1453" style="stop-color:#F1F1F1"/>
		<stop  offset="0.2598" style="stop-color:#E7E7E7"/>
		<stop  offset="0.4022" style="stop-color:#E4E4E4"/>
		<stop  offset="0.5858" style="stop-color:#DEDEDE"/>
		<stop  offset="0.8323" style="stop-color:#CDCDCD"/>
		<stop  offset="0.8659" style="stop-color:#CACACA"/>
	</linearGradient>
	<circle class="st12" cx="794.6" cy="50.6" r="23.4"/>
	<path class="st8" d="M807.6,20.8c-1.4,1.8-2.9,3.6-4.4,5.5c-0.4,0.6-0.8,0.7-1.7,0.4c-1.8-0.5-3.7-0.9-5.6-1.1
		c-1.2-0.1-1.6-0.2-1.8-1.1c-0.6-2.2-1.4-4.4-2-6.6c-0.2-0.8-0.7-1-1.9-0.4c-2,1-4.1,1.4-6.3,1.4c-1.5,0-2,0.2-1.8,1.2
		c0.3,2.4,0.5,4.7,0.8,7.1c0.1,0.7-0.1,1-0.7,1.4c-1.8,1.2-3.4,2.4-5.2,3.6c-0.3,0.2-0.8,0.2-1.1,0c-2.3-1.2-4.6-2.4-7-3.6
		c-2.3,2.3-4,5-5.4,8c-0.1,0.2,0.2,0.8,0.5,1.1c1.7,1.5,3.5,2.9,5.3,4.3c0.7,0.5,0.8,1,0.5,2c-0.5,1.8-0.8,3.7-1,5.6
		c-0.1,0.7-0.3,1-0.9,1.2c-2.5,0.8-5,1.6-7.6,2.4c0.1,1.3,0.2,2.6,0.5,3.9c0.4,1.8,0.9,3.5,1.3,5.2c0.2,0.7,0.6,1,1.3,0.8
		c2.4-0.3,4.7-0.6,7.1-0.8c0.3,0,0.8,0.2,1,0.5c1.2,1.7,2.2,3.4,3.4,5c0.4,0.6,0.4,0.9,0.1,1.5c-1.2,2.3-2.4,4.5-3.6,6.9
		c2.5,2.5,5.3,4.2,8.5,5.7c1.6-2,3.2-3.9,4.7-6c0.6-0.8,1.1-0.9,2-0.6c1.9,0.5,3.9,0.8,5.8,1.1c0.6,0.1,1,0.2,1.2,0.9
		c0.7,2.5,1.6,5.3,2.5,8l1.2-0.3c2.5-0.6,5.1-1.2,7.6-1.8c0.8-0.2,1.1-0.5,1-1.4c-0.3-2.2-0.5-4.5-0.7-6.7c-0.1-0.7,0.1-1,0.8-1.4
		c1.7-1,3.4-2.1,4.9-3.3c0.6-0.4,1-0.5,1.5-0.2c2.1,1.1,4.1,2.2,6.2,3.3c0.7,0.4,1.1,0.4,1.6-0.7c1-2.3,2.4-4.4,4.1-6.3
		c0.7-0.8,0.6-1.2,0-1.7c-1.8-1.4-3.6-2.9-5.5-4.4c-0.5-0.4-0.6-0.7-0.4-1.3c0.5-2.1,0.9-4.3,1.2-6.4c0.1-0.7,0.2-1.1,1-1.3
		c2.5-0.7,4.9-1.6,7.3-2.4l0.1-1.2c-0.2-1.1-0.3-2.3-0.5-3.4c-0.4-1.6-0.8-3.2-1.2-4.8c-0.2-0.6-0.5-0.7-1.1-0.7
		c-2.6,0.3-5.2,0.6-7.6,0.9c-1.6-2.1-3-4.1-4.4-6.1c-0.2-0.3-0.3-0.9-0.1-1.2c1-2.1,2.1-4.2,3.2-6.2c0.5-0.9,0.3-1.5-1.7-2
		c-2-0.6-3.7-1.7-5-3.3C808.5,19.7,808.1,20.2,807.6,20.8z M813.3,54.3c-2,10.6-12.2,17.7-22.8,15.7s-17.7-12.2-15.7-22.8
		s12.2-17.7,22.8-15.7C808.2,33.5,815.3,43.7,813.3,54.3z"/>
	<path class="st13" d="M776.4,47.5c-1.8,9.9,4.7,19.4,14.6,21.2c9.9,1.8,19.4-4.7,21.2-14.6s-4.7-19.4-14.6-21.2
		C787.7,31.1,778.2,37.6,776.4,47.5z M806.7,51.6c-0.3,6.8-6.2,12.1-13.1,11.9c-6.8-0.3-12.2-6.2-11.9-13.1s6.1-12.1,13-11.9
		C801.7,38.8,807,44.6,806.7,51.6z"/>
	<path class="st14" d="M789.9,66.5c5.1,1.4,10.6,0.2,14.7-3.1l-0.2-0.3c-4,3.3-9.4,4.4-14.4,3.1c-8.6-2.3-13.7-11.2-11.4-19.8
		l-0.3-0.1C776,55.1,781.2,64.2,789.9,66.5z"/>
	<path class="st9" d="M785.6,37c3-1.9,6.7-2.8,10.2-2.4v-0.3c-3.6-0.4-7.3,0.5-10.4,2.4L785.6,37z"/>
	<path class="st14" d="M809.8,54.8l0.3,0.1c1.6-5.9-0.2-12.1-4.6-16.3l-0.2,0.2C809.6,42.9,811.4,49.1,809.8,54.8z"/>
	<path class="st15" d="M776.1,37.3c-4.3,5.8-5.6,13.4-3.4,20.3l0.4-0.1c-2.1-6.8-0.9-14.2,3.4-19.9c7.3-9.8,21.2-11.9,31.1-4.6
		l0.3-0.4C797.8,25.2,783.6,27.3,776.1,37.3z"/>
	<path class="st15" d="M816.1,46.8c0.9,4.8,0.2,9.9-2.1,14.3l0.4,0.2c2.3-4.4,3.1-9.6,2.1-14.5H816.1z"/>
</g>
<g>
	<g>
		
			<linearGradient id="SVGID_11_" gradientUnits="userSpaceOnUse" x1="3259.3508" y1="-2353.4177" x2="3333.7466" y2="-2353.4177" gradientTransform="matrix(-0.207 -0.9783 0.9783 -0.207 3059.0103 2913.1589)">
			<stop  offset="0" style="stop-color:#315777"/>
			<stop  offset="0.1886" style="stop-color:#355F7E"/>
			<stop  offset="0.4738" style="stop-color:#417393"/>
			<stop  offset="0.8185" style="stop-color:#5595B4"/>
			<stop  offset="1" style="stop-color:#61AAC8"/>
		</linearGradient>
		<polygon class="st16" points="86.7,210.5 59.1,140.3 85.6,192.1 		"/>
		<path class="st17" d="M116,188.6c0,0-46.3-37.8-56.9-48.3c0,0,4.5,50.6,3.2,66.3l23.3-14.5l7.9-2.8L116,188.6z"/>
		
			<linearGradient id="SVGID_12_" gradientUnits="userSpaceOnUse" x1="3259.3508" y1="-2349.2634" x2="3333.7466" y2="-2349.2634" gradientTransform="matrix(-0.207 -0.9783 0.9783 -0.207 3059.0103 2913.1589)">
			<stop  offset="0" style="stop-color:#61AAC8"/>
			<stop  offset="0.2679" style="stop-color:#5FA7C5"/>
			<stop  offset="0.4737" style="stop-color:#5A9DBC"/>
			<stop  offset="0.6587" style="stop-color:#508DAC"/>
			<stop  offset="0.8304" style="stop-color:#437695"/>
			<stop  offset="0.9934" style="stop-color:#325878"/>
			<stop  offset="1" style="stop-color:#315777"/>
		</linearGradient>
		<polygon class="st18" points="86.7,210.5 85.6,192.1 59.1,140.3 93.5,189.3 		"/>
	</g>
	<g>
		<g>
			<path class="st19" d="M86.9,213l1-0.2c0,0,0.3,1.1,0.5,3l-1,0.1C87.2,214.1,86.9,213.1,86.9,213z"/>
			<path class="st19" d="M0.9,297.5c0.2-0.3,0.4-0.6,0.7-0.9l0.8,0.6c-0.2,0.3-0.5,0.6-0.7,0.9c-1,1.3-2,2.7-2.9,4l-0.8-0.6
				C-1.1,300.2-0.1,298.9,0.9,297.5z M5.6,291.9c1.4-1.5,2.8-3,4.3-4.4l0.7,0.7c-1.4,1.4-2.9,2.8-4.2,4.4L5.6,291.9z M14.5,283.4
				c1.6-1.3,3.3-2.5,5-3.6l0.6,0.8c-1.7,1.1-3.3,2.3-4.9,3.6L14.5,283.4z M24.8,276.6c1.8-1,3.7-1.9,5.6-2.7l0.4,0.9
				c-1.9,0.8-3.7,1.7-5.5,2.6L24.8,276.6z M36.1,271.8c1.9-0.6,4-1.1,6-1.6l0.2,1c-2,0.4-4,1-5.9,1.6L36.1,271.8z M48.1,268.8
				c2-0.5,4-1.1,5.8-1.8l0.3,0.9c-1.9,0.7-3.9,1.3-5.9,1.8L48.1,268.8z M87.9,222h1c0,2.1-0.1,4.2-0.3,6.2l-1-0.1
				C87.8,226.1,87.9,224,87.9,222z M59.6,264.8c1.9-0.8,3.7-1.8,5.4-2.7l0.5,0.9c-1.7,1-3.6,1.9-5.5,2.8L59.6,264.8z M86.5,234
				l1,0.2c-0.5,2-1.1,4-1.8,5.9l-0.9-0.4C85.5,238,86.1,236,86.5,234z M70.1,258.7c1.7-1.2,3.2-2.5,4.6-3.9l0.7,0.7
				c-1.5,1.4-3.1,2.7-4.7,4L70.1,258.7z M82.1,245.3l0.9,0.5c-1,1.8-2.2,3.5-3.4,5.2l-0.8-0.6C80,248.7,81.1,247,82.1,245.3z"/>
		</g>
	</g>
</g>
<g>
	<path class="st20" d="M91.3,326.5l-15.7,4.2c-5.4,1.4-10.9-1.8-12.4-7.2l-1.5-5.6c-1.4-5.4,1.8-11,7.2-12.5l15.7-4.2
		c0.8-0.2,1.7,0.3,1.9,1.1l5.9,22.2C92.6,325.4,92.1,326.3,91.3,326.5z"/>
	
		<linearGradient id="SVGID_13_" gradientUnits="userSpaceOnUse" x1="159.5836" y1="256.2095" x2="443.1489" y2="256.2095" gradientTransform="matrix(0.9668 -0.2555 -0.2555 -0.9668 97.9558 574.6215)">
		<stop  offset="0.1453" style="stop-color:#7EB8EE"/>
		<stop  offset="0.6961" style="stop-color:#76ABDD"/>
		<stop  offset="1" style="stop-color:#70A2D2"/>
	</linearGradient>
	<path class="st21" d="M301.1,179c-44.3,24.2-108.9,48.5-108.9,48.5l-2.7,54.3l3.4,27.4l28.2,27.4c0,0,68.1-11.3,118.4-12.6
		c52.6-1.4,161.1,39.6,161.1,39.6l-38.7-146.1l-2-7.5L421.2,63.8C421.2,63.8,347.4,153.7,301.1,179z"/>
	
		<ellipse transform="matrix(0.9669 -0.2553 0.2553 0.9669 -37.085 130.033)" class="st22" cx="482.4" cy="207.9" rx="56.4" ry="171.3"/>
	<g>
		
			<linearGradient id="SVGID_14_" gradientUnits="userSpaceOnUse" x1="425.6141" y1="256.3625" x2="511.7079" y2="256.3625" gradientTransform="matrix(0.9668 -0.2555 -0.2555 -0.9668 97.9558 574.6215)">
			<stop  offset="0" style="stop-color:#A1DBE5"/>
			<stop  offset="0.4186" style="stop-color:#C4E4EA"/>
			<stop  offset="0.7761" style="stop-color:#DBEBEE"/>
			<stop  offset="1" style="stop-color:#E4EDEF"/>
		</linearGradient>
		<path class="st23" d="M443.6,55.3c-17.9,4.8-23.2,46.8-15.4,102.9c27-6.5,54.3,9.8,61.5,37l5.3,20c7.2,27.2-8.5,55-35.1,62.9
			c21,52.4,46.3,86.3,64.2,81.5c23.9-6.4,25.3-79.8,3.1-163.8C504.9,111.9,467.5,48.9,443.6,55.3z"/>
		
			<linearGradient id="SVGID_15_" gradientUnits="userSpaceOnUse" x1="422.0101" y1="256.1769" x2="475.6666" y2="256.1769" gradientTransform="matrix(0.9668 -0.2555 -0.2555 -0.9668 97.9558 574.6215)">
			<stop  offset="0.1453" style="stop-color:#7A78F9"/>
			<stop  offset="0.1747" style="stop-color:#7A7AF9"/>
			<stop  offset="0.5883" style="stop-color:#7B96F8"/>
			<stop  offset="0.8296" style="stop-color:#7CA0F7"/>
		</linearGradient>
		<path class="st24" d="M495,215.2l-5.3-20c-7.2-27.2-34.6-43.5-61.5-37c2.6,19,6.7,39.7,12.4,60.9c5.6,21.3,12.2,41.2,19.4,59
			C486.5,270.2,502.1,242.3,495,215.2z"/>
	</g>
	<path class="st25" d="M150.3,360.3c0,0,6.5,49.9,21.9,82.4s45.5,43.5,45.5,43.5s13.7,3.5,23.5-3.1c9.8-6.6,22.3-19.9,26.3-29.8
		c4-9.9,2.4-13.7-10.6-14.1c-12.9-0.5-50.1-29.2-46.7-99.2L150.3,360.3z"/>
	<path class="st26" d="M189.5,347.8c-1.1,2.5-0.1,7,0.1,9.7c0.9,16.1,2.5,32.5,8.2,47.6c5.5,14.7,14,28.4,23.9,40.5
		c8.6,10.4,20,18.9,33.6,21c1.1,0.2,2.4,0.3,3.4-0.2c0.8-0.4,1.4-1.1,2-1.7c3.9-4.7,9.4-12.6,8.8-19.2c-0.5-5.9-8-6.1-12.5-6.3
		c-12.9-0.5-50.1-29.2-46.7-99.2c-4,1.4-8.1,2.7-12.1,4.1c-2.1,0.7-5.9,1.2-7.7,2.5C189.9,347,189.7,347.4,189.5,347.8z"/>
	
		<linearGradient id="SVGID_16_" gradientUnits="userSpaceOnUse" x1="47.1791" y1="254.9554" x2="196.1763" y2="254.9554" gradientTransform="matrix(0.9668 -0.2555 -0.2555 -0.9668 97.9558 574.6215)">
		<stop  offset="0.1704" style="stop-color:#7CA0F7"/>
		<stop  offset="0.4165" style="stop-color:#7C9DF7"/>
		<stop  offset="0.6044" style="stop-color:#7B93F8"/>
		<stop  offset="0.7726" style="stop-color:#7B83F8"/>
		<stop  offset="0.8547" style="stop-color:#7A78F9"/>
	</linearGradient>
	<path class="st27" d="M237.5,336.9c3.2,3.3-1.4,9-5.9,10.2l-83.5,22.5c-28.6,7.7-57.9-9.5-65.6-38.3l-7.9-29.7
		c-7.6-28.9,9.4-58.4,38-66.1l83.5-22.5c4.4-1.2,9,1.5,10.1,5.9C206.4,218.9,178.2,277.3,237.5,336.9z"/>
</g>
<g>
	<path class="st28" d="M570.8,286.7l-1-1.5c-0.2-0.3-0.8-0.9-1.3-0.6c-0.1,0-0.2,0.1-0.3,0.1c0.2,0.6,1.3,2.5,1.6,3.2
		s2.9,3.4,2.9,3.4l-0.2,2.6l4.1-0.4l-0.2-2.1l1-2.5l-0.2-5.1l-0.4-0.5c-0.1-0.1-0.2-0.2-0.4-0.2l-0.5-0.1l-0.7-0.8
		c-0.1-0.2-0.3-0.3-0.6-0.2H574c-0.1,0-0.3,0-0.4-0.1l-0.5-0.4c-0.1,0-0.2,0-0.3,0c-0.5,0.1-0.9,0.5-0.9,0.5l-1-4.4
		c-0.1-0.3-0.2-0.6-0.3-0.8l-0.2-0.3c-0.2-0.3-0.6-0.3-0.8,0.1c-0.2,0.5-0.2,1.1-0.2,1.6l0.7,4.8C570.1,283,570.1,284.6,570.8,286.7
		z"/>
	<g>
		<path class="st29" d="M554.4,471.4l2.4,12.2c0,0,3.5,2.2,6.7,0.1l-3.2-10.9C560.2,472.8,554.2,471.1,554.4,471.4z"/>
		<path class="st30" d="M560.3,477.6c0,0,1.4,3.4,3.3,4.1c1.9,0.7,3.6,0.1,6.3-1c3.5-1.4,10.2,2.3,3.1,3.6
			c-1.1,0.2-6.9,1.1-10.1-0.5c-1.6-0.8-2.9-3.2-2.6-4.1V477.6z"/>
	</g>
	<g>
		<g>
			<g>
				<path class="st29" d="M511.6,471.8l-0.3,12.3c0,0,3.4,2.4,6.7,0.5l-0.6-11.1C517.3,473.6,511.4,471.6,511.6,471.8z"/>
			</g>
			<g>
				<path class="st29" d="M516.6,481.5c2.3-1.1,6.7,3.2,2,3.8c-0.7,0.1-4.5,0.5-6.6-1.3C510.9,483.1,514.8,482.3,516.6,481.5z"/>
			</g>
		</g>
	</g>
	<path class="st31" d="M562.6,400.7c0,0-0.9-24.3-3.9-45.8c-1.5-3.5-17-3.1-17-3.1c-5.6,2.8-6.1,12.9-5,18.8
		c1.2,6.5,4.8,33.9,6.6,40.8c2.1,14.9,5.2,46.9,8.3,59.3c0.6,2.3,2.6,3.7,4.9,3.5c2-0.2,3.6-0.3,4.8-0.6c0.9-0.3,2.5-1.9,2.5-2.8
		C564.5,459.4,563.2,417.8,562.6,400.7z"/>
	<path class="st32" d="M548.6,358.1c2.2-9.8-22.7-9.4-22.7-9.4c-1.6,0.5-6.6,1.8-7.1,14.6c-0.3,8.2-4.3,36.3-3.3,49
		c-6,27.4-6.5,46.2-6.8,56.2c0,1.7,0.9,3.3,2.4,3.8c1.4,0.5,3.1,1.1,4.7,1.4c1.7,0.3,3.4-0.8,4-2.6c4.3-12.8,13.3-52.7,13.2-55
		c3.8-8.7,7-21,9.5-29.8C544.8,378.5,546.2,369,548.6,358.1z"/>
	<path class="st33" d="M544,291.4c-1.9,0.8-3.3,10.8-2.5,12.9c1.5,3.9,9.5,17.2,9.5,17.2c12.1,16.6,18.2,10.4,18.2,10.4
		c3.2-3,2.9-6.8-3.9-15.7L544,291.4z"/>
	<path class="st33" d="M575.9,293.3l-1.7-0.3c-1.7-0.3-3.5,1-3.9,3c-0.7,3.6-2.1,8.8-4.3,13.9c0,0,0,0,0,0.1l-2.2,5
		c-3.3,7.6-5,14.6-0.4,16.9c0,0,7.3,6.7,11.9-13.3l1-5.5V313c1.1-6.1,1.9-12.3,2.1-16.2C578.4,295.1,577.4,293.6,575.9,293.3z"/>
	<g>
		<path class="st34" d="M546.1,264.3c0,0,0.8,6.2-0.8,9.3c0,0-5.1-4.4-4.9-6.7C540.6,264.5,544.8,260.6,546.1,264.3z"/>
		<path class="st28" d="M532.5,281.9l-1.2,5.5l0.8,2.9c1.3,1.2,10.5,8.3,10.6,5.9l-1.3-7.4l-0.5-4.1c0,0,2.7-0.3,3.2-2.7
			c0.6-2.6,2.3-11.1-0.3-13.9c-1.1-2.1-3.4-2.6-3.4-2.6s-5.5-2.3-7.9,1.6c-2.3,4-2.5,6.3-2.8,7.9
			C529.6,276.6,531.3,281.1,532.5,281.9z"/>
		<path class="st35" d="M532.7,274.8l0.7-5.6c0,0,6.5,2.2,10.8-0.6c8.3-1.7,5.6-4.8,3.8-6c-3-1.9-5.5-1.5-6.3-0.2
			c0,0-12.8-4.2-14.2,8.6c0,0-1.8,0.5-1.6,3s6.3,8.3,6.3,8.3l-0.6-3.7c0,0-2.2-3.1-0.7-4.7C532.3,272.3,532.7,274.8,532.7,274.8z"/>
		<path class="st36" d="M540.9,284.7l1,7.3c0,0-4.1-3.7-5.7-8.3C536.2,283.8,538.2,285.2,540.9,284.7z"/>
	</g>
	<path class="st29" d="M519,297.2c2-5.3,7.4-6.9,10.6-7.8l0.6-2.8c0.1-0.5,0.7-0.8,1.1-0.4c1.7,1.5,5.5,2.4,10.7,0.9
		c0.5,0,1,0.5,1,1.2c0,0.4,0.1,1.4,0.3,2.3c0.1,0,0.1,0.1,0.2,0.1c4.8,3.5,6.2,9.1,8.1,14.5c3.3,9.5,10.8,50.3,5.6,52.6
		c-3.7,1.6-29.6,2.1-37.5,1.4c-2.4-0.2-2.2-3.7-2.2-3.7C517.7,348.3,516.1,305.1,519,297.2z"/>
	<path class="st33" d="M523.6,291c6.2-0.7,2.4,8.3,0.3,14.9c-5.5,17.8-3.2,23.5-2.3,25.4c1.1,2.3-2.4,11.6-3.6,11.7
		c-4.2,0.4-8.4-3-9.5-5.5c-2-4.4-2.4-11.5-2.1-16.2c0.3-5.7,2.5-12.7,5.5-18.6C513.5,299.5,519,291.6,523.6,291z"/>
	<path class="st28" d="M546.7,323.9c0.2,0.1,0.9,0.5,0.1,1.8c-0.8,1.3-1.1,1.5-1.1,1.5s3,0,3.8,0.1c0.8,0,2.8,0.3,3.3,0.5
		c0.4,0.1,1.3,0.4,1.3,0.8c0,0.3-0.5,0.5-0.8,0.6c0.4,0,0.8,0,1,0.1c0.4,0.1,1,0.3,1,0.8s-0.7,0.8-1,0.8c-0.3,0.1-0.7,0.1-1.2,0.1
		c0.1,0,0.1,0,0.1,0c0.3,0.1,1,0.2,1,0.6s-0.9,0.6-1.1,0.6c-0.2,0-0.6,0.1-1.2,0.2c0.3,0.1,0.7,0.2,0.7,0.4c0,0.3-0.7,0.6-0.9,0.6
		c-0.4,0.1-2.4,0.6-4.2,0.5l0,0c-0.4,0.1-0.8,0.1-2,0s-2.4-0.4-2.9-0.7c-0.5-0.2-1.4-0.9-1.4-0.9h-0.7l-0.1-4.2h1
		c0,0,0.4-0.7,0.8-0.9c0.4-0.2,1.4-0.8,1.9-1s1.1-0.5,1.5-1.1C545.8,324.5,546.5,323.9,546.7,323.9z"/>
	<path class="st33" d="M539.9,335c0.6-0.5,2-1.5,1.8-2.3c-0.4-1.6-1-5.3-1.8-5.2c-2.9,0.2-18.3,3.8-26.4,5.4
		c-4.2,0.6-5.1,4.2-4.7,5.1c1.4,3.1,2.9,6.5,8.9,6C517.7,344,534.2,340,539.9,335z"/>
</g>
<g>
	<g>
		<path class="st37" d="M643.9,145.4c1.2-0.1,2.3-0.2,3.5-0.3c23.3-0.5,42.8,20.9,43.2,39.8c0.2,7.7-3.6,13.8-6.7,20.6
			c-3.5,7.6-6.7,15.3-10,22.9c-1.6,3.6-4.1,7.6-4.6,11.3c-0.1,0.6-0.1,1.2-0.1,1.8l-39.2,0.9c-0.3-1.6-0.6-3-1.3-4.4
			c-6.1-12.6-12.2-25.2-18.7-37.6C597.4,176.8,619.4,148.3,643.9,145.4z"/>
		<path class="st38" d="M628.7,208.8c2.8,2.2,6.3,2.1,9.6,1.1c0.5,2.5,0.8,5.1,1.1,7.5c0.2,1.5,0.3,2.7,0.5,3.9l3.4,21.8l1.9-0.3
			l-3.4-21.7c-0.2-1.1-0.3-2.5-0.5-3.8c-0.3-2.6-0.5-5.4-1.2-8c2.9-1.2,5.4-2.9,6.9-4.1l0,0c0.6-0.4,1.3-0.8,1.8-1.3
			c0.2,0.1,0.3,0.2,0.5,0.3c2.3,1.6,5.4,3.7,8.9,4.8c0,0.3-0.1,0.5-0.1,0.8c-0.4,2.7-0.6,5.4-0.9,8l-2.7,24.9l1.9,0.2l2.7-24.9
			c0.3-2.6,0.5-5.3,0.9-8c0-0.2,0.1-0.4,0.1-0.5c1.4,0.3,2.7,0.4,4.1,0.3c2.1-0.2,3.7-0.7,5-1.7c1.6-1.4,2.4-3.5,1.9-5.3
			c-0.6-2.4-3.4-4-6-3.6c-2.2,0.4-4.2,2-5.4,4.3c-0.6,1.2-1,2.4-1.3,3.7c-3.1-1-5.9-2.8-8-4.4c0,0-0.1,0-0.1-0.1
			c1-0.9,1.8-2,2.7-3.1c0.6-0.9,1.5-2.3,1.6-3.9c0.2-2.5-1.5-5-3.8-5.8c-2.4-0.8-5.2,0.2-6.6,2.4c-1.3,2-1.2,4.8,0.2,7.2
			c0.7,1.4,1.8,2.5,2.9,3.4c-0.5,0.4-1,0.7-1.6,1l0,0c-1.2,0.9-3.6,2.6-6.2,3.7c-0.7-2.3-1.8-4.3-3.4-5.7c-1.8-1.6-4.1-2-6.3-1.3
			c-1.8,0.6-3.1,2.1-3.4,3.7C626.3,205.1,626.4,207,628.7,208.8z M660.4,207.4c0.3-1.1,0.5-2.2,1.1-3.2c0.9-1.8,2.5-3,4-3.3
			c0.2,0,0.4-0.1,0.5-0.1c1.5,0,3,0.9,3.3,2.2c0.3,1.1-0.3,2.5-1.3,3.3c-0.9,0.8-2.3,1.2-3.9,1.4
			C662.9,207.8,661.6,207.7,660.4,207.4z M646.2,198.3c-1-1.8-1.1-3.8-0.3-5.3c0.6-1,1.9-1.6,3.1-1.7c0.4,0,0.8,0,1.2,0.2
			c1.6,0.5,2.7,2.2,2.5,3.8c-0.1,1.2-0.7,2.3-1.3,3c-0.7,1.1-1.6,2.1-2.6,3C647.8,200.5,646.8,199.5,646.2,198.3z M628.4,204.4
			c0.2-0.9,1-1.8,2.2-2.2c1.5-0.5,3.1-0.2,4.4,0.9c1.4,1.2,2.3,2.9,2.8,4.9c-2.7,0.9-5.7,1-7.9-0.7
			C628.8,206.4,628.3,205.4,628.4,204.4z"/>
		<path class="st39" d="M629.9,241.6l39.4-0.9c0,0.6,0,1.2,0,1.8c0.2,5.4,1.7,12.3-0.6,17.4c-2.5,5.2-7.5,15.2-14.3,15.4l-7.9,0.2
			c-6.7,0.2-14.8-11.2-16-17.2c-0.2-0.8-0.2-1.6-0.2-2.4C630.1,251.5,630.8,246.2,629.9,241.6z"/>
	</g>
	<g>
		<path class="st40" d="M723.6,203c0.5-0.1,0.9-0.5,1-1.1c0.1-0.7-0.4-1.4-1.1-1.5l-23-3.7c-0.7-0.1-1.4,0.4-1.5,1.1
			c-0.1,0.7,0.4,1.4,1.1,1.5l23,3.7C723.2,203.1,723.4,203.1,723.6,203z"/>
		<path class="st40" d="M698.3,163.5c0.1,0,0.2-0.1,0.3-0.1l22.8-11c0.6-0.3,0.9-1.1,0.6-1.7c-0.3-0.6-1.1-0.9-1.7-0.6l-22.8,11
			c-0.6,0.3-0.9,1.1-0.6,1.7C697.2,163.3,697.8,163.5,698.3,163.5z"/>
		<path class="st40" d="M680.4,142.1c0.4-0.1,0.6-0.3,0.9-0.6l11.6-20.2c0.4-0.6,0.2-1.4-0.5-1.7c-0.6-0.4-1.4-0.2-1.7,0.5
			l-11.6,20.2c-0.4,0.6-0.2,1.4,0.5,1.7C679.8,142.1,680.2,142.2,680.4,142.1z"/>
		<path class="st40" d="M642.9,137.3c0.7-0.1,1.2-0.8,1-1.6l-4.5-23.2c-0.1-0.7-0.8-1.2-1.6-1c-0.7,0.1-1.2,0.8-1,1.6l4.5,23.2
			C641.5,136.9,642.1,137.4,642.9,137.3z"/>
		<path class="st40" d="M612.8,150c0.3-0.1,0.5-0.2,0.7-0.5c0.5-0.5,0.4-1.4-0.2-1.8l-18.9-15c-0.5-0.5-1.4-0.4-1.8,0.2
			c-0.5,0.5-0.4,1.4,0.2,1.8l18.9,15C612.1,150,612.5,150.1,612.8,150z"/>
		<path class="st40" d="M596.4,179.3c0.6-0.1,1.1-0.6,1-1.3c0-0.7-0.6-1.3-1.4-1.3l-23.2,1c-0.7,0-1.3,0.6-1.3,1.4
			c0,0.7,0.6,1.3,1.4,1.3l23.2-1C596.3,179.3,596.4,179.3,596.4,179.3z"/>
	</g>
</g>
<g>
	<g>
		<ellipse transform="matrix(0.1263 -0.992 0.992 0.1263 -54.3403 859.9774)" class="st41" cx="461" cy="460.8" rx="13" ry="24.1"/>
		<g>
			<path class="st42" d="M458.2,480.6c-15.2-1.9-26.2-10.8-25-20.1c1.2-9.3,14-15.1,29.2-13.2s26.2,10.8,25,20.1
				C486.3,476.8,473.5,482.6,458.2,480.6z M461.9,451.6c-12.4-1.6-23.6,2.8-24.5,9.5s8.9,13.7,21.3,15.3c12.4,1.6,23.6-2.8,24.5-9.5
				C484.1,460.2,474.3,453.2,461.9,451.6z"/>
			<path class="st25" d="M458.7,476.9c-15.2-1.9-26.2-10.8-25-20.1c1.2-9.3,14-15.1,29.2-13.2s26.2,10.8,25,20.1
				C486.8,473.1,473.9,478.9,458.7,476.9z M462.4,447.9c-12.4-1.6-23.6,2.8-24.5,9.5s8.9,13.7,21.3,15.3c12.4,1.6,23.6-2.8,24.5-9.5
				C484.6,456.5,474.8,449.5,462.4,447.9z"/>
			<g>
				<path class="st34" d="M426.4,472.7l10.1-4c0,0,1.2-0.7,3,1.7c1.2,1.6-0.7,2.2-0.7,2.2l-10.9,4.2L426.4,472.7z"/>
				<path class="st25" d="M433.6,479.1c1.7-1.6,1.2-5-1.2-7.6c-2.4-2.6-4.9-2.9-7.5-1.7l-24,10.5l7.7,10L433.6,479.1z"/>
				<path class="st43" d="M407.8,482.5c2.4,2.6,2.9,6,1.2,7.6c-1.7,1.6-5.1,0.9-7.5-1.7s-2.9-6-1.2-7.6
					C402.1,479.2,405.4,480,407.8,482.5z"/>
			</g>
		</g>
	</g>
	<path class="st4" d="M457.3,454.3c0,1.2-2.4,2.1-5.4,2.1s-5.4-0.9-5.4-2.1s2.4-2.1,5.4-2.1S457.3,453.1,457.3,454.3z"/>
	<path class="st4" d="M447.8,457.4c0,0.7-1.4,1.2-3.1,1.2s-3.1-0.5-3.1-1.2s1.4-1.2,3.1-1.2S447.8,456.7,447.8,457.4z"/>
</g>
<path class="st19" d="M872.9,220c-0.7-4.5-2.1-8.9-4.2-13c-1.9-3.8-4.3-7.3-7.8-9.9c-6.2-4.7-14.7-3.8-22.1-3.9c-0.2,0-0.4,0-0.6,0
	c-8.8-0.2-17-0.2-24.5-0.1c-12.5,0.2-23.5,0.7-33.2,1.5c-11.1,1.9-15,11.8-16.2,20.5c-0.6,4.8-1.2,9.6-1.3,14.5l0,0c0,0,0,0,0,0.1
	c0,2,0,4,0.2,6c0.4,3.6,1.3,7.3,2.7,10.6c1.8,5.6,2.6,12.6,14.4,13.7c-0.1,6.7,0.1,10.5-4.6,12.5c9.6-0.3,11.3-7.5,14.1-11.7
	c4.1,0.3,6.7,0.5,9.7,0.5c4.3,0,8.5,0.4,12.8,1.1c9.7,1.7,25.4,4.2,30.6,3.8c5.7-0.5,10.9-1.6,14.9-5.1c6-5.3,10.5-12.6,13-20.8
	C873.3,233.9,873.9,226.9,872.9,220z"/>
<g>
	<g>
		<g>
			
				<linearGradient id="SVGID_17_" gradientUnits="userSpaceOnUse" x1="1430.3726" y1="11.5403" x2="1430.3726" y2="52.8336" gradientTransform="matrix(-1 0 0 -1 2081.772 502)">
				<stop  offset="0.3631" style="stop-color:#5A61A1"/>
				<stop  offset="0.5338" style="stop-color:#5C66A4"/>
				<stop  offset="0.738" style="stop-color:#6475AC"/>
				<stop  offset="0.9587" style="stop-color:#6F8DB9"/>
				<stop  offset="1" style="stop-color:#7292BC"/>
			</linearGradient>
			<path class="st44" d="M570.1,449.2h177.7v4.2h-2.4c-6.7,0-12,5.4-12,12v8.8c0,6.7,5.4,12,12,12h2.4v4.2H570.1
				c-8.4,0-15.1-6.8-15.1-15.1v-11C554.9,455.9,561.7,449.2,570.1,449.2z"/>
			<path class="st45" d="M642,453.4h102.6c-4.6,1.8-9.3,6.3-9.3,11.5v9c0,6.8,4.3,12.4,9.3,12.4H642c-6.7,0-12.1-5.4-12.1-12v-8.8
				C629.9,458.8,635.3,453.4,642,453.4z"/>
			<path class="st46" d="M735.4,469.2v4.7c0,6.8,4.3,12.4,9.3,12.4H642c-6.7,0-12.1-5.4-12.1-12v-5h105.5V469.2z"/>
			<path class="st25" d="M640.6,449.2h107.1v4.2H642c-6.7,0-12.1,5.4-12.1,12v8.8c0,6.7,5.4,12,12.1,12h105.7v4.2H640.6
				c-8.4,0-15.3-6.8-15.3-15.1v-11C625.4,455.9,632.2,449.2,640.6,449.2z"/>
		</g>
		<path class="st47" d="M678.5,483.8c0,0-3.6-0.8-3.6-3.7c0-3.6,0-10.9,0-10.9H685c0,0,0,7.4,0,10.6s3.4,4,3.4,4s-5.4,0.3-7.9-2.5
			C680.5,481.2,679.5,481.9,678.5,483.8z"/>
	</g>
	<g>
		<g>
			
				<linearGradient id="SVGID_18_" gradientUnits="userSpaceOnUse" x1="1422.172" y1="52.922" x2="1422.172" y2="86.805" gradientTransform="matrix(-1 0 0 -1 2081.772 502)">
				<stop  offset="0" style="stop-color:#315777"/>
				<stop  offset="3.288124e-02" style="stop-color:#396483"/>
				<stop  offset="0.1307" style="stop-color:#4C86A1"/>
				<stop  offset="0.2307" style="stop-color:#5BA1B9"/>
				<stop  offset="0.3322" style="stop-color:#66B4CA"/>
				<stop  offset="0.4365" style="stop-color:#6DBFD4"/>
				<stop  offset="0.5475" style="stop-color:#6FC3D7"/>
				<stop  offset="0.694" style="stop-color:#74C4D7"/>
				<stop  offset="0.8691" style="stop-color:#83C7D9"/>
				<stop  offset="0.9749" style="stop-color:#8FCADA"/>
			</linearGradient>
			<path class="st48" d="M592.9,415.2h145.8v3.5h-2c-5.5,0-9.9,4.4-9.9,9.9v7.2c0,5.5,4.4,9.9,9.9,9.9h2v3.5H592.9
				c-6.9,0-12.4-5.6-12.4-12.4v-9.1C580.5,420.8,586,415.2,592.9,415.2z"/>
			<path class="st45" d="M652,418.7h84.2c-3.8,1.5-7.6,5.1-7.6,9.4v7.4c0,5.6,3.5,10.2,7.6,10.2H652c-5.5,0-10-4.4-10-9.9v-7.2
				C642,423.1,646.5,418.7,652,418.7z"/>
			<path class="st46" d="M728.5,431.6v3.9c0,5.6,3.5,10.2,7.6,10.2H652c-5.5,0-10-4.4-10-9.9v-4.1h86.5V431.6z"/>
			<path class="st49" d="M650.8,415.2h87.9v3.5H652c-5.5,0-10,4.4-10,9.9v7.2c0,5.5,4.5,9.9,10,9.9h86.7v3.5h-87.9
				c-6.9,0-12.5-5.6-12.5-12.4v-9.1C638.3,420.8,643.9,415.2,650.8,415.2z"/>
		</g>
	</g>
</g>
<g>
	<path class="st33" d="M706.1,463.2l7.8-3.9c1.5-0.7,3.3-0.1,4.1,1.4l8,16.3c0.7,1.5,0.1,3.3-1.4,4.1l-7.8,3.9
		c-1.5,0.7-3.3,0.1-4.1-1.4l-8-16.3C704,465.7,704.6,463.9,706.1,463.2z"/>
	
		<rect x="698.2" y="396.5" transform="matrix(0.8971 -0.4419 0.4419 0.8971 -118.3099 353.9683)" class="st50" width="4.9" height="68.9"/>
	
		<rect x="693.8" y="398.7" transform="matrix(0.8971 -0.4419 0.4419 0.8971 -119.7284 352.2517)" class="st25" width="4.9" height="68.9"/>
	
		<rect x="689.3" y="400.9" transform="matrix(0.8971 -0.4419 0.4419 0.8971 -121.1759 350.5002)" class="st51" width="4.9" height="68.9"/>
	<rect x="704.1" y="462.8" transform="matrix(0.897 -0.442 0.442 0.897 -131.961 362.3456)" class="st52" width="14.9" height="3"/>
	<path class="st53" d="M674.3,405.6l0.8-15.2l12.5,8.6C687.6,399,683.9,405.1,674.3,405.6z"/>
	<polygon class="st35" points="678.6,392.8 675.1,390.4 674.9,394.7 	"/>
</g>
<g>
	<g>
		<path class="st35" d="M612.6,381.4c-2.3-0.7-12.6-4.6-11.8-7.1c1.4-4.6,16-22.5,16-22.5c9.2-22.2,21.5-22,21.5-22
			c3.9,3.1,3.3,12.5-3.6,23.4L612.6,381.4z"/>
		<g>
			<g>
				<path class="st35" d="M592.7,469.1l0.3,10.2c0,0-2.8,2-5.5,0.4l0.5-9.2C588,470.6,592.9,468.9,592.7,469.1z"/>
				<path class="st35" d="M588.4,474.7c0,0,0.4,2.8-1.1,3.5s-3,0.2-5.2-0.5c-2.9-1-8.3,2.4-2.4,3.1c0.9,0.1,5.7,0.6,8.3-0.9
					c1.3-0.7,1.5-2.9,1.3-3.5L588.4,474.7z"/>
			</g>
			<g>
				<path class="st35" d="M615.2,470.3l-0.3,10.2c0,0-2.9,1.8-5.5,0.1l1-9.1C610.4,471.5,615.3,470.1,615.2,470.3z"/>
				<path class="st35" d="M610.5,475.6c0,0,0.3,2.8-1.3,3.4s-3,0.1-5.2-0.8c-2.9-1.1-8.4,1.9-2.6,3c0.9,0.2,5.7,0.9,8.3-0.4
					c1.3-0.6,1.6-2.8,1.5-3.5L610.5,475.6z"/>
			</g>
			<path class="st54" d="M638.2,328.7c-11.9,9.1-13.3,38.6-16.7,60c-0.1,0.4-0.2,3.4,0.1,4.1c1,3.4,8.9,6.5,22.3,6.3
				c11.9-0.2,22-3.1,24.5-7.1l0,0c0.1-0.1,0.1-0.2,0.2-0.3c0.5-1,0.7-2.2,0.6-3.5c-0.6-8.2-0.6-16.1-2.4-22.9
				c-6-31.5-11.2-35.4-11.7-35.4c-2-1.1-6.3-3-9.8-2.5C641.2,328.1,638.7,328.3,638.2,328.7z"/>
			<path class="st35" d="M639,328.5c-0.5,0.4-2.3,1.3-3.6,3.3c-2.8,4-7.8,15.3-5.1,32.7c2.9,19-1.9,29.7-1.3,40
				c0.1,2-0.4,9.1-5.1,6.6c-2.8-1.5-6.3-3.4-6.8-6.6c0.3-1.5,5-16.4,3.2-28.3c-2.1-13.8,0.6-28.5,5.9-37.4c2.6-4.4,7.9-8.1,9.3-9
				c1.6-1.1,4.1-2.1,4.1-2.1S639.1,328,639,328.5z"/>
			
				<linearGradient id="SVGID_19_" gradientUnits="userSpaceOnUse" x1="98.7059" y1="66.5227" x2="184.4555" y2="89.4992" gradientTransform="matrix(1 0 0 -1 477.5615 502)">
				<stop  offset="0.1453" style="stop-color:#C54994"/>
				<stop  offset="0.1925" style="stop-color:#B44387"/>
				<stop  offset="0.2858" style="stop-color:#883366"/>
				<stop  offset="0.4151" style="stop-color:#421932"/>
				<stop  offset="0.5279" style="stop-color:#000000"/>
			</linearGradient>
			<path class="st55" d="M657.2,395c-3.1-6.7-65.1-5.5-73.1-2.2c-2.4,1-5,4.9-5.3,8.4c-0.7,3.2-0.9,7.2-0.5,11.5l0.8,8.5v0.1
				c1.5,18.2,4.3,40.2,6.9,50.5c1.3,0.9,5,0.3,7.5-0.3c1.5-0.4,2.6-1.9,2.7-4c0.7-10.2,2-28.3,0.2-54.8c12.4,1,29.6,1.1,35.4,1.4
				c11.2,0.5,25.1-7.4,25.6-13.1C657.4,401,657.2,395,657.2,395z"/>
			<path class="st33" d="M675.7,395c-2.8-6.7-59.9-5.4-67.3-2.1c-2,0.9-4.7,3.5-5.8,8c-1.1,3.3-1.6,8-1.3,13.1l0.5,8.5v0.1
				c1.1,18.2,3.3,40.3,5.6,50.7c1.2,1,5,0.4,7.5-0.1c1.5-0.3,2.6-1.9,2.8-3.9c1-10.3,2.8-28,1.7-55.1c8,0,37.6,0,43.6,0
				c10.4,0,13-7.3,12.9-13.1C675.8,401,675.7,395,675.7,395z"/>
			<path class="st35" d="M650.9,380.3c-1.6,5.2-7.1,25.6,0.2,28.6c8.8,3.5,30.6-0.3,27.1-9.6c-2.3-6.2-1-15.5-1-15.5
				s0.9-17.6-1.3-31.7c-1.8-11.3-12.4-21.7-26-24.7c-1.4,0.4-0.6,1.3,0.2,1.8c0.6,0.4,1,1,1.1,1.7c1.3,5.2-2.3,9.9-0.6,16.2
				C653.8,360,653.3,367.8,650.9,380.3z"/>
			<path class="st56" d="M677.3,381.6c0,1.7-0.9,3.3-2.3,4.4c-1.1,0.9-2.4,1.8-3.1,2.3c-4.3,2.7-8.3,3.9-13.6,5
				c-3.3,0.7-6.1,0.2-9.4,0.5c0.8-4,1.7-9.1,2.2-12c7-4.6,15.3-4.8,15.8-5.8c1.9-3.4-4.8-15.2-7.5-20.9c-7.3-15.4,1.1-19.7,3.7-21.9
				c6.9,4.8,11.6,11.7,12.8,18.9C677.6,363,677.5,376.1,677.3,381.6z"/>
			<path class="st35" d="M633.8,316.4c0,0-2-1.3-2.7-2.9s-0.1-3.2-0.1-3.2s-2.4-1.4-1-3.3c1.4-1.8,9.5-1.7,9.5-1.7L633.8,316.4z"/>
			<path class="st57" d="M650,314.6c0,0-0.7,12.1-0.8,15.6c0,0.4,0,2-1.6,2.9c-1,0.6-2.3,1.2-5.1,1.2c-1.5,0-3.4,0.1-5.4-1.3
				c-0.3-0.2-0.3-0.6-0.2-0.8c2.8-5.7,2-12.7,2-12.7l11.1-4.7"/>
			<path class="st58" d="M637,332.1c2-5.5,2-10.2,2-10.2s9.8-1.4,9.7-1.2C648.5,325.1,646,329.3,637,332.1z"/>
			<path class="st57" d="M633.5,309.5c-1.7,13.7,2.1,18.6,5.4,19c8.9,0.9,12.6-5.6,13.5-11.5c1-5.9-3.6-12-8-12.7
				C639.9,303.5,634.2,303.6,633.5,309.5z"/>
			<path class="st35" d="M629.5,302c1.2-1.5,2.7-3.6,7.4-0.3c1.1,0.8,2.4-1.2,5.8-1.4c5.2-0.4,5.4,2.6,8.6,3.3
				c2.2,0.5,2.1,2.3,4.5,5.2c1.5,1.9-0.7,3.8,0.5,5.7c1.4,2.2-2.8,3.2-2.7,4.9c0.3,3.9-2.9,5.8-3.9,7.4c-0.3,0.5-0.7-1.5-0.8-2
				c-0.6-2.4,0.7-4.8,0.7-4.9c1-0.3,3.5-1.5,2.2-5.3c-1.3-4.1-3.5,0.8-3.5,0.8s-0.8-2-0.6-3.3c0.4-2.8-2.5-3.5-6.3-2.7
				c-1.6,0.4-2.3-1.6-3.6-1.2c-2.1,0.7-4.2-0.3-5.6,0.8c-0.7,0.6-1.9-0.5-2.7-0.8C626.6,307.1,627.5,304.6,629.5,302z"/>
			<path class="st35" d="M633.6,321.3c0,0,1.4-1.4,2.6-1.5c1.2-0.1,4.5-1.1,6.4,0.7c1.9,1.8,2.6,1.1,3.1,0s1.5-7.3,2.3-8
				s0.3,5.1,0.3,5.1s-0.6,1.4-0.7,2.4c-0.1,1.1-0.5,2-0.3,3.1c0.1,1.2-0.1,2.9-0.7,3.5c-0.6,0.6-2.4,2-5.4,1.8
				c-3-0.1-3.9-0.1-5.1-1.7C634.7,325.3,633.6,323.6,633.6,321.3z"/>
			<path class="st57" d="M637.3,386.5c0,0-5.6-0.4-6.9-0.4c-1.4,0-3.6-0.2-4.3,0.1c-0.7,0.3-4.1,2.1-4.9,2.9
				c-0.7,0.8-0.9,1.1-0.7,1.5c0,0-0.2,0.3-0.1,0.6c0.1,0.3,0.5,0.4,0.7,0.3c0,0-0.1,0.3,0.5,0.3c0.2,0,0.5,0.1,1.1-0.4
				c0,0-0.1,0.1,0.2,0.3c0.3,0.3,1.6,0,2.2-0.2c0.7-0.2,2.2-0.2,2.6-0.3c0.3-0.1,1.2,0.4,2.3,0.5c1.2,0.1,3.8-0.2,5.6-1
				s5.7-0.8,5.7-0.8s0.2-3-0.1-3.4C640.9,386.1,639.4,386.4,637.3,386.5z"/>
			<path class="st35" d="M665.2,332.8c-2.1-1-4.6-2.2-7.2-1.8c-7.3,1.2-6.8,8.8-2.6,15.1c11.3,17,15.4,30.7,14.9,32.8
				c-0.6,2.6,6.3,3.8,7.6,3.3c1.4-0.5,6.7-1.9,6.7-4.8c0-5.6-1.7-14.9-3-19.7c-1.8-6.7-4.8-12.8-9.5-18.4
				C670.2,337.1,668.1,334.2,665.2,332.8z"/>
			<path class="st35" d="M637,392.3c-1-0.3-1.8-1-1.7-1.9c0.1-1.9,1.6-5.9,2.9-6.2c4.6-0.9,24-5.9,36.6-5.8c0.1,1.1,9.7-2.4,9.7-2.4
				c2.2,15.2-5.2,15.5-15.8,17.3C668.7,393.3,647.6,395.4,637,392.3z"/>
			<g>
				<path class="st59" d="M631.4,394.6h-49.1c-0.2,0-0.4-0.1-0.5-0.4L569.7,357c-0.1-0.3,0.1-0.7,0.5-0.7h48.3
					c0.7,0,1.4,0.5,1.6,1.2l11.9,36.4C632,394.2,631.7,394.6,631.4,394.6z"/>
				<path class="st59" d="M662.8,393.8H616c-0.3,0-0.6-0.3-0.6-0.6v-0.6c0-0.3,0.3-0.6,0.6-0.6h46.8c0.3,0,0.6,0.3,0.6,0.6v0.6
					C663.4,393.5,663.1,393.8,662.8,393.8z"/>
				<path class="st15" d="M631.1,394.6h-48.5c-1,0-2-0.7-2.3-1.7l-11.4-35.1c-0.3-0.8,0.3-1.6,1.1-1.6h47c1,0,1.9,0.6,2.2,1.6
					L631.1,394.6z"/>
				<path class="st15" d="M662.4,394.6h-46.9v-1.8h48v0.7C663.4,394.1,662.9,394.6,662.4,394.6z"/>
			</g>
		</g>
	</g>
	<path class="st54" d="M601.7,378.2c0,1.7-2,3-4.4,3c-2.5,0-4.4-1.4-4.4-3c0-1.7,2-3,4.4-3C599.7,375.1,601.7,376.5,601.7,378.2z"/>
</g>
<g>
	<path class="st57" d="M722.8,300.7l0.4-1.2c0.2-0.8,0.1-1.6-0.3-2.2l0,0c-0.2-0.3-0.7-1.1-0.9-1.9s-0.3-1.1-0.3-1.4l0,0
		c-0.3-1.2-0.3-2.7-0.3-3c0-0.1,0.1-0.7,0.3-0.7s0.3,0.2,0.4,0.4c0-0.4,0-0.7,0-0.9c0-0.1,0-0.8,0.3-0.8c0.3-0.1,0.5,0.4,0.6,0.6
		c0,0,0,0,0,0.1c-0.1-0.4-0.1-0.7-0.1-0.9c0-0.2,0.1-0.7,0.4-0.8c0.3-0.1,0.6,0.3,0.7,0.6c0.1,0.1,0.1,0.3,0.2,0.6
		c0-0.3,0-0.6,0.3-0.7s0.6,0.5,0.8,0.7c0.2,0.3,0.6,1.6,0.8,2.2c0.1,0.4,0.5,1.9,0.7,2.7c0.1-0.4,0.2-0.7,0.2-0.7l0.3-0.7
		c0.1-0.5,0.7-1,0.8-0.6l0.2,1.8c0,0.3,0,0.6,0,0.9l-0.4,2.7c-0.1,0.7-0.2,1.1-0.7,2.2c-0.5,1-0.8,1.7-0.8,1.7l-0.9,2.1
		C725.5,303.7,724.5,303.2,722.8,300.7z"/>
	<path class="st60" d="M745.9,398.2c-0.3,6.8-0.8,15.4,0,22.8c-0.2,1.4-0.2,2.9-0.2,4.4c0,0,4.4,50.2,6.3,59.9
		c2.1,1.5,4.9-0.7,4.9-0.7c1.7-9.6,5.3-34.3,5-51.2v-0.1l-0.1-7.8c0-1.3-0.1-2.6-0.2-3.8C763.8,417.5,746.1,393.7,745.9,398.2z"/>
	<path class="st56" d="M744.7,351c-1.7,4.7-1.7,10.4-1.9,15.2c-0.4,7.3,0.6,41.2,1.4,49.1c-0.2,1.5,2.7,55,4.8,65.3
		c2.8,2.4,9.8-0.2,9.8-0.2c3.8-10.1,3.3-62.9,3.1-64.2c2.4-4.4,3.7-36,6.2-45.3c0.2-0.8,0.3-16.7,0.5-17.5
		C758.5,351.2,754.6,353.9,744.7,351z"/>
	<path class="st35" d="M750.9,290.4c-1.9,2.7-4.3,6.4-5.1,7.4c-0.9,1-2.3,3.4-1.4,6.1c0.9,2.7,6.6,5.1,10.3,4s8.8-3.7,9.1-9.8
		c0.3-6.1-0.3-17.9-0.3-17.9l-4.1-2.7C759.4,277.5,752.8,287.7,750.9,290.4z"/>
	<path class="st59" d="M723.1,299.7c-0.2,0.3,3.5,2.2,3.4,2.3c-2.5,4.1-4.2,16.2-4.6,19.7c0,0.3,0.2,0.6,0.5,0.5
		c4-0.9,23.1-24,30.5-26.4c1.7-0.6-3,15.1-3.2,15.4c-2.2,3.3-8.1,10.7-11.5,12.8c-14.7,8.8-19.8,8.2-23.2,6.4
		c-3.8-2.1-1.8-8.9-0.8-11.4C715.9,314.8,720.3,303.4,723.1,299.7z"/>
	<g>
		<polygon class="st60" points="757,483.2 757.3,488.7 747,492.8 752.1,483.7 		"/>
		<path class="st35" d="M740.7,496.5l9.5-0.3c0.8,0,1.6-0.4,2.2-1l3.8-3.9l0.1,4.8h1.4l1.2-5.4c0.3-1.2,0-2.4-0.7-3.5l-0.8-1.1
			c-0.2-0.3-0.6-0.3-0.8-0.1l-5.4,4.6c-1,0.9-2.3,1.5-3.6,1.6l-1.1,0.2c-0.8,0.1-1.6,0.3-2.4,0.6l-1.4,0.6c-0.1,0.1-0.4,0.3-0.7,0.5
			c-0.4,0.3-0.8,0.8-1.1,1.2l-0.5,0.9C740.4,496.2,740.5,496.5,740.7,496.5z"/>
	</g>
	<path class="st60" d="M788.9,419.5c0.7,1.6,1.4,3.4,1.9,5.4l2.1,7.9v0.1c3.4,17.1,7.4,39.8,8.4,50.3c0,0-3.5,1.8-5.9,0.7
		c-4.4-9.3-20.3-55.1-20.3-55.1c-0.9-3.3-1.3-6.5-1.2-9.3H788.9z"/>
	<g>
		<path class="st60" d="M800.5,480.9l1.2,6.6l-6.6,7.6l-7.6,0.1l4.8-3.8c0.5-0.4,0.9-1,1-1.7l1.3-7.5L800.5,480.9z"/>
		<path class="st35" d="M797.4,496.1l1-0.4c0.8-0.4,1.5-1,1.8-1.8l2.2-5.3l2,4.6l1.4-0.6l-1-5.7c-0.2-1.3-0.9-2.4-2-3.1l-1.2-0.8
			c-0.3-0.2-0.7-0.1-0.9,0.2l-1.2,4c-0.7,1.3-1.8,4-3.1,4.7l-2.7,1.1c-1.2,0.3-2.5-0.7-3.3-0.7l-2.8,1.5c-1.5,1-1.9,2-1.9,2.8
			L797.4,496.1z"/>
	</g>
	<path class="st61" d="M786.2,348.8c0.4,0.8,7.3,14.9,3,32.2c-0.5,18.3,0.4,35.8,0.7,36.9c0,0,10.9,43.7,11,59c0,0-6,4.8-9.5,2.4
		c-6.7-10.6-18.6-56.7-18.6-56.7c-0.9-3.5-13.2-70-13.1-72.9L786.2,348.8z"/>
	<path class="st59" d="M789.1,354.8c0,0-31.2,9.1-46.1,2.2c0,0,4-25.9,3.4-29.9s-5.2-4.6-5.1-8.9c0.2-6.2,5.8-15.1,10.4-21.3
		c3.5-3.3,6.1-3.7,6.4-4c2.5-0.7,5.3-0.6,7.7-0.4c6.7,0.9,8.4,1.7,11.3,5.7c4.7,9.3,1,23.8,2.3,38.3
		C783.4,342.2,789.1,354.8,789.1,354.8z"/>
	<path class="st59" d="M769.7,297.6c0,0,2.6-2.3,6.4,0.5c3.8,2.8,11.5,18.7,14.9,21.3c3.1,2.3,18.2-9.3,21-11.4
		c0.3-0.2,0.6-0.2,0.9,0l2.5,1.9c0.3,0.2,0.3,0.6,0.1,0.8c-2.3,3.1-15.5,20.1-23.5,21c-6.2,0.7-7.8-3.2-12-7.9
		c-4.1-4.8-11.5-17-12.7-20.3C766.2,300.2,769.7,297.6,769.7,297.6z"/>
	<path class="st60" d="M815.3,310.5l1.4-1.1c0.8-0.5,1.4-0.6,1.7-0.6c0.6,0.1,1.6,0.2,2.3,0.4c1.1,0.3,4.1-0.7,4.5-0.8
		c0.4-0.2,2.2-0.8,1.7-1.3c0.6-0.3,0.6-0.8,0.4-1c0.3-0.2,0.6-0.3,0.6-0.8c-0.1-0.5-1-0.3-1-0.3s0.7-0.7-1.4-0.7
		c-1.9,0-4.1,0.2-4.1,0.2l0.6-0.5c0.4-0.3,0.8-1,0.4-0.9l-1.8,0.2c-0.3,0-0.6,0.1-0.8,0.2l-3.1,1.4c-0.1,0-0.2,0.1-0.3,0.2l-4,3.2
		C812.1,308.3,812.5,309.7,815.3,310.5z"/>
	<path class="st60" d="M753.9,276.2c0,0-1.1,5.8-1.9,7c-0.8,1.2-1.3,3-1.2,4.8c0,1.6,0.3,2.6,2.6,2.6c2.6,0,2.1-0.1,2.1-0.1
		s0.2,3.1-0.3,4.5c-0.3,1-0.3,1-1.3,2.7c-0.4,0.7-0.6,1.6-0.1,2.2c0.8,0.9,2,1.7,3.8,1.4c2.9-0.4,6.5-3.2,6.5-3.2l-0.9-18.1
		c0,0-5.1-5.1-6.1-4.7C756.1,275.6,753.9,276.2,753.9,276.2z"/>
	<path class="st58" d="M760.3,288.9c0,0-1.8,3.2-4.9,5c0,0,0-1.5,0-3.4C755.4,290.5,757.2,290.4,760.3,288.9z"/>
	<path class="st35" d="M758.7,290c0,0-1.4,5.3-0.9,7.9s0.5,6,3.9,8.1c3.5,2.1,10,3,13.7,0.2s4.9-9.1,1.6-12.1
		c-3.3-3-6.3-2.8-6.5-6.5s2.1-6-0.2-9.8c-2.3-3.7-4.2-3.9-6.7-4.2c-2.6-0.2-2.8,0-4.2-1.2s-4.1-2.1-6-1.4s-3.3,1.9-3.3,2.3
		c0,0.3-0.4,2.5,3.5,3.8c0,0,1.1,2.1,5,2.2c1.9,0.3,3.1,2.1,2.7,3.9C760.7,285.1,759.1,288.8,758.7,290z"/>
</g>
<g>
	<path class="st54" d="M846.8,233.1c0-9.3,0-18.6,0-27.9c0-0.2,0-0.2,0.2-0.2c1.3,0,2.7,0,4,0c0.2,0,0.2,0,0.2,0.2
		c0,9.2,0,18.5,0,27.7c0,0.1,0,0.2,0,0.2h-0.1c-1.4,0-2.8,0-4.2,0C846.8,233.1,846.8,233.1,846.8,233.1z"/>
	<path class="st54" d="M806.4,235.4c0-7.9,0-15.9,0-23.8c0-0.2,0-0.2,0.2-0.2c1.3,0,2.7,0,4,0c0.2,0,0.2,0,0.2,0.2
		c0,7.9,0,15.8,0,23.7v0.1h-0.1c-1.4,0-2.8,0-4.2,0C806.5,235.4,806.5,235.4,806.4,235.4z"/>
	<path class="st54" d="M841,236.1c0-0.1,0-0.1,0-0.2c0-7.5,0-15,0-22.5c0-0.2,0-0.2,0.2-0.2c1.3,0,2.7,0,4,0c0.1,0,0.2,0,0.2,0.2
		c0,7.6,0,15.1,0,22.7c0,0,0,0,0,0.1l0,0c-0.1,0-0.2,0-0.2,0C843.8,236.1,842.4,236.1,841,236.1L841,236.1z"/>
	<path class="st54" d="M812.2,236.8c0-0.1,0-0.1,0-0.2c0-7.1,0-14.1,0-21.2c0-0.2,0.1-0.2,0.2-0.2c1.3,0,2.7,0,4,0
		c0.1,0,0.2,0,0.2,0.2c0,7.1,0,14.2,0,21.3c0,0.1,0,0.1,0,0.2c-0.6,0-1.3,0-1.9,0C813.9,236.8,813,236.8,812.2,236.8z"/>
	<path class="st54" d="M818,238.6c0-6.1,0-12.2,0-18.3c0-0.1,0-0.2,0.2-0.2c1.4,0,2.7,0,4.1,0c0.1,0,0.2,0,0.2,0.2
		c0,6.1,0,12.2,0,18.3c-0.5,0-1,0-1.5,0C819.9,238.6,819,238.6,818,238.6z"/>
	<path class="st54" d="M835.2,240c0-0.1,0-0.2,0-0.3c0-5.1,0-10.3,0-15.4c0-0.3,0-0.2,0.2-0.2c1.3,0,2.7,0,4,0c0.2,0,0.2,0,0.2,0.2
		c0,5.2,0,10.5,0,15.7l0,0C838.2,240,836.7,240,835.2,240L835.2,240L835.2,240z"/>
	<path class="st54" d="M800.7,240c0-3.6,0-7.3,0-10.9c0-1.6,0-3.2,0-4.8c0-0.1,0-0.2,0.2-0.2c1.4,0,2.7,0,4.1,0c0.2,0,0.2,0,0.2,0.2
		c0,5.2,0,10.5,0,15.7l0,0l0,0c-0.2,0-0.3,0-0.5,0C803.3,240,802,240,800.7,240L800.7,240z"/>
	<path class="st62" d="M846.8,233.1L846.8,233.1c1.5,0,2.9,0,4.3,0h0.1c0,0,0,0,0,0.1c-0.1,0.1,0,0.2,0,0.2c0,5.1,0,10.1,0,15.2
		c0,0.1,0,0.2,0,0.3h-0.1c-1.4,0-2.7,0-4.1,0c-0.1,0-0.2,0-0.2-0.2C846.8,243.6,846.8,238.4,846.8,233.1z"/>
	<path class="st54" d="M829.5,240.5c0-0.1,0-0.1,0-0.2c0-4.9,0-9.7,0-14.6c0-0.2,0-0.2,0.2-0.2c1.3,0,2.7,0,4,0c0.1,0,0.2,0,0.2,0.2
		c0,4.9,0,9.8,0,14.7v0.1l0,0c-1.2,0-2.4,0-3.6,0C830,240.5,829.7,240.5,829.5,240.5L829.5,240.5z"/>
	<path class="st62" d="M806.4,235.4L806.4,235.4c1.5,0,2.9,0,4.3,0h0.1c0,0.1,0,0.1,0,0.2c0,4.4,0,8.7,0,13.1c0,0.2,0,0.2-0.2,0.2
		c-1.3,0-2.7,0-4,0c-0.1,0-0.2,0-0.2-0.2C806.4,244.3,806.4,239.9,806.4,235.4z"/>
	<path class="st62" d="M841,236.1c1.4,0,2.8,0,4.2,0c0.1,0,0.2,0,0.2,0c0,0.1,0,0.2,0,0.3c0,3.7,0,7.4,0,11.1c0,0.5,0,1,0,1.4
		c0,0-0.1,0-0.2,0c-1.4,0-2.7,0-4.1,0c-0.1,0-0.1,0-0.2,0C841,244.7,841,240.4,841,236.1z"/>
	<path class="st54" d="M789.2,241.9c0-3.2,0-6.3,0-9.5c0-0.9,0-1.9,0-2.8c0-0.1,0-0.2,0.2-0.2c1.4,0,2.7,0,4.1,0
		c0.2,0,0.2,0.1,0.2,0.2c0,4,0,8.1,0,12.1c0,0.1,0,0.1,0,0.2h-0.1C792,241.9,790.6,241.9,789.2,241.9L789.2,241.9z"/>
	<path class="st54" d="M823.7,241.9c0-0.9,0-1.7,0-2.6c0-3.2,0-6.5,0-9.7c0-0.2,0-0.2,0.2-0.2c1.4,0,2.7,0,4.1,0
		c0.1,0,0.2,0,0.2,0.2c0,4.1,0,8.2,0,12.3v0.1c-1.4,0-2.8,0-4.2,0C823.9,241.9,823.8,241.9,823.7,241.9z"/>
	<path class="st62" d="M812.2,236.8c0.8,0,1.7,0,2.5,0c0.6,0,1.3,0,1.9,0c0.1,0,0,0.1,0,0.2c0,3.9,0,7.8,0,11.7
		c0,0.2-0.1,0.2-0.2,0.2c-1.3,0-2.7,0-4,0c-0.2,0-0.2,0-0.2-0.2c0-3.9,0-7.8,0-11.7C812.2,237,812.2,236.9,812.2,236.8z"/>
	<path class="st54" d="M794.9,242.6c0-2.9,0-5.7,0-8.6c0-0.8,0-1.6,0-2.4c0-0.2,0.1-0.2,0.2-0.2c1.3,0,2.7,0,4,0
		c0.2,0,0.2,0,0.2,0.2c0,3.6,0,7.2,0,10.8c0,0.1,0,0.1,0,0.2c-0.1,0-0.1,0-0.2,0c-1.4,0-2.7,0-4.1,0
		C795,242.7,795,242.6,794.9,242.6z"/>
	<path class="st62" d="M818,238.6c1,0,2,0,3,0c0.5,0,1,0,1.5,0c0,0.1,0,0.1,0,0.2c0,3.3,0,6.7,0,10c0,0.2,0,0.2-0.2,0.2
		c-1.3,0-2.7,0-4,0c-0.2,0-0.2,0-0.2-0.2c0-3.3,0-6.7,0-10C817.9,238.7,817.9,238.6,818,238.6z"/>
	<path class="st54" d="M783.4,243.8c0-3,0-6,0-9c0-0.3,0-0.2,0.2-0.2c1.3,0,2.7,0,4,0c0.2,0,0.2,0,0.2,0.2c0,3,0,6,0,9
		c-0.1,0-0.1,0-0.2,0c-0.8,0-1.6,0-2.3,0C784.7,243.8,784,243.8,783.4,243.8z"/>
	<path class="st62" d="M800.7,240c1.3,0,2.6,0,3.9,0c0.2,0,0.3,0,0.5,0c0,1.1,0,2.2,0,3.4c0,1.8,0,3.7,0,5.5c-0.1,0.1-0.1,0-0.2,0
		c-1.4,0-2.7,0-4.1,0c-0.1,0-0.1,0-0.2,0c0-0.1,0-0.1,0-0.2C800.7,245.8,800.7,242.9,800.7,240z"/>
	<path class="st62" d="M835.3,240c1.5,0,2.9,0,4.4,0c0,3,0,5.9,0,8.9c-0.1,0-0.1,0-0.2,0c-1.3,0-2.6,0-4,0c-0.1,0-0.2,0-0.2,0
		c0-0.1,0-0.1,0-0.2C835.3,245.8,835.3,243,835.3,240C835.3,240.1,835.3,240.1,835.3,240z"/>
	<path class="st62" d="M829.5,240.5c0.3,0,0.5,0,0.8,0c1.2,0,2.4,0,3.6,0c0,2.7,0,5.4,0,8.2c0,0.1,0,0.2,0,0.2c0,0.1-0.1,0-0.2,0
		c-1.4,0-2.7,0-4.1,0c-0.1,0-0.1,0-0.2,0c0-0.1,0-0.2,0-0.2c0-1.7,0-3.3,0-5C829.5,242.6,829.5,241.6,829.5,240.5z"/>
	<path class="st62" d="M823.7,241.9c0.1,0,0.2,0,0.2,0c1.4,0,2.8,0,4.2,0c0,0.1,0,0.1,0,0.2c0,2.2,0,4.4,0,6.6c0,0.2,0,0.2-0.2,0.2
		c-1.3,0-2.7,0-4,0c-0.1,0-0.1,0-0.2,0c0-0.1,0-0.2,0-0.3c0-2.2,0-4.3,0-6.5C823.7,242.1,823.7,242,823.7,241.9L823.7,241.9z"/>
	<path class="st62" d="M789.2,241.9c1.4,0,2.8,0,4.3,0h0.1v0.1c-0.1,0.1,0,0.1,0,0.2c0,2.3,0,4.5,0,6.8c-0.1,0-0.1,0-0.2,0
		c-1.3,0-2.6,0-4,0c-0.1,0-0.2,0-0.2,0v-0.1c0-2.3,0-4.5,0-6.8C789.2,242,789.2,242,789.2,241.9z"/>
	<path class="st62" d="M794.9,242.6c0.1,0,0.1,0,0.2,0c1.4,0,2.7,0,4.1,0c0.1,0,0.1,0,0.2,0v0.1c0,0.1,0,0.1,0,0.2
		c0,1.9,0,3.8,0,5.6c0,0.1,0,0.2,0,0.4c0,0.1-0.1,0-0.2,0c-1.4,0-2.7,0-4.1,0c-0.1,0-0.1,0-0.2,0c0-2,0-4,0-6
		C794.9,242.8,795,242.8,794.9,242.6C794.9,242.7,794.9,242.7,794.9,242.6z"/>
	<path class="st62" d="M783.4,243.8c0.6,0,1.3,0,1.9,0c0.8,0,1.6,0,2.3,0c0.1,0,0.1,0,0.2,0v0.1c0,0.1,0,0.1,0,0.2
		c0,1.6,0,3.2,0,4.7c0,0.1,0,0.1,0,0.2c0,0.1-0.1,0-0.2,0c-1.4,0-2.7,0-4.1,0c-0.1,0-0.1,0-0.2,0c0-1.6,0-3.3,0-4.9
		C783.4,244,783.4,243.9,783.4,243.8L783.4,243.8z"/>
	<path class="st54" d="M851.2,248.9c0-0.1,0-0.2,0-0.3c0-5.1,0-10.1,0-15.2c0-0.1,0-0.2,0-0.2c0,5.2,0,10.3,0,15.5
		C851.2,248.8,851.2,248.9,851.2,248.9z"/>
	<path class="st54" d="M841,236.1c0,4.3,0,8.6,0,12.8c-0.1-0.1,0-0.1,0-0.2c0-4.2,0-8.3,0-12.5C841,236.2,841,236.1,841,236.1
		L841,236.1z"/>
	<path class="st54" d="M845.4,248.9c0-0.5,0-1,0-1.4c0-3.7,0-7.4,0-11.1c0-0.1,0-0.2,0-0.3l0,0c0,0.1,0,0.2,0,0.2
		c0,4.1,0,8.3,0,12.4C845.4,248.8,845.5,248.9,845.4,248.9z"/>
	<path class="st54" d="M800.7,240c0,2.9,0,5.8,0,8.7c0,0.1,0,0.2,0,0.2c0-1.8,0-3.6,0-5.3C800.7,242.4,800.7,241.2,800.7,240
		L800.7,240z"/>
	<path class="st54" d="M805.1,248.9c0-1.8,0-3.7,0-5.5c0-1.1,0-2.2,0-3.4l0,0l0,0c0,0.1,0,0.2,0,0.2c0,2.8,0,5.7,0,8.5
		C805.1,248.8,805.2,248.9,805.1,248.9z"/>
	<path class="st54" d="M835.3,240c0,0.1,0,0.1,0,0.2c0,2.9,0,5.7,0,8.6c0,0.1,0,0.1,0,0.2c0,0,0-0.1,0-0.2c0-2.9,0-5.8,0-8.6
		C835.2,240.1,835.2,240.1,835.3,240L835.3,240L835.3,240z"/>
	<path class="st54" d="M839.6,248.9c0-3,0-5.9,0-8.9l0,0c0,0.1,0,0.2,0,0.2c0,2.8,0,5.6,0,8.5C839.7,248.8,839.7,248.9,839.6,248.9z
		"/>
	<path class="st54" d="M829.5,240.5c0,1,0,2.1,0,3.1c0,1.7,0,3.3,0,5c0,0.1,0,0.2,0,0.2c0-0.1,0-0.1,0-0.2c0-2.7,0-5.3,0-8
		C829.5,240.7,829.5,240.6,829.5,240.5L829.5,240.5z"/>
	<path class="st54" d="M833.9,248.9c-0.1-0.1,0-0.1,0-0.2c0-2.7,0-5.4,0-8.2l0,0c0,1,0,2.1,0,3.1
		C833.9,245.4,833.9,247.2,833.9,248.9z"/>
	<path class="st54" d="M789.2,241.9c0,0.1,0,0.1,0,0.2c0,2.3,0,4.5,0,6.8v0.1c0,0,0-0.1,0-0.2C789.2,246.5,789.2,244.2,789.2,241.9
		L789.2,241.9L789.2,241.9z"/>
	<path class="st54" d="M793.6,248.9c0-2.3,0-4.5,0-6.8c0-0.1,0-0.1,0-0.2c0,2.3,0,4.5,0,6.8C793.6,248.8,793.6,248.9,793.6,248.9z"
		/>
	<path class="st54" d="M823.7,242c0,0.1,0,0.1,0,0.2c0,2.2,0,4.3,0,6.5c0,0.1,0,0.2,0,0.3c-0.1-0.1,0-0.1,0-0.2
		C823.7,246.5,823.7,244.2,823.7,242z"/>
	<path class="st54" d="M794.9,242.7c0.1,0.1,0,0.1,0,0.2c0,2,0,4,0,6c-0.1-0.1,0-0.1,0-0.2C794.9,246.7,794.9,244.7,794.9,242.7z"/>
	<path class="st54" d="M799.3,248.9c0-0.1,0-0.2,0-0.4c0-1.9,0-3.8,0-5.6c0-0.1,0-0.1,0-0.2c0,2,0,4,0,6
		C799.4,248.8,799.4,248.9,799.3,248.9z"/>
</g>
<path class="st54" d="M808.7,236.5c0.1,0.1,0,0.2,0,0.3c0,2.1,0,4.1,0,6.2c-0.1-0.1,0-0.2,0-0.2
	C808.7,240.6,808.7,238.6,808.7,236.5z"/>
<path class="st54" d="M814.3,242.9c0-0.1,0-0.1,0-0.2c0-2,0-4,0-6c0-0.1,0-0.2,0-0.2C814.4,238.6,814.3,240.8,814.3,242.9z"/>
<g id="character4">
	<path class="st63" d="M1119.9,283.3c-10.8,7.1-9.8,21.5-7.7,22.8c4.1,2.6,12.1-1.5,12.1-1.5s-0.8,6.1-1.6,7.2
		c-0.8,1.1,11,3.9,11.7,1.6c-0.1-1.5-2.8-10.1-2.6-13.1c1.9-2.3,1.5-3.6,2.2-6.1C1136.1,286.5,1128.7,277.5,1119.9,283.3z"/>
	<path class="st63" d="M1130.3,320c-8.1-1.2-20.4,23-26.1,23.5c-1.7,0.1-8.3-18.3-8.3-18.3s-6.4-0.4-6.3,1.2
		c1.4,15.2,5.8,30.4,13.6,30.4C1115.9,356.8,1136,320.9,1130.3,320z"/>
	<g>
		<path class="st64" d="M1085.1,299v13.7c0,0-29.5,2.4-54.8,24.3c0-3.1,0.1-9.3,0.4-16.9c0.7-25,2.2-65.6,2.2-65.6
			c8.4,15.5,21.5,26.6,32.4,33.9C1076.2,295.6,1085.1,299,1085.1,299z"/>
		<path class="st1" d="M1085.1,299v13.7c0,0-29.5,2.4-54.8,24.3c0-3.1,0.2-29.4,0.4-37c11.3,25.2,43.1,8.9,34.5-11.6
			C1076.2,295.6,1085.1,299,1085.1,299z"/>
		<path class="st1" d="M1034.4,260.4c8.8,13.6,20.9,23.4,29.9,29.4c8.9,5.9,16.3,9.2,19,10.4v10.9c-2.8,0.4-8.8,1.3-16.7,3.8
			c-9.1,2.9-22.1,8.3-34.6,18.3c0.1-3.1,0.2-7.4,0.3-13.1C1032.9,301,1033.9,272.6,1034.4,260.4L1034.4,260.4z M1032.9,254.4
			c0,0-1.5,40.6-2.2,65.6c-0.2,7.6-0.4,13.7-0.4,16.9c25.3-21.9,54.8-24.3,54.8-24.3V299c0,0-8.9-3.4-19.8-10.7
			C1054.3,281,1041.3,269.9,1032.9,254.4L1032.9,254.4z"/>
		<g>
			<path class="st65" d="M1031.6,253.3c-8.6-2.7-6.6,81.7-1.3,83.6S1038.8,255.6,1031.6,253.3z"/>
			<path class="st66" d="M1030.5,338.1c-0.2,0-0.4,0-0.6-0.1c-1-0.4-1.8-1.6-2.4-4.2c-0.5-1.9-0.9-4.6-1.4-8
				c-0.8-6.3-1.3-14.9-1.6-24.1c-0.4-15.9,0.1-37.3,2.9-45.7c1.3-4,3.2-4.4,4.5-4c1.5,0.5,2.5,2.4,3.3,6.1
				c2.1,9.8,2.1,30.2,1.5,44.6c-0.4,8.6-1,16.7-1.7,22.6c-1.2,9.2-2.3,11.3-3.2,12.1C1031.4,338,1031,338.1,1030.5,338.1z
				 M1031.2,254.5c0,0-0.9,0.3-1.8,4.1c-1.9,7.7-2.8,24.9-2.3,44c0.2,8.6,0.8,16.6,1.5,22.6c0.7,6.5,1.5,9,2,10c0.4-1,1.1-3.3,1.9-9
				c0.7-5.5,1.3-12.6,1.7-20.7c0.8-17.2,0.5-34.3-0.8-43.5C1032.4,255.3,1031.3,254.5,1031.2,254.5L1031.2,254.5z"/>
		</g>
		<path class="st66" d="M1080.8,295.7c-1.5,2-2.5,15.1,0.5,18.9c0.7,1,5.2-0.5,6.1,3.7c0.8,4.2-1.7,17-2.2,19.1s5.2,5.7,6.4,4.7
			c1.2-1-0.8-26.3,0-27.2c0.8-0.8,6.1-1.4,7.3-2.4c1.2-1,4.6-7.4,4.4-9.5c-0.3-3.4-3.2-5.9-4.2-6.2
			C1098,296.5,1081.4,294.9,1080.8,295.7z"/>
	</g>
	<path class="st63" d="M1127.6,316.3c-6.2-7.1-25.6,18.7-33.6,20.7s-31.8,0.7-34.7,0c-2.9-0.7-1.1,3.2,0,4.1
		c1.1,0.8,22.3,8.6,36.3,7.7C1109.6,347.9,1132.5,321.8,1127.6,316.3z"/>
	<g>
		<path class="st67" d="M1092.3,337.6c-0.1,0-0.2-0.1-0.2-0.2s0.1-0.3,0.2-0.3c0.6-0.1,1.2-0.2,1.6-0.3c0.8-0.2,1.7-0.6,2.9-1.4
			c0.1-0.1,0.3,0,0.3,0.1c0.1,0.1,0,0.3-0.1,0.3c-1.2,0.7-2.2,1.2-3,1.4C1093.6,337.3,1093,337.4,1092.3,337.6
			C1092.3,337.5,1092.3,337.6,1092.3,337.6z"/>
	</g>
	<g>
		<path class="st67" d="M1095.8,349c-0.1,0-0.2-0.1-0.2-0.2s0.1-0.3,0.2-0.3c2.7-0.2,5.7-1.4,9.2-3.3c0.1-0.1,0.3,0,0.3,0.1
			c0.1,0.1,0,0.3-0.1,0.3C1101.7,347.6,1098.6,348.8,1095.8,349C1095.9,349,1095.8,349,1095.8,349z"/>
	</g>
	<path class="st63" d="M1058.7,337.6c-1.6-1.1-2.3-2.8-4.3-3.3s-4.1,0.1-5.5,0s-2.4-0.3-1.2,0.7c1.2,1,3.4,0.5,4.2,0.9
		c0.8,0.4-4.1,3.2-5,2.9c-0.9-0.3-5.7-2.1-6.2-1.4s7.8,7.3,10.1,7.3c2.4,0,7.9-4.6,7.9-4.6V337.6z"/>
	<path class="st63" d="M1095.8,325.2c0-3.8-3.9-10.2-5.6-9.7s-1.9,2.9-2.7,3.7c-0.8,0.8-0.5,1.3,0.9,1s1.9-1.7,2.3-1.5
		s-0.2,5.1,0.2,6.2C1091.6,326.7,1095.8,325.2,1095.8,325.2z"/>
	<path class="st63" d="M1089.7,320.9c0.2-0.6-4-0.5-4.2,0.3c-0.3,1.3,0,6.1,0.8,6.6c0.9,0.5,2.8-1,3.2-1.4c0.4-0.4,0.8-3.4,0.4-3.8
		c-0.5-0.5-1.9,0.1-1.9-0.1C1088.1,322.2,1089.5,321.8,1089.7,320.9z"/>
	<path class="st68" d="M1118,284.7c-2-10.8,11-14.3,10.9-6.1c5.6,2.1,11.4,9.4,8.7,15.3c-2.8,5.9-5.8,6.4-5.5,9.3
		c0.2,2.3-7.2-4.2-6.5-6.2c0.7-2.1,2.6-3.6,1.6-5.2c-2-3.4-3.3,2.9-3.7,2.8c-0.3-0.1-0.7-0.5-1.2-1.1c-0.1-0.1,1-3.5,0.9-3.6
		C1121.9,288,1118.8,287.1,1118,284.7z"/>
	<path class="st68" d="M1074.1,491.4c-17.3,5-18.9,8.8-16.3,8.8c3.7,0,22.4,0,26.7,0c3.6,0,1.1-7,0.3-7.5
		C1083.5,491.7,1076.8,490.6,1074.1,491.4z"/>
	<path class="st63" d="M1080.8,481.6c-1.6,5-5,9.7-7.9,11.5s10.5,2.9,11.5,0.9c0.4-0.8-0.2-0.6,0.1-2c0.4-1.3,4.8-9,5.2-10
		C1090.1,481.1,1082.3,477.1,1080.8,481.6z"/>
	<path class="st68" d="M1156.3,491.4c-17.3,5-18.9,8.8-16.3,8.8c3.7,0,22.4,0,26.7,0c3.6,0,1.1-7,0.3-7.5
		C1165.6,491.7,1159,490.6,1156.3,491.4z"/>
	<path class="st63" d="M1154.7,479.3c2.3,6.1,3.3,12,0.4,13.8s10.5,2.9,11.5,0.9c0.4-0.8-0.1-1-0.6-2.3c-0.6-1.7-1.4-11.6-1.6-13.5
		C1164.3,477.2,1153,474.9,1154.7,479.3z"/>
	
		<radialGradient id="SVGID_20_" cx="3625.7527" cy="92.7411" r="35.3022" gradientTransform="matrix(1 0 0 -1 -2508 502)" gradientUnits="userSpaceOnUse">
		<stop  offset="5.319150e-03" style="stop-color:#20233D"/>
		<stop  offset="1" style="stop-color:#292F54"/>
	</radialGradient>
	<path class="st69" d="M1119.6,394c0,0,13.8,50.7,18.7,55.4c4.9,4.7,13.7,25.6,16.4,33.2c1.8,4.9,10.6,2.5,10.6-0.8
		s-1.1-28.5-4.6-34.6c-2.8-4.9-7-7-8.6-9.5c-1.6-2.7-5.6-36.5-5.6-38.3c0-3.1,0.9-7.9-0.1-14.8c-0.5-3.3-9.6-16.7-9.6-16.7
		l-19.1,9.7L1119.6,394z"/>
	<path class="st68" d="M1111.1,372.3c0,0-19.2,88-32.2,109.7c-1.2,2,7.4,6.5,9.2,4.3c7.7-9.6,26.3-33.6,26.3-41.6s0-11,0-11
		s14.3-34.6,16.8-35.1c1.6-0.3,10.7-7.8,10.6-14c-0.1-6.7-11.3-14.3-11.3-14.3L1111.1,372.3z"/>
	<path class="st70" d="M1122.6,311.8c-3.4,1.6-10.2,7.2-11.7,9c-1.1,1.3-2.5,60.1-2.5,62.4s31.7,1.3,36.1-2.7
		c1.1-1-6.1-11.3-6.2-16.7c0-2.3,1.8-24.3,2.3-34.5c0.6-12.9-7.5-17.9-9.9-18.3C1127.2,310.3,1122.6,311.8,1122.6,311.8z"/>
	<path class="st70" d="M1117.2,315.4c-5,3-19.9,19.8-19.9,19.8s8.6,10.7,9.9,11.7c1.4,1,14.8-10.1,14.8-10.1
		S1123.7,311.4,1117.2,315.4z"/>
	<g>
		<path class="st71" d="M1110.8,345.9c-0.1,0-0.2-0.1-0.3-0.2c-0.1-0.2-0.1-0.4,0.1-0.5c5.1-3.1,10.7-7.5,12.2-9.1
			c0.1-0.1,0.4-0.2,0.5,0c0.1,0.1,0.2,0.4,0,0.5c-1.5,1.6-7.1,6-12.3,9.2C1110.9,345.9,1110.9,345.9,1110.8,345.9z"/>
	</g>
</g>
<g>
	<g>
		<polygon class="st19" points="1013.4,131 1057.4,122.8 1052.5,115.9 		"/>
		<polygon class="st72" points="1013.4,131 1053.5,103.8 1051.5,127.9 		"/>
		<polygon class="st19" points="1013.4,131 1052.3,118.7 1057.4,122.8 1052.8,112.5 		"/>
	</g>
	<g>
		<g>
			<path class="st19" d="M1063.1,115.7c-1,0-2,0.1-3,0.1l-0.1-0.9c1-0.1,2-0.1,3.1-0.1V115.7z"/>
		</g>
		<g>
			<path class="st19" d="M1107.6,226.3l0.8-0.3c-0.2-0.5-0.3-0.9-0.4-1.4c-0.3-1.4-0.3-2.8,0.1-4.3l-0.8-0.2
				c-0.4,1.6-0.5,3.1-0.1,4.7C1107.2,225.2,1107.4,225.7,1107.6,226.3z"/>
			<path class="st19" d="M1117.4,233.4l0.1-0.9c-0.2,0-0.5-0.1-0.7-0.1c-1.8-0.4-3.4-1.1-4.8-2l-0.5,0.7c1.5,1,3.2,1.7,5.1,2.1
				C1116.9,233.3,1117.1,233.3,1117.4,233.4z"/>
			<path class="st19" d="M1087.2,118.2c-1.9-0.6-3.9-1.1-5.9-1.5l0,0l-0.2,0.9c2,0.4,3.9,0.9,5.8,1.5L1087.2,118.2z"/>
			<path class="st19" d="M1115.9,211.9l-0.3-0.8c-1.9,0.7-3.7,2-5.2,3.5l0.6,0.6C1112.4,213.7,1114,212.6,1115.9,211.9z"/>
			<path class="st19" d="M1098.7,122.6c-1.8-0.9-3.7-1.7-5.6-2.4l-0.3,0.8c1.9,0.7,3.8,1.5,5.6,2.4L1098.7,122.6z"/>
			<path class="st19" d="M1075.3,115.5c-2-0.3-4.1-0.5-6.1-0.6l-0.1,0.9c2,0.1,4,0.3,6,0.6L1075.3,115.5z"/>
			<path class="st19" d="M1118.8,136.4c-1.5-1.4-3-2.8-4.6-4l-0.5,0.7c1.6,1.3,3.1,2.6,4.6,4L1118.8,136.4z"/>
			<path class="st19" d="M1138.4,167.2c-0.7-1.9-1.4-3.9-2.2-5.7l-0.8,0.3c0.8,1.8,1.5,3.8,2.2,5.7L1138.4,167.2z"/>
			<path class="st19" d="M1109.3,128.7c-1.7-1.1-3.4-2.2-5.2-3.3l-0.4,0.8c1.7,1,3.5,2.1,5.1,3.2L1109.3,128.7z"/>
			<path class="st19" d="M1127.3,231.9c0.7-0.4,1.4-0.8,2-1.2l-0.5-0.7c-0.6,0.4-1.3,0.8-1.9,1.2c-1,0.6-2.2,1-3.4,1.3l0.2,0.9
				C1124.9,233,1126.1,232.5,1127.3,231.9z"/>
			<path class="st19" d="M1140.6,179.2l0.9-0.2c-0.4-2-0.8-4-1.3-6l-0.8,0.2C1139.8,175.2,1140.2,177.2,1140.6,179.2z"/>
			<path class="st19" d="M1139.4,211.9c-0.3,1.1-0.6,2.2-0.9,3.2l0.8,0.3c0.3-1,0.7-2.2,1-3.3c0.2-0.9,0.4-1.8,0.6-2.6l-0.9-0.2
				C1139.9,210.2,1139.7,211.1,1139.4,211.9z"/>
			<path class="st19" d="M1133.6,155.9c-1-1.8-2-3.6-3.1-5.3l-0.7,0.5c1.1,1.7,2.1,3.5,3,5.2L1133.6,155.9z"/>
			<path class="st19" d="M1127,145.6c-0.6-0.9-1.3-1.7-2-2.5c-0.6-0.7-1.2-1.5-1.9-2.2l-0.6,0.6c0.6,0.7,1.3,1.4,1.9,2.2
				c0.7,0.8,1.3,1.7,2,2.5L1127,145.6z"/>
			<path class="st19" d="M1141.8,191.2h0.9c0-2-0.2-4.1-0.4-6.1l-0.9,0.1C1141.6,187.2,1141.8,189.2,1141.8,191.2z"/>
			<path class="st19" d="M1138.2,226.6c0.6,1.8,1.1,3.7,1.5,5.9l0.9-0.2c-0.4-2.2-0.9-4.1-1.5-6L1138.2,226.6z"/>
			<path class="st19" d="M1141.1,203.3l0.9,0.1c0.3-2,0.5-4.1,0.6-6.1h-0.9C1141.6,199.3,1141.4,201.4,1141.1,203.3z"/>
			<path class="st19" d="M1140.5,256.6l0.9,0.1c0.1-2,0.2-4.1,0.3-6.1h-0.9C1140.7,252.6,1140.6,254.6,1140.5,256.6z"/>
			<path class="st19" d="M1139.2,268.7l0.9,0.1c0.3-2,0.6-4,0.8-6.1l-0.9-0.1C1139.8,264.7,1139.5,266.7,1139.2,268.7z"/>
			<path class="st19" d="M1121.7,210.3l-0.1,0.9c0.6,0.1,1.1,0.1,1.7,0.3c1.3,0.3,2.7,0.8,4,1.5l0.4-0.8c-1.4-0.7-2.8-1.2-4.2-1.5
				C1122.9,210.5,1122.3,210.4,1121.7,210.3z"/>
			<path class="st19" d="M1136.9,280.7l0.8,0.2c0.2-0.9,0.4-1.7,0.6-2.6c0.2-1.1,0.5-2.2,0.7-3.4l-0.9-0.2
				C1137.8,276.7,1137.4,278.7,1136.9,280.7z"/>
			<path class="st19" d="M1137,221.1l-0.7-0.3l0.2-0.1c-1.1-1.8-2.3-3.4-3.8-4.9l-0.6,0.6c1.4,1.4,2.7,3,3.7,4.7l0.4-0.2
				c-0.9,1.9-2,3.5-3.1,5l0.7,0.5C1134.9,224.9,1136,223.1,1137,221.1z"/>
			<path class="st19" d="M1140.6,241.3c0.1,1.1,0.1,2.1,0.1,3.2h0.9c0-1.1-0.1-2.1-0.1-3.2c0-1-0.1-2-0.2-2.9l-0.9,0.1
				C1140.5,239.4,1140.6,240.4,1140.6,241.3z"/>
		</g>
	</g>
</g>
<path class="st73" d="M120.5,50.5c-6-9.2-18.3-11.7-27.5-5.6c-5.2,3.5-8.3,9-8.8,14.7c-5.5-1.7-11.7-1.1-16.9,2.4
	c-9.2,6.1-11.7,18.5-5.7,27.7c7.9,12.1,38.9,17.5,54.1,17.9C121.4,93,128.2,62.3,120.5,50.5z"/>
<g>
	<path class="st74" d="M954.9,425l-61.3,21c-5.1,1.8-10.7-1-12.5-6.1L868,401.4c-1.8-5.1,1-10.7,6.1-12.5l61.3-21
		c5.1-1.8,10.7,1,12.5,6.1l13.1,38.5C962.8,417.7,960.1,423.3,954.9,425z"/>
	<g>
		<path class="st38" d="M928.1,424.8l-13.4,4.6c-11,3.8-23.2-2.2-26.9-13.2l0,0c-3.8-11,2.2-23.2,13.2-26.9l13.4-4.6
			c11-3.8,23.2,2.2,26.9,13.2l0,0C945.1,408.9,939.1,421,928.1,424.8z"/>
		<path class="st52" d="M911.3,418.8c0.4,1.3,2.1,1.5,2.9,0.4l9.6-14.6c0.6-0.9,0.1-2.2-0.9-2.4l-16.2-4.6c-1.3-0.4-2.4,0.8-2,2.1
			C904.8,399.6,911.3,407.7,911.3,418.8"/>
	</g>
</g>
</svg>
