<?xml version="1.0" encoding="utf-8"?>
<!-- Generator: Adobe Illustrator 21.1.0, SVG Export Plug-In . SVG Version: 6.00 Build 0)  -->
<svg version="1.1" id="Capa_1" xmlns="http://www.w3.org/2000/svg" xmlns:xlink="http://www.w3.org/1999/xlink" x="0px" y="0px"
	 viewBox="0 0 841.9 595.3" style="enable-background:new 0 0 841.9 595.3;" xml:space="preserve">
<style type="text/css">
	.st0{fill:#FFFFFF;}
	.st1{fill:#C1001F;}
	.st2{fill:#BF0811;}
</style>
<g>
	<path class="st0" d="M605.1,342.1c0,26.9-5,46.2-15.1,57.8c-10,11.6-27.1,17.4-51.2,17.4h-93.2v-32.9H521c15.9,0,27.1-2.7,33.9-8.2
		c6.7-5.5,10.1-14.6,10.1-27.5c0-13.2-1.7-22.4-5-27.5c-3.3-5.2-12.1-11.6-26.1-19.3l-40.2-22c-20.2-11-33.3-21.4-39.4-31.1
		c-6.4-9.5-9.6-23.7-9.6-42.7c0-20.2,5.6-35.7,17-46.3c11.3-10.7,27.5-16,48.4-16h80.1V178h-60.9c-15.6,0-27,2.8-34.3,8.3
		s-11,13.3-11,23.5c0,2.7,0.1,4.7,0.5,5.9c0,11.6,5.9,20.6,17.9,27.1l64,36.2c17,9.8,27.9,18.2,32.5,25.2
		C603,311.4,605.1,324.1,605.1,342.1z"/>
	<path class="st1" d="M37.5,87c-89.2,529.6,796.1,378.5,796.1,378.5S-174.5,696.1,37.5,87"/>
	<rect x="377.1" y="88" class="st0" width="41.4" height="38.8"/>
	<rect x="378.4" y="143.9" class="st0" width="38.2" height="353.1"/>
	<path class="st0" d="M824.9,291.5v-80.3c0-24-6.3-41.3-19-51.8c-12.6-10.5-34.4-15.8-65.4-15.8c-30.7,0-53.4,5.1-68.1,15.3
		c-15.1,10.5-22.6,27.7-22.6,51.5V259h-39.4v32.4h39.4v55.8c0,25.3,5.7,43.2,17.2,53.8c11.1,10.8,30,16.2,56.9,16.2h90.2v-32.4
		h-78.9c-18.1,0-30.5-3-37.4-9.1c-6.9-6-10.4-16.9-10.4-32.6v-51.7L824.9,291.5L824.9,291.5z M687.4,218.4c0-15.4,4.5-26.4,13.6-33
		c8.7-6.6,21.9-9.9,39.6-9.9c12,0,22.9,2.7,32.5,8.1c9.6,5.7,14.4,13.5,14.4,23.1l0.4,52.5H687.4V218.4z"/>
	<path class="st0" d="M169.5,418.6l-47.3-274.9H163l27.7,177.6L216,143.7h40.7l23.6,177.6l29.3-177.6h40.7L303,418.6h-40.8
		l-26.1-154.4L210,418.6H169.5L169.5,418.6z"/>
</g>
<g>
	<path class="st0" d="M33.6,564.1l-5.8-26.2h5l3.4,16.9l3.1-16.9h5l2.9,16.9l3.6-16.9h5l-5.8,26.2h-5l-3.2-14.7l-3.2,14.7H33.6z"/>
	<path class="st0" d="M70.2,537.4c7.4,0,11.1,2.2,11.1,6.6v9.1H64.2v4c0,2.4,2,3.5,6,3.5c4,0,6-1.2,6-3.5v-2h5v3
		c0,4.4-3.7,6.5-11.1,6.5c-7.4,0-11.1-2.2-11.1-6.5v-14.1C59.2,539.6,62.9,537.4,70.2,537.4z M76.3,548.9v-4c0-2.4-2-3.5-6-3.5
		c-4,0-6,1.2-6,3.5v4H76.3z"/>
	<path class="st0" d="M85.3,564.1v-37.3h5v14.6c0-2.7,2.9-4,8.6-4s8.6,2.2,8.6,6.6V558c0,4.4-2.9,6.5-8.6,6.5s-8.6-1.3-8.6-4v3.5
		H85.3z M90.4,544.9V557c0,2.4,2,3.5,6,3.5c4,0,6-1.2,6-3.5v-12.1c0-2.4-2-3.5-6-3.5C92.4,541.4,90.4,542.6,90.4,544.9z"/>
	<path class="st2" d="M126.1,532.8c-1.9,0-2.9-0.9-2.9-2.8c0-1.8,1-2.8,2.9-2.8c1.9,0,2.9,0.9,2.9,2.8
		C129.1,531.9,128.1,532.8,126.1,532.8z M128.7,537.9v26.2h-5v-26.2H128.7z"/>
	<path class="st2" d="M132.7,537.9h5v3.5c0-2.7,2.9-4,8.6-4c5.7,0,8.6,2.2,8.6,6.6v20.1h-5v-19.1c0-2.4-2-3.5-6-3.5
		c-4,0-6,1.2-6,3.5v19.1h-5V537.9z"/>
	<path class="st2" d="M166.7,529.8v8.1h5v4h-5V556c0,2.7,1.7,4,5,4v4h-5c-3.4,0-5-2-5-6v-16.1h-2.8v-4h2.8v-8.1H166.7z"/>
	<path class="st2" d="M186.9,537.4c7.4,0,11.1,2.2,11.1,6.6v9.1h-17.1v4c0,2.4,2,3.5,6,3.5c4,0,6-1.2,6-3.5v-2h5v3
		c0,4.4-3.7,6.5-11.1,6.5c-7.4,0-11.1-2.2-11.1-6.5v-14.1C175.8,539.6,179.5,537.4,186.9,537.4z M192.9,548.9v-4c0-2.4-2-3.5-6-3.5
		c-4,0-6,1.2-6,3.5v4H192.9z"/>
	<path class="st2" d="M202,564.1v-37.3h5v37.3H202z"/>
	<path class="st2" d="M211,564.1v-37.3h5v37.3H211z"/>
	<path class="st2" d="M222.6,532.8c-1.9,0-2.9-0.9-2.9-2.8c0-1.8,1-2.8,2.9-2.8c1.9,0,2.9,0.9,2.9,2.8
		C225.6,531.9,224.6,532.8,222.6,532.8z M225.1,537.9v26.2h-5v-26.2H225.1z"/>
	<path class="st2" d="M251.3,537.9v30.2c0,3.7-3.7,5.5-11.1,5.5c-7.4,0-11.1-1.9-11.1-5.5v-2.5h5v1.5c0,1.7,2,2.5,6,2.5
		c4,0,6-0.8,6-2.5v-6.5c0,2.7-2.9,4-8.6,4c-5.7,0-8.6-2.2-8.6-6.5v-14.1c0-4.4,2.9-6.6,8.6-6.6c5.7,0,8.6,1.3,8.6,4v-3.5H251.3z
		 M246.3,557v-12.1c0-2.4-2-3.5-6-3.5c-4,0-6,1.2-6,3.5V557c0,2.4,2,3.5,6,3.5C244.3,560.5,246.3,559.4,246.3,557z"/>
	<path class="st2" d="M266.4,537.4c7.4,0,11.1,2.2,11.1,6.6v9.1h-17.1v4c0,2.4,2,3.5,6,3.5c4,0,6-1.2,6-3.5v-2h5v3
		c0,4.4-3.7,6.5-11.1,6.5c-7.4,0-11.1-2.2-11.1-6.5v-14.1C255.4,539.6,259.1,537.4,266.4,537.4z M272.5,548.9v-4c0-2.4-2-3.5-6-3.5
		c-4,0-6,1.2-6,3.5v4H272.5z"/>
	<path class="st2" d="M281.6,537.9h5v3.5c0-2.7,2.9-4,8.6-4c5.7,0,8.6,2.2,8.6,6.6v20.1h-5v-19.1c0-2.4-2-3.5-6-3.5
		c-4,0-6,1.2-6,3.5v19.1h-5V537.9z"/>
	<path class="st2" d="M315.6,529.8v8.1h5v4h-5V556c0,2.7,1.7,4,5,4v4h-5c-3.4,0-5-2-5-6v-16.1h-2.8v-4h2.8v-8.1H315.6z"/>
	<path class="st0" d="M347.8,548.4c7.4,0.3,11.1,2.3,11.1,6v3.5c0,4.4-3.7,6.5-11.1,6.5c-7.4,0-11.1-2.2-11.1-6.5v-3h5v2
		c0,2.4,2,3.5,6,3.5c4,0,6-1.2,6-3.5v-1.5c0-1.4-2-2.3-6-2.5c-7.1-0.3-10.6-2.5-10.6-6.5v-2.5c0-4.4,3.5-6.6,10.6-6.6
		c7,0,10.6,2.2,10.6,6.6v3h-5v-2c0-2.4-1.9-3.5-5.5-3.5c-3.7,0-5.5,1.2-5.5,3.5v1.2C342.3,547.5,344.1,548.3,347.8,548.4z"/>
	<path class="st0" d="M376.1,568.4c-1.1,3.5-3,5.2-5.7,5.2h-3.7v-4h3.1c1.2,0,2-0.8,2.4-2.5l0.9-3l-10.9-26.2h6l7,20.3l6.7-20.3h6
		L376.1,568.4z"/>
	<path class="st0" d="M402.2,548.4c7.4,0.3,11.1,2.3,11.1,6v3.5c0,4.4-3.7,6.5-11.1,6.5c-7.4,0-11.1-2.2-11.1-6.5v-3h5v2
		c0,2.4,2,3.5,6,3.5c4,0,6-1.2,6-3.5v-1.5c0-1.4-2-2.3-6-2.5c-7.1-0.3-10.6-2.5-10.6-6.5v-2.5c0-4.4,3.5-6.6,10.6-6.6
		s10.6,2.2,10.6,6.6v3h-5v-2c0-2.4-1.8-3.5-5.5-3.5s-5.5,1.2-5.5,3.5v1.2C396.7,547.5,398.5,548.3,402.2,548.4z"/>
	<path class="st0" d="M425.2,529.8v8.1h5v4h-5V556c0,2.7,1.7,4,5,4v4h-5c-3.4,0-5-2-5-6v-16.1h-2.8v-4h2.8v-8.1H425.2z"/>
	<path class="st0" d="M445.3,537.4c7.4,0,11.1,2.2,11.1,6.6v9.1h-17.1v4c0,2.4,2,3.5,6,3.5c4,0,6-1.2,6-3.5v-2h5v3
		c0,4.4-3.7,6.5-11.1,6.5c-7.4,0-11.1-2.2-11.1-6.5v-14.1C434.2,539.6,437.9,537.4,445.3,537.4z M451.4,548.9v-4c0-2.4-2-3.5-6-3.5
		c-4,0-6,1.2-6,3.5v4H451.4z"/>
	<path class="st0" d="M460.4,537.9h5v3.5c0-2.7,2.2-4,6.6-4c4.4,0,6.9,1.1,7.7,3.2c1-2.1,3.7-3.2,8.3-3.2c4.6,0,6.9,2.2,6.9,6.6
		v20.1h-5v-19.1c0-2.4-1.6-3.5-4.8-3.5c-3.2,0-4.8,1.2-4.8,3.5v19.1h-5v-19.1c0-2.4-1.6-3.5-4.8-3.5c-3.2,0-4.8,1.2-4.8,3.5v19.1h-5
		V537.9z"/>
	<path class="st0" d="M513.8,564.1v-22.2H511v-4h2.8v-5c0-4,1.8-6,5.3-6h4.8v4c-3.4,0-5,1-5,3v4h5v4h-5v22.2H513.8z"/>
	<path class="st0" d="M550.1,558c0,4.4-3.7,6.5-11.1,6.5c-7.4,0-11.1-2.2-11.1-6.5v-14.1c0-4.4,3.7-6.6,11.1-6.6
		c7.4,0,11.1,2.2,11.1,6.6V558z M545,544.9c0-2.4-2-3.5-6-3.5c-4,0-6,1.2-6,3.5V557c0,2.4,2,3.5,6,3.5c4,0,6-1.2,6-3.5V544.9z"/>
	<path class="st0" d="M554.1,537.9h5v3.5c0-2.7,2.3-4,7-4c4.6,0,6.9,2.2,6.9,6.6v3h-5v-2c0-2.4-1.5-3.5-4.4-3.5
		c-3,0-4.4,1.2-4.4,3.5v19.1h-5V537.9z"/>
	<path class="st0" d="M600.2,537.4c7.4,0,11.1,2.2,11.1,6.6v9.1h-17.1v4c0,2.4,2,3.5,6,3.5c4,0,6-1.2,6-3.5v-2h5v3
		c0,4.4-3.7,6.5-11.1,6.5c-7.4,0-11.1-2.2-11.1-6.5v-14.1C589.2,539.6,592.8,537.4,600.2,537.4z M606.3,548.9v-4c0-2.4-2-3.5-6-3.5
		c-4,0-6,1.2-6,3.5v4H606.3z"/>
	<path class="st0" d="M615.3,537.9h5v3.5c0-2.7,2.9-4,8.6-4c5.7,0,8.6,2.2,8.6,6.6v20.1h-5v-19.1c0-2.4-2-3.5-6-3.5
		c-4,0-6,1.2-6,3.5v19.1h-5V537.9z"/>
	<path class="st0" d="M649.4,529.8v8.1h5v4h-5V556c0,2.7,1.7,4,5,4v4h-5c-3.4,0-5-2-5-6v-16.1h-2.8v-4h2.8v-8.1H649.4z"/>
	<path class="st0" d="M669.5,537.4c7.4,0,11.1,2.2,11.1,6.6v9.1h-17.1v4c0,2.4,2,3.5,6,3.5c4,0,6-1.2,6-3.5v-2h5v3
		c0,4.4-3.7,6.5-11.1,6.5c-7.4,0-11.1-2.2-11.1-6.5v-14.1C658.5,539.6,662.1,537.4,669.5,537.4z M675.6,548.9v-4c0-2.4-2-3.5-6-3.5
		c-4,0-6,1.2-6,3.5v4H675.6z"/>
	<path class="st0" d="M684.6,537.9h5v3.5c0-2.7,2.3-4,7-4c4.6,0,6.9,2.2,6.9,6.6v3h-5v-2c0-2.4-1.5-3.5-4.4-3.5
		c-3,0-4.4,1.2-4.4,3.5v19.1h-5V537.9z"/>
	<path class="st0" d="M712.6,537.9v3.5c0-2.7,2.9-4,8.6-4c5.7,0,8.6,2.2,8.6,6.6V558c0,4.4-2.8,6.5-8.6,6.5c-5.7,0-8.6-1.3-8.6-4
		v13.1h-5v-35.8H712.6z M718.7,560.5c4,0,6-1.2,6-3.5v-12.1c0-2.4-2-3.5-6-3.5c-4,0-6,1.2-6,3.5V557
		C712.6,559.4,714.7,560.5,718.7,560.5z"/>
	<path class="st0" d="M733.8,537.9h5v3.5c0-2.7,2.3-4,7-4c4.6,0,6.9,2.2,6.9,6.6v3h-5v-2c0-2.4-1.5-3.5-4.4-3.5s-4.4,1.2-4.4,3.5
		v19.1h-5V537.9z"/>
	<path class="st0" d="M759.3,532.8c-2,0-2.9-0.9-2.9-2.8c0-1.8,1-2.8,2.9-2.8c1.9,0,2.9,0.9,2.9,2.8
		C762.2,531.9,761.2,532.8,759.3,532.8z M761.8,537.9v26.2h-5v-26.2H761.8z"/>
	<path class="st0" d="M776.9,548.4c7.4,0.3,11.1,2.3,11.1,6v3.5c0,4.4-3.7,6.5-11.1,6.5c-7.4,0-11.1-2.2-11.1-6.5v-3h5v2
		c0,2.4,2,3.5,6,3.5c4,0,6-1.2,6-3.5v-1.5c0-1.4-2-2.3-6-2.5c-7.1-0.3-10.6-2.5-10.6-6.5v-2.5c0-4.4,3.5-6.6,10.6-6.6
		c7,0,10.6,2.2,10.6,6.6v3h-5v-2c0-2.4-1.8-3.5-5.5-3.5c-3.7,0-5.5,1.2-5.5,3.5v1.2C771.4,547.5,773.2,548.3,776.9,548.4z"/>
	<path class="st0" d="M803.1,537.4c7.4,0,11.1,2.2,11.1,6.6v9.1H797v4c0,2.4,2,3.5,6,3.5c4,0,6-1.2,6-3.5v-2h5v3
		c0,4.4-3.7,6.5-11.1,6.5c-7.4,0-11.1-2.2-11.1-6.5v-14.1C792,539.6,795.7,537.4,803.1,537.4z M809.1,548.9v-4c0-2.4-2-3.5-6-3.5
		c-4,0-6,1.2-6,3.5v4H809.1z"/>
</g>
</svg>
